<svg width="156" height="36" viewBox="0 0 156 36" fill="none" xmlns="http://www.w3.org/2000/svg">
<path d="M7.0003 28.8472C5.59894 28.8472 4.38196 28.6171 3.34937 28.1569C2.31678 27.6968 1.51776 27.0428 0.952292 26.1951C0.386828 25.3232 0.104095 24.318 0.104095 23.1797C0.104095 22.0898 0.34995 21.121 0.841658 20.2733C1.33337 19.4013 2.09551 18.6747 3.1281 18.0934C4.16069 17.5122 5.46372 17.1004 7.03718 16.8582L13.6015 15.8046V19.4377L7.95914 20.3823C7.00031 20.5518 6.28733 20.8545 5.8202 21.2905C5.35308 21.7265 5.11952 22.2957 5.11952 22.998C5.11952 23.6762 5.37767 24.2212 5.89396 24.6329C6.43484 25.0204 7.09865 25.2142 7.88538 25.2142C8.89338 25.2142 9.77846 25.0083 10.5406 24.5966C11.3273 24.1606 11.9297 23.5672 12.3476 22.8164C12.7902 22.0656 13.0114 21.2421 13.0114 20.3459V15.2597C13.0114 14.412 12.6672 13.7096 11.9789 13.1525C11.315 12.5712 10.43 12.2806 9.32363 12.2806C8.29104 12.2806 7.36909 12.5591 6.55777 13.1162C5.77103 13.649 5.19328 14.3635 4.8245 15.2597L0.878536 13.3705C1.2719 12.329 1.88654 11.4329 2.72244 10.682C3.58293 9.907 4.59093 9.30149 5.74645 8.86553C6.90196 8.42956 8.15582 8.21158 9.50802 8.21158C11.1552 8.21158 12.6058 8.51433 13.8596 9.11984C15.1135 9.70113 16.0846 10.5246 16.773 11.5903C17.486 12.6318 17.8425 13.8549 17.8425 15.2597V28.4113H13.2696V25.0325L14.3022 24.9599C13.7859 25.8076 13.1712 26.5221 12.4583 27.1034C11.7453 27.6604 10.934 28.0964 10.0243 28.4113C9.11465 28.7019 8.10665 28.8472 7.0003 28.8472Z" fill="white"/>
<path d="M28.4663 28.8472C26.3273 28.8472 24.4588 28.3507 22.8608 27.3577C21.2873 26.3404 20.2056 24.972 19.6155 23.2524L23.2296 21.5448C23.7458 22.659 24.4588 23.5309 25.3685 24.1606C26.3027 24.7903 27.3353 25.1052 28.4663 25.1052C29.3513 25.1052 30.052 24.9114 30.5683 24.5239C31.0846 24.1364 31.3427 23.6278 31.3427 22.998C31.3427 22.6105 31.2321 22.2957 31.0108 22.0534C30.8142 21.787 30.5314 21.569 30.1626 21.3995C29.8185 21.2057 29.4374 21.0483 29.0194 20.9272L25.7373 20.0189C24.0409 19.5345 22.7501 18.7958 21.8651 17.8028C21.0046 16.8098 20.5743 15.6351 20.5743 14.2788C20.5743 13.0677 20.8817 12.0142 21.4963 11.118C22.1355 10.1976 23.0083 9.48314 24.1146 8.97452C25.2456 8.46589 26.5363 8.21158 27.9868 8.21158C29.8799 8.21158 31.5517 8.65965 33.0023 9.5558C34.4528 10.452 35.4854 11.7114 36.1 13.3342L32.4122 15.0417C32.068 14.1455 31.4903 13.431 30.6789 12.8982C29.8676 12.3654 28.958 12.0989 27.95 12.0989C27.1386 12.0989 26.4994 12.2806 26.0323 12.6439C25.5652 13.0072 25.3316 13.4795 25.3316 14.0608C25.3316 14.4241 25.43 14.7389 25.6266 15.0054C25.8233 15.2718 26.0938 15.4898 26.438 15.6593C26.8067 15.8288 27.2247 15.9863 27.6918 16.1316L30.9002 17.0762C32.5474 17.5606 33.8136 18.2872 34.6987 19.256C35.6083 20.2248 36.0631 21.4116 36.0631 22.8164C36.0631 24.0032 35.7435 25.0568 35.1043 25.9771C34.4651 26.8733 33.58 27.5757 32.4491 28.0843C31.3182 28.5929 29.9905 28.8472 28.4663 28.8472Z" fill="white"/>
<path d="M38.3006 28.4113V0.90918H43.1316V18.929L41.2877 18.3841L50.7285 8.64755H56.7397L49.3272 16.6039L56.8872 28.4113H51.3555L44.7912 18.1661L47.6677 17.5848L41.6196 23.979L43.1316 21.0725V28.4113H38.3006Z" fill="white"/>
<path d="M58.1096 28.4113V0.90918H62.9407V28.4113H58.1096Z" fill="white"/>
<path d="M75.4406 28.8472C73.3754 28.8472 71.5684 28.387 70.0195 27.4667C68.4707 26.5463 67.266 25.299 66.4055 23.7246C65.545 22.1503 65.1147 20.4065 65.1147 18.4931C65.1147 16.507 65.545 14.751 66.4055 13.2252C67.2906 11.6751 68.4829 10.452 69.9827 9.5558C71.507 8.65965 73.2033 8.21158 75.0718 8.21158C76.6453 8.21158 78.0221 8.46589 79.2022 8.97452C80.4069 9.48314 81.4272 10.1855 82.2631 11.0817C83.099 11.9778 83.7382 13.0072 84.1807 14.1698C84.6233 15.3081 84.8445 16.5433 84.8445 17.8755C84.8445 18.2145 84.82 18.5657 84.7708 18.929C84.7462 19.2923 84.6847 19.6072 84.5864 19.8736H69.0976V16.2406H81.8574L79.571 17.9481C79.7922 16.834 79.7308 15.841 79.3866 14.969C79.067 14.0971 78.5261 13.4068 77.7639 12.8982C77.0264 12.3896 76.129 12.1353 75.0718 12.1353C74.0638 12.1353 73.1665 12.3896 72.3797 12.8982C71.593 13.3826 70.9907 14.1092 70.5727 15.078C70.1793 16.0226 70.0318 17.1731 70.1302 18.5294C70.0318 19.7404 70.1916 20.8182 70.6096 21.7628C71.0521 22.6832 71.6913 23.3977 72.5273 23.9063C73.3877 24.4149 74.3712 24.6692 75.4775 24.6692C76.5838 24.6692 77.5181 24.4391 78.2802 23.979C79.067 23.5188 79.6816 22.9012 80.1241 22.1261L84.0332 24.0153C83.6399 24.9599 83.0252 25.7955 82.1893 26.5221C81.3534 27.2487 80.3577 27.8179 79.2022 28.2296C78.0713 28.6414 76.8174 28.8472 75.4406 28.8472Z" fill="white"/>
<path d="M87.0316 35.6773V8.64755H91.5676V12.5712L91.1251 11.5903C91.8134 10.5246 92.7477 9.70113 93.9278 9.11984C95.1079 8.51433 96.4724 8.21158 98.0213 8.21158C99.9143 8.21158 101.623 8.67177 103.147 9.59214C104.672 10.5125 105.876 11.7477 106.761 13.2978C107.671 14.8479 108.126 16.5918 108.126 18.5294C108.126 20.4428 107.683 22.1867 106.798 23.761C105.913 25.3353 104.709 26.5826 103.184 27.503C101.66 28.3992 99.9266 28.8472 97.9844 28.8472C96.5339 28.8472 95.1939 28.5687 93.9647 28.0116C92.76 27.4303 91.8012 26.6069 91.0882 25.5412L91.8626 24.5966V35.6773H87.0316ZM97.4312 24.4876C98.5376 24.4876 99.521 24.2333 100.381 23.7246C101.242 23.216 101.906 22.5136 102.373 21.6175C102.865 20.7213 103.11 19.692 103.11 18.5294C103.11 17.3668 102.865 16.3496 102.373 15.4777C101.906 14.5815 101.242 13.8791 100.381 13.3705C99.521 12.8376 98.5376 12.5712 97.4312 12.5712C96.374 12.5712 95.4152 12.8255 94.5547 13.3342C93.7188 13.8428 93.055 14.5573 92.5633 15.4777C92.0962 16.3738 91.8626 17.3911 91.8626 18.5294C91.8626 19.692 92.0962 20.7213 92.5633 21.6175C93.055 22.5136 93.7188 23.216 94.5547 23.7246C95.4152 24.2333 96.374 24.4876 97.4312 24.4876Z" fill="white"/>
<path d="M110.334 28.4113V8.64755H115.165V28.4113H110.334ZM110.334 6.43139V1.34514H115.165V6.43139H110.334Z" fill="white"/>
<path d="M127.96 28.8472C125.993 28.8472 124.198 28.3992 122.576 27.503C120.978 26.6069 119.699 25.3837 118.74 23.8336C117.806 22.2835 117.339 20.5155 117.339 18.5294C117.339 16.5433 117.806 14.7753 118.74 13.2252C119.699 11.6751 120.978 10.452 122.576 9.5558C124.174 8.65965 125.969 8.21158 127.96 8.21158C129.927 8.21158 131.709 8.65965 133.307 9.5558C134.905 10.452 136.171 11.6751 137.106 13.2252C138.065 14.751 138.544 16.5191 138.544 18.5294C138.544 20.5155 138.065 22.2835 137.106 23.8336C136.147 25.3837 134.868 26.6069 133.27 27.503C131.672 28.3992 129.902 28.8472 127.96 28.8472ZM127.96 24.4876C129.042 24.4876 129.988 24.2333 130.8 23.7246C131.635 23.216 132.287 22.5136 132.754 21.6175C133.246 20.6971 133.492 19.6678 133.492 18.5294C133.492 17.3668 133.246 16.3496 132.754 15.4777C132.287 14.5815 131.635 13.8791 130.8 13.3705C129.988 12.8376 129.042 12.5712 127.96 12.5712C126.854 12.5712 125.882 12.8376 125.047 13.3705C124.211 13.8791 123.547 14.5815 123.055 15.4777C122.588 16.3496 122.354 17.3668 122.354 18.5294C122.354 19.6678 122.588 20.6971 123.055 21.6175C123.547 22.5136 124.211 23.216 125.047 23.7246C125.882 24.2333 126.854 24.4876 127.96 24.4876Z" fill="white"/>
<path d="M148.366 28.8472C146.227 28.8472 144.359 28.3507 142.761 27.3577C141.187 26.3404 140.106 24.972 139.515 23.2524L143.13 21.5448C143.646 22.659 144.359 23.5309 145.268 24.1606C146.203 24.7903 147.235 25.1052 148.366 25.1052C149.251 25.1052 149.952 24.9114 150.468 24.5239C150.985 24.1364 151.243 23.6278 151.243 22.998C151.243 22.6105 151.132 22.2957 150.911 22.0534C150.714 21.787 150.431 21.569 150.063 21.3995C149.718 21.2057 149.337 21.0483 148.919 20.9272L145.637 20.0189C143.941 19.5345 142.65 18.7958 141.765 17.8028C140.905 16.8098 140.474 15.6351 140.474 14.2788C140.474 13.0677 140.782 12.0142 141.396 11.118C142.036 10.1976 142.908 9.48314 144.015 8.97452C145.146 8.46589 146.436 8.21158 147.887 8.21158C149.78 8.21158 151.452 8.65965 152.902 9.5558C154.353 10.452 155.385 11.7114 156 13.3342L152.312 15.0417C151.968 14.1455 151.39 13.431 150.579 12.8982C149.768 12.3654 148.858 12.0989 147.85 12.0989C147.039 12.0989 146.399 12.2806 145.932 12.6439C145.465 13.0072 145.232 13.4795 145.232 14.0608C145.232 14.4241 145.33 14.7389 145.527 15.0054C145.723 15.2718 145.994 15.4898 146.338 15.6593C146.707 15.8288 147.125 15.9863 147.592 16.1316L150.8 17.0762C152.447 17.5606 153.714 18.2872 154.599 19.256C155.508 20.2248 155.963 21.4116 155.963 22.8164C155.963 24.0032 155.644 25.0568 155.004 25.9771C154.365 26.8733 153.48 27.5757 152.349 28.0843C151.218 28.5929 149.891 28.8472 148.366 28.8472Z" fill="white"/>
</svg>
