<svg width="168" height="112" viewBox="0 0 168 112" fill="none" xmlns="http://www.w3.org/2000/svg">
<path d="M107.936 59.3657H101.656V57.5954C101.656 56.4325 101.992 55.4763 102.625 54.8431C103.181 54.2875 103.956 53.9773 104.783 53.9773C106.799 53.9903 107.923 55.2695 107.923 57.5954C107.936 57.5954 107.936 58.9393 107.936 59.3657ZM110.236 54.6622C108.892 53.4734 107.019 52.8531 104.822 52.8531C102.858 52.8531 100.907 53.7448 99.4595 55.3212C97.9089 56.9881 97.056 59.2882 97.0431 61.7692C97.0431 64.2114 97.9218 66.4469 99.537 68.0621C101.075 69.6127 103.129 70.4526 105.326 70.4526C109.551 70.4397 111.929 67.3126 112.342 64.4181L112.368 64.2631H111.063L111.05 64.3794C110.753 66.7311 108.75 69.238 105.623 69.2251C103.129 69.2251 101.695 67.5194 101.682 64.5474V60.6062H112.627V60.4641C112.536 57.9314 111.735 55.9802 110.236 54.6622Z" fill="white"/>
<path d="M75.9411 66.6407H74.7135L74.6877 66.7441C74.5455 67.5194 74.0545 68.8245 72.478 68.8115C71.2505 68.8115 70.6173 67.9458 70.6173 66.253V54.4554H74.6618V53.3054H70.6431V48.2013L70.501 48.2142C69.5577 48.3176 67.6324 48.4597 66.6245 48.4597H66.4952V53.3054H63.8204V54.4684H66.5082V64.7412C66.5082 68.5273 68.1363 70.4397 71.328 70.4397C74.9978 70.4397 75.7602 67.6486 75.9152 66.7957L75.9411 66.6407Z" fill="white"/>
<path d="M30.159 48.8092L34.0356 59.8831H26.5409L30.159 48.8092ZM61.3781 68.825V58.3842C61.3781 56.769 60.8612 55.3864 59.8662 54.3914C58.8712 53.3964 57.4369 52.8537 55.8346 52.8537C53.6379 52.8537 51.8806 53.7324 50.5884 55.451L50.5496 53.4481V53.3189H43.9724V54.456H46.5568V68.825H41.9437L32.472 41.6376L32.4462 41.5471H31.2832L21.9925 68.825H19.3823V69.9621H27.1224V68.825H23.556L26.1274 61.059H34.4103L37.0205 68.825H33.4153V69.9621H53.1727V68.825H50.5884V60.8523C50.6013 56.097 53.134 54.3655 54.8396 54.3655C56.4936 54.3655 57.3335 55.438 57.3335 57.5443V68.825H54.9172V69.9621H64.0012V68.825H61.3781Z" fill="white"/>
<path d="M93.852 68.8249V58.2161C93.852 55.7351 92.3402 52.8535 88.1148 52.8535C84.8326 52.8535 83.1269 54.4429 82.4033 55.2699V41.6245H75.8132V42.8133H78.2813V68.8249H75.6194V69.962H84.9489V68.8249H82.4033V60.7488C82.4033 57.9576 83.3595 56.42 84.1607 55.6188C84.936 54.8435 85.931 54.4171 86.9518 54.4171C89.2131 54.4171 89.6912 56.2778 89.7041 57.8414V68.8249H87.1585V69.962H96.4881V68.8249H93.852Z" fill="white"/>
<path d="M143.212 68.8251H140.68V57.5702C140.68 54.6499 138.677 52.8408 135.472 52.8408C132.435 52.8408 130.782 54.3527 130.019 55.3606C129.179 53.7066 127.538 52.8279 125.277 52.8408C123.106 52.8408 121.168 53.642 119.876 55.0375L119.837 53.4352V53.306H113.13V54.4431H115.87V68.8122H113.169V69.9493H122.292V68.8122H119.966V60.8782C120.043 58.5652 120.147 57.0792 120.974 55.9421C121.685 54.9988 122.822 54.4044 123.933 54.4044C125.303 54.4044 125.794 55.4381 125.845 55.5544C126.194 56.2134 126.194 57.3505 126.194 58.4489V68.8122H123.765V69.9493H132.707V68.8122H130.368V60.8782C130.446 58.5652 130.549 57.0792 131.376 55.9421C132.087 54.9988 133.224 54.4044 134.335 54.4044C135.705 54.4044 136.196 55.4381 136.247 55.5544C136.596 56.2134 136.596 57.3505 136.596 58.4489V68.8122H134.18V69.9493H143.341V68.8122H143.212" fill="white"/>
<path d="M146.419 67.6362C146.755 67.6362 147.233 67.6879 147.233 67.2356C147.233 66.8997 146.949 66.848 146.652 66.848H145.98V67.6362H146.419ZM145.993 69.0059H145.683V66.5637H146.729C147.362 66.5637 147.582 66.7963 147.582 67.2356C147.582 67.7008 147.246 67.8817 146.833 67.9205L147.556 69.0059H147.207L146.522 67.9205H146.006V69.0059H145.993ZM148.267 67.7913C148.267 66.7575 147.517 66.0081 146.484 66.0081C145.437 66.0081 144.688 66.7575 144.688 67.7913C144.688 68.8379 145.437 69.5874 146.484 69.5874C147.517 69.5874 148.267 68.8379 148.267 67.7913ZM144.339 67.7913C144.339 66.6283 145.295 65.6592 146.484 65.6592C147.66 65.6592 148.616 66.6154 148.616 67.7913C148.616 68.9672 147.66 69.9363 146.484 69.9363C145.295 69.9363 144.339 68.9801 144.339 67.7913Z" fill="white"/>
</svg>
