<svg width="168" height="112" viewBox="0 0 168 112" fill="none" xmlns="http://www.w3.org/2000/svg">
<path d="M22.4081 48.8816H29.2067C31.7634 48.8234 33.4485 49.8694 33.4485 52.6005C33.4485 54.518 32.1121 56.145 30.1945 56.4356V56.4938C31.3567 56.8424 31.6472 57.8883 31.6472 58.9923C31.6472 59.6315 31.531 60.5613 31.531 61.491C31.531 62.1302 31.5892 62.7113 31.7054 63.118H28.6257C28.5675 62.7694 28.5095 62.4788 28.5095 62.1883C28.5095 61.2586 28.6839 60.2708 28.6839 59.283C28.6839 57.8884 27.8704 57.5397 26.6502 57.5397H23.6867L22.5245 63.118H19.3867L22.4081 48.8816ZM24.2095 55.3315H27.1148C28.7418 55.3315 30.3688 54.6923 30.3688 53.0653C30.3688 51.5545 29.2648 51.3221 28.0446 51.3221H25.0811L24.2095 55.3315Z" fill="white"/>
<path d="M33.7969 63.1175L36.8184 48.8813H47.6844L47.1033 51.4962H39.3751L38.7359 54.5758H45.8831L45.3601 57.0163H38.213L37.5157 60.5027H45.3601L44.779 63.1175H33.7969Z" fill="white"/>
<path d="M57.8518 61.6652C56.8639 62.9435 55.5275 63.4665 54.2491 63.4665C50.2397 63.4665 47.9154 61.2003 47.9154 57.1909C47.9154 52.6004 50.8789 48.5909 55.7018 48.5909C59.0139 48.5909 61.745 50.1599 61.745 53.6463H58.6072C58.549 51.9031 57.445 51.2058 55.7018 51.2058C52.5059 51.2058 51.0532 54.4598 51.0532 57.1909C51.0532 59.1666 51.9829 60.8517 54.3072 60.8517C56.6896 60.8517 57.7356 59.5733 58.2585 57.7719H54.9464L55.4694 55.4477H61.5125L59.8855 63.1178H57.8518V61.6652Z" fill="white"/>
<path d="M62.2709 63.1176L65.2343 48.8815H76.1003L75.5773 51.4963H67.8491L67.2099 54.5759H74.3571L73.8341 57.0164H66.687L65.9316 60.5028H73.776L73.253 63.1176H62.2709Z" fill="white"/>
<path d="M75.5189 63.1176L78.5405 48.8815H81.7944L85.6295 58.992H85.6876L87.7213 48.8815H90.6267L87.6051 63.1176H84.4674L80.5742 53.1233H80.5161L78.4824 63.1176H75.5189Z" fill="white"/>
<path d="M90.3345 63.1175L93.2979 48.8813H104.164L103.641 51.4962H95.9127L95.2735 54.5758H102.421L101.898 57.0163H94.7506L93.9952 60.5027H101.898L101.317 63.1175H90.3345Z" fill="white"/>
<path d="M106.604 48.8816H113.403C115.959 48.8234 117.644 49.8694 117.644 52.6005C117.644 54.518 116.308 56.145 114.39 56.4356V56.4938C115.553 56.8424 115.843 57.8883 115.843 58.9923C115.843 59.6315 115.727 60.5613 115.727 61.491C115.727 62.1302 115.785 62.7113 115.901 63.118H112.822C112.763 62.7694 112.705 62.4788 112.705 62.1883C112.705 61.2586 112.88 60.2708 112.88 59.283C112.88 57.8884 112.066 57.5397 110.846 57.5397H107.883L106.72 63.118H103.583L106.604 48.8816ZM108.405 55.3315H111.311C112.996 55.3315 114.565 54.6923 114.565 53.0653C114.565 51.5545 113.461 51.3221 112.24 51.3221H109.277L108.405 55.3315Z" fill="white"/>
<path d="M126.654 48.5328C130.489 48.5328 132.988 50.6247 132.988 54.6341C132.988 59.3408 130.199 63.4665 125.202 63.4665C121.192 63.4665 118.868 61.2003 118.868 57.1909C118.868 52.5423 121.831 48.5328 126.654 48.5328ZM125.202 60.8517C128.281 60.8517 129.792 57.5976 129.792 54.8666C129.792 52.8909 128.92 51.1477 126.596 51.1477C123.4 51.1477 121.947 54.4018 121.947 57.1328C122.006 59.1084 122.935 60.8517 125.202 60.8517Z" fill="white"/>
<path d="M136.529 48.8815H139.782L143.676 58.992L145.709 48.8815H148.615L145.593 63.1176H142.455L138.562 53.1233H138.504L136.47 63.1176H133.565L136.529 48.8815Z" fill="white"/>
</svg>
