<svg width="168" height="112" viewBox="0 0 168 112" fill="none" xmlns="http://www.w3.org/2000/svg">
<path fill-rule="evenodd" clip-rule="evenodd" d="M23.5037 65.5558L25.6318 59.7771L27.6619 65.5558H23.5037ZM29.73 71.3794H31.6813L26.6168 57.4686H24.6869L19.3868 71.3794H21.3568L22.9131 67.1162H28.2131L29.73 71.3794ZM35.9239 66.5753C34.1155 66.1844 32.2477 65.7575 32.2477 63.5762C32.2477 61.6607 33.8675 60.4533 36.3141 60.4533C37.8966 60.4533 39.408 61.0425 40.1622 62.4827L38.5169 63.1693C38.385 62.7846 37.5333 61.8161 36.1124 61.8161C34.7199 61.8161 34.0229 62.6402 34.0229 63.3537C34.0229 64.3553 35.3471 64.7725 36.4764 64.9998C38.8146 65.4702 40.8475 66.0683 40.8475 68.2725C40.8475 69.9855 39.3258 71.595 36.4191 71.595C34.2792 71.595 32.7589 70.8794 32.0274 69.3839L33.9041 69.0565C34.3752 69.8757 35.2269 70.2307 36.4958 70.2307C38.0693 70.2307 38.9894 69.6305 38.9894 68.4942C38.9901 67.2923 37.4801 66.9117 35.9239 66.5753ZM44.7446 60.7738H46.6663V62.2527H44.7446V68.2704C44.7446 69.5186 44.7446 70.0539 45.5037 70.0539C45.8387 70.0539 46.3091 69.9192 46.6663 69.8087V71.2731C46.3533 71.3173 45.6149 71.4513 44.9442 71.4513C42.8893 71.4513 42.8893 70.4525 42.9114 69.0738V62.2527H41.235V60.7738H42.9114V58.2471L44.7446 57.4845V60.7738ZM50.0426 60.8008V62.6948C51.0476 60.6965 52.9478 60.6516 53.6628 60.6295V62.462C51.92 62.4737 51.0656 62.8308 50.4902 63.7682C50.0177 64.5335 50.0426 65.609 50.0426 66.5173V71.3794H48.2681V60.8008H50.0426ZM66.3082 69.7106H74.3788V71.3794H64.1593V69.5725L72.071 59.1858H64.1655V57.4707H74.1812V59.2058L66.3082 69.7106ZM87.279 60.874V62.4109C88.2668 60.684 89.9494 60.5272 90.5773 60.5272C91.9236 60.5272 93.5365 61.2007 94.051 62.9462C94.2313 63.5706 94.2313 64.2179 94.2313 65.111V71.3794H92.4617V65.4011C92.4617 64.3291 92.4617 64.0175 92.3491 63.6597C92.0355 62.6561 91.0484 62.2099 90.0834 62.2099C89.2988 62.2099 88.6253 62.4551 88.0637 63.0125C87.2783 63.7937 87.2783 64.5957 87.2783 65.379V71.3794H85.5031V60.874H87.279ZM114.645 69.5069C113.982 70.5471 112.779 71.5943 110.613 71.5943C106.875 71.5943 105.463 68.7132 105.463 66.125C105.463 63.1348 107.089 60.425 110.457 60.425C111.778 60.425 113.627 60.8229 114.651 62.5283L112.988 63.2225C112.673 62.5297 111.996 61.7291 110.524 61.7291C107.606 61.7291 107.436 65.0536 107.436 65.9917C107.436 69.4771 109.438 70.2307 110.634 70.2307C112.004 70.2307 112.704 69.5739 113.073 68.85L114.645 69.5069ZM76.929 65.0074H82.5385C82.3817 62.2403 80.7868 61.7726 79.723 61.7726C78.2048 61.7733 77.1293 62.8875 76.929 65.0074ZM83.9987 69.3701C83.3936 70.4 82.2256 71.5818 79.9226 71.5818C76.8005 71.5818 75.0046 69.4599 75.0046 65.9026C75.0046 61.9287 77.6259 60.4098 79.857 60.4098C81.7966 60.4098 83.6561 61.4818 84.2812 64.137C84.4829 65.0302 84.4829 65.8356 84.4829 66.2825H76.8848C76.8406 68.0494 77.581 70.2853 80.0794 70.2418C81.099 70.2245 81.8167 69.7617 82.2746 69.0365L83.9987 69.3701ZM97.1076 65.0074H102.718C102.562 62.2403 100.967 61.7726 99.9023 61.7726C98.3854 61.7733 97.3093 62.8875 97.1076 65.0074ZM104.179 69.3701C103.574 70.4 102.406 71.5818 100.103 71.5818C96.9812 71.5818 95.1846 69.4599 95.1846 65.9026C95.1846 61.9287 97.8059 60.4098 100.036 60.4098C101.977 60.4098 103.835 61.4818 104.461 64.137C104.662 65.0302 104.662 65.8356 104.662 66.2825H97.0634C97.0185 68.0494 97.7617 70.2853 100.258 70.2418C101.278 70.2245 101.997 69.7617 102.454 69.0365L104.179 69.3701ZM124.346 71.3905L122.5 71.3974C122.5 71.3974 122.34 70.6521 122.289 69.8384C121.753 70.3951 120.758 71.5466 118.748 71.5466C116.692 71.5466 115.167 70.3275 115.167 68.5412C115.167 67.981 115.324 67.4236 115.637 66.9525C116.243 66.058 117.364 65.3424 120.513 65.0972L122.187 64.9632V64.6945C122.187 63.5989 122.187 61.7664 119.827 61.7664C118.343 61.7664 117.837 62.4862 117.666 63.1362L116.032 62.4537C116.057 62.3971 116.087 62.339 116.118 62.2803C116.746 61.1185 117.978 60.4029 119.759 60.4029C120.74 60.4029 122.009 60.6495 122.837 61.2974C124.015 62.1898 123.986 63.9478 123.986 63.9478L124.058 69.3728C124.058 69.3742 124.12 70.9491 124.346 71.3905ZM121.919 68.4742C122.187 67.8933 122.21 67.6474 122.21 66.1029C121.519 66.2148 120.584 66.3488 119.441 66.5954C117.475 67.0195 117.14 67.76 117.14 68.497C117.14 69.3466 117.81 70.0629 119.128 70.0629C120.357 70.0629 121.406 69.5711 121.919 68.4742ZM62.9063 71.3905L61.0606 71.3974C61.0606 71.3974 60.9003 70.6521 60.8492 69.8384C60.3132 70.3951 59.3199 71.5466 57.3092 71.5466C55.2522 71.5466 53.7277 70.3275 53.7277 68.5412C53.7277 67.981 53.8845 67.4236 54.1988 66.9525C54.8046 66.058 55.9249 65.3424 59.0726 65.0972L60.7484 64.9632V64.6945C60.7484 63.5989 60.7484 61.7664 58.3874 61.7664C56.903 61.7664 56.3988 62.4862 56.2261 63.1362L54.5918 62.4537C54.6187 62.3971 54.6471 62.339 54.6788 62.2803C55.3067 61.1185 56.539 60.4029 58.319 60.4029C59.2992 60.4029 60.5702 60.6495 61.397 61.2974C62.5747 62.1898 62.5464 63.9478 62.5464 63.9478L62.6175 69.3728C62.6175 69.3742 62.6804 70.9491 62.9063 71.3905ZM60.4797 68.4742C60.7491 67.8933 60.7698 67.6474 60.7698 66.1029C60.0804 66.2148 59.1445 66.3488 58.002 66.5954C56.0375 67.0195 55.7018 67.76 55.7018 68.497C55.7018 69.3466 56.3712 70.0629 57.6884 70.0629C58.9172 70.0629 59.9665 69.5711 60.4797 68.4742Z" fill="white"/>
<path fill-rule="evenodd" clip-rule="evenodd" d="M148.602 56.7375C148.596 56.6725 148.588 56.6076 148.572 56.5448C148.539 56.4163 148.504 56.2878 148.455 56.1648C148.401 56.0343 148.336 55.9079 148.266 55.7856C148.188 55.6509 148.101 55.5218 148.009 55.3954C147.956 55.3214 147.894 55.2524 147.831 55.1868C147.76 55.1135 147.687 55.041 147.606 54.9775C147.425 54.8338 147.246 54.6873 147.048 54.5665C146.617 54.3019 146.188 54.027 145.725 53.8232C145.165 53.5773 144.624 53.2858 144.048 53.0855L140.161 51.7358C140.161 50.9967 140.182 50.2576 140.161 49.5192C140.128 48.423 140.084 47.3261 139.999 46.2327C139.94 45.4715 139.849 44.7124 139.73 43.9581C139.637 43.3696 139.497 42.7893 139.367 42.2084C139.337 42.0751 139.292 41.946 139.248 41.8175C139.209 41.7011 139.165 41.5861 139.118 41.4728C139.075 41.3706 139.028 41.2697 138.978 41.1702C138.932 41.0811 138.882 40.994 138.828 40.9091C138.78 40.8323 138.728 40.7576 138.673 40.6853C138.624 40.6199 138.571 40.5569 138.515 40.4968C138.464 40.4415 138.411 40.3887 138.355 40.3386C138.304 40.2932 138.25 40.2503 138.195 40.2101C138.144 40.173 138.091 40.1387 138.037 40.1072C137.986 40.0782 137.935 40.0499 137.881 40.0278C137.788 39.9891 137.692 39.9525 137.595 39.9248C137.514 39.9021 137.43 39.8896 137.348 39.8779C137.285 39.8689 137.222 39.8648 137.16 39.8634C137.054 39.8613 136.946 39.8592 136.841 39.8668C136.727 39.8751 136.614 39.8889 136.503 39.911C136.383 39.934 136.265 39.9647 136.15 40.0029C136.025 40.0443 135.905 40.0948 135.788 40.1521C135.657 40.2163 135.532 40.2909 135.409 40.3683C135.278 40.4505 135.149 40.5361 135.025 40.6287C134.809 40.7917 134.588 40.9499 134.391 41.135C133.58 41.8976 132.782 42.6754 132.003 43.4697C131.587 43.8931 131.185 44.3311 130.808 44.7883C129.311 46.6015 127.82 48.4203 126.38 50.279C125.74 51.1038 125.165 51.9762 124.573 52.8341C124.425 53.0489 124.287 53.2706 124.159 53.4979C123.937 53.8951 123.73 54.2998 123.526 54.7067C123.474 54.8124 123.433 54.9243 123.392 55.0355C123.354 55.1419 123.319 55.2496 123.29 55.3587C123.264 55.4617 123.241 55.5667 123.229 55.6723C123.219 55.7697 123.218 55.8685 123.224 55.9659C123.227 56.015 123.242 56.0633 123.258 56.1096C123.275 56.16 123.298 56.2084 123.324 56.2546C123.353 56.3051 123.387 56.3527 123.422 56.3983C123.461 56.448 123.5 56.4964 123.544 56.5406C123.64 56.6352 123.739 56.7278 123.843 56.8134C123.95 56.9019 124.06 56.9861 124.176 57.0621C124.379 57.1947 124.588 57.3184 124.796 57.4399C124.887 57.4931 124.983 57.5387 125.076 57.5871C125.109 57.6037 125.01 57.5525 124.978 57.5346C124.974 57.5332 124.963 57.527 124.967 57.5284C124.972 57.5297 124.978 57.5339 124.983 57.5367C125.034 57.5636 125.085 57.5898 125.137 57.6168C126.417 58.2854 127.701 58.9444 128.975 59.6234C130.256 60.3058 131.536 60.9904 132.8 61.7011L135.644 63.2988C134.656 64.0462 133.65 64.768 132.683 65.5396C132.313 65.8345 131.97 66.1612 131.635 66.4949C131.363 66.7663 131.107 67.0544 130.865 67.3521C130.672 67.5904 130.495 67.8425 130.331 68.1015C130.202 68.3032 130.089 68.5167 129.987 68.7329C129.91 68.8973 129.847 69.0686 129.793 69.2419C129.754 69.3635 129.728 69.4885 129.706 69.6143C129.693 69.6895 129.69 69.7676 129.686 69.845C129.684 69.8712 129.689 69.8975 129.689 69.9237C129.691 69.9935 129.687 70.0625 129.691 70.1316C129.695 70.1965 129.702 70.2615 129.713 70.3243C129.722 70.3858 129.736 70.4466 129.752 70.5067C129.767 70.5633 129.787 70.62 129.809 70.6752C129.83 70.7284 129.854 70.7809 129.881 70.832C129.907 70.8818 129.934 70.9322 129.968 70.9771C130.033 71.0669 130.1 71.156 130.178 71.2347C130.256 71.3135 130.341 71.3853 130.431 71.4509C130.521 71.5172 130.618 71.5753 130.716 71.6291C130.815 71.683 130.918 71.73 131.023 71.7735C131.127 71.817 131.232 71.8633 131.343 71.8875C131.74 71.9752 132.14 72.0553 132.543 72.1099C132.741 72.1368 132.942 72.1479 133.14 72.132C133.827 72.0781 134.514 72.0084 135.195 71.9013C135.99 71.7763 136.779 71.6091 137.566 71.4371C138.493 71.234 139.418 71.0192 140.337 70.7781C140.986 70.6075 141.647 70.4563 142.268 70.2021C142.758 70.0024 143.253 69.8118 143.738 69.6025C143.847 69.5562 143.95 69.4954 144.053 69.4354C144.145 69.3815 144.236 69.3228 144.323 69.2606C144.4 69.206 144.476 69.148 144.544 69.0831C144.602 69.0285 144.656 68.9677 144.703 68.9028C144.743 68.8482 144.777 68.7874 144.805 68.7246C144.83 68.6693 144.849 68.6099 144.862 68.5498C144.875 68.4953 144.88 68.4379 144.88 68.382C144.88 68.3274 144.873 68.2728 144.863 68.2196C144.852 68.1678 144.837 68.116 144.818 68.0656C144.798 68.0149 144.775 67.966 144.747 67.9192C144.72 67.872 144.691 67.8263 144.659 67.7824C144.627 67.7382 144.593 67.6958 144.557 67.6553C144.486 67.5807 144.413 67.5054 144.336 67.4377C144.269 67.3783 144.198 67.3251 144.125 67.274C144.054 67.2236 143.98 67.1766 143.906 67.1317C143.4 66.8264 142.896 66.5149 142.386 66.2144L140.251 64.9538C141.547 64.0745 142.855 63.2118 144.14 62.3138C144.689 61.9305 145.23 61.534 145.75 61.1133C146.197 60.7527 146.621 60.3659 147.037 59.9722C147.235 59.785 147.412 59.5771 147.591 59.372C147.673 59.2787 147.748 59.1792 147.819 59.0777C147.885 58.9858 147.951 58.8933 148.003 58.7924C148.17 58.4609 148.334 58.1272 148.474 57.7832C148.53 57.643 148.553 57.4918 148.585 57.3439C148.6 57.2756 148.605 57.2051 148.611 57.1353C148.616 57.0683 148.618 57.0006 148.618 56.9336C148.614 56.8687 148.61 56.8024 148.602 56.7375ZM132.666 48.012C133.39 47.2612 134.115 46.5117 134.851 45.7727C134.985 45.638 135.134 45.5171 135.278 45.3921C135.328 45.3485 135.381 45.3071 135.434 45.2663C135.475 45.2353 135.515 45.2028 135.559 45.1752C135.59 45.1559 135.623 45.1392 135.657 45.1254C135.693 45.1109 135.729 45.0964 135.768 45.0902C135.808 45.0833 135.849 45.084 135.89 45.0861C135.911 45.0867 135.931 45.0923 135.952 45.0992C135.972 45.1054 135.994 45.1151 136.013 45.1261C136.034 45.1379 136.054 45.1517 136.072 45.1669C136.094 45.1841 136.114 45.2035 136.132 45.2242C136.153 45.2477 136.172 45.2726 136.188 45.2988C136.208 45.3292 136.229 45.3603 136.241 45.3941C136.276 45.4853 136.308 45.5786 136.331 45.6739C136.365 45.81 136.392 45.9481 136.413 46.0876C136.465 46.4275 136.514 46.768 136.552 47.1092C136.602 47.5513 136.637 47.9948 136.678 48.4375L136.898 50.795L134.271 50.1906L131.82 49.7872L131.226 49.7416L131.033 49.7368C131.577 49.1614 132.117 48.5819 132.666 48.012ZM131.018 51.2903L131.028 51.2758L131.042 51.2682L131.062 51.2661L131.094 51.2709L131.185 51.2972L131.423 51.3884L131.746 51.532C132.581 51.8892 133.415 52.2463 134.25 52.602C134.804 52.8382 135.357 53.0724 135.91 53.3086L137.004 53.7756L137.101 53.8191C137.16 54.6832 137.231 55.5466 137.277 56.4114C137.313 57.087 137.327 57.7639 137.344 58.4401C137.346 58.5258 137.339 58.6108 137.333 58.6957C137.33 58.7434 137.325 58.7917 137.318 58.8394C137.311 58.8871 137.302 58.9347 137.288 58.9803C137.274 59.0252 137.259 59.0708 137.236 59.1122C137.215 59.153 137.185 59.1903 137.155 59.2262C137.141 59.2442 137.121 59.2601 137.102 59.2746C137.082 59.2897 137.061 59.3036 137.039 59.316C137.016 59.3284 136.991 59.339 136.966 59.3478C136.939 59.3577 136.91 59.3655 136.881 59.3713C136.846 59.3773 136.811 59.381 136.775 59.3823C136.738 59.383 136.7 59.3823 136.663 59.3775C136.624 59.3724 136.585 59.3648 136.546 59.3547C136.505 59.3443 136.464 59.3333 136.425 59.3174C136.34 59.2815 136.255 59.2435 136.175 59.1979C136.084 59.1454 135.996 59.0878 135.911 59.0252C135.818 58.9561 135.728 58.8822 135.641 58.8055C135.545 58.7213 135.452 58.6356 135.366 58.5438C135.177 58.3414 134.989 58.1355 134.814 57.9207C134.497 57.5332 134.167 57.1526 133.889 56.7368C133.505 56.1635 133.111 55.5971 132.738 55.0168C132.514 54.6708 132.286 54.3261 132.1 53.9572L131.257 52.2863L131.075 51.7538L131.033 51.5956L131.009 51.4429L131.007 51.3324L131.018 51.2903ZM140.338 66.1005C140.565 66.2441 140.794 66.3857 141.017 66.5335C141.307 66.7242 141.597 66.9135 141.877 67.1165C142.079 67.2623 142.272 67.4198 142.462 67.5807C142.547 67.6525 142.626 67.7299 142.702 67.8114C142.764 67.8784 142.817 67.9516 142.872 68.0249C142.876 68.0297 142.876 68.0359 142.876 68.0414C142.876 68.0546 142.874 68.067 142.87 68.0794C142.868 68.0877 142.862 68.0946 142.856 68.1001C142.848 68.1078 142.839 68.1141 142.829 68.1188C142.816 68.1247 142.802 68.1289 142.788 68.1312C142.768 68.1353 142.747 68.1381 142.727 68.1395C141.619 68.2224 140.51 68.2984 139.402 68.3854L135.074 68.7253L134.939 68.7336L135.001 68.6666L135.274 68.4255C135.835 68.0083 136.378 67.5655 136.957 67.1732L139.409 65.5113C139.717 65.7074 140.028 65.9036 140.338 66.1005ZM143.672 57.5781C143.66 57.6181 143.645 57.6569 143.626 57.6941C143.604 57.7372 143.577 57.7777 143.546 57.815C143.472 57.9027 143.394 57.9884 143.31 58.0665C143.129 58.2315 142.95 58.4008 142.75 58.5424C142.063 59.03 141.382 59.5294 140.686 60.0054C140.206 60.3335 139.712 60.6402 139.223 60.9544L136.379 62.7814C135.976 62.5507 135.574 62.3193 135.171 62.0893L130.021 59.1454C128.858 58.4505 127.688 57.7674 126.532 57.06C126.314 56.9267 126.11 56.772 125.902 56.6242C125.836 56.5772 125.774 56.5233 125.711 56.4736C125.691 56.4584 125.668 56.4446 125.65 56.428C125.606 56.388 125.562 56.3465 125.521 56.3023C125.496 56.2747 125.476 56.245 125.455 56.2139C125.435 56.1814 125.415 56.1476 125.401 56.1117C125.387 56.075 125.374 56.0364 125.368 55.9963C125.362 55.9549 125.361 55.9128 125.367 55.8713C125.374 55.8257 125.386 55.7815 125.402 55.7387C125.418 55.6924 125.439 55.6468 125.465 55.6047C125.516 55.5176 125.57 55.4313 125.633 55.3505C125.704 55.258 125.781 55.1697 125.863 55.0859C126.528 54.4014 127.203 53.7265 127.872 53.0448L129.675 51.2053L129.76 51.5023L129.979 52.0245L129.994 52.0563C130.471 52.8824 130.918 53.7258 131.424 54.5347C132.005 55.4644 132.628 56.3672 133.251 57.2686C133.544 57.6907 133.85 58.1044 134.171 58.5058C134.451 58.8546 134.741 59.1972 135.055 59.5163C135.331 59.7961 135.632 60.0516 135.939 60.2982C136.091 60.4198 136.262 60.5179 136.429 60.618C136.508 60.6664 136.593 60.7051 136.677 60.7431C136.758 60.7783 136.841 60.8094 136.924 60.8363C137.006 60.8626 137.088 60.884 137.173 60.9013C137.249 60.9171 137.327 60.9296 137.404 60.9365C137.475 60.9427 137.546 60.9441 137.617 60.9413C137.682 60.9399 137.747 60.9337 137.812 60.9234C137.872 60.9144 137.933 60.9006 137.991 60.884C138.046 60.8688 138.1 60.8494 138.153 60.8267C138.202 60.8066 138.25 60.7824 138.297 60.7562C138.341 60.7313 138.386 60.7058 138.427 60.6747C138.502 60.618 138.576 60.5593 138.644 60.4951C138.702 60.4398 138.755 60.3791 138.804 60.3155C138.866 60.2347 138.922 60.149 138.974 60.0613C139.036 59.9549 139.096 59.8451 139.148 59.7325C139.206 59.6068 139.259 59.479 139.303 59.3478C139.393 59.0742 139.478 58.7986 139.547 58.5182C139.639 58.1397 139.74 57.7605 139.781 57.3723L140.014 55.1267C140.547 55.3746 141.092 55.5998 141.613 55.8713C142.121 56.1365 142.608 56.4432 143.102 56.7361C143.16 56.7706 143.214 56.8107 143.266 56.8535C143.339 56.9143 143.409 56.9785 143.476 57.0469C143.512 57.0828 143.543 57.1236 143.57 57.165C143.597 57.2058 143.622 57.2493 143.641 57.2942C143.658 57.3384 143.67 57.3861 143.679 57.433C143.683 57.4565 143.682 57.4807 143.68 57.5049C143.681 57.5296 143.679 57.5543 143.672 57.5781Z" fill="white"/>
</svg>
