<svg width="168" height="112" viewBox="0 0 168 112" fill="none" xmlns="http://www.w3.org/2000/svg">
<path d="M65.7125 46.8046C58.7777 46.8046 55.6172 51.3696 55.6172 55.5956C55.6172 58.0518 56.5051 60.2973 58.0953 61.778C59.8452 63.4183 62.1805 64.2301 65.2169 64.2301C67.8526 64.2301 70 63.5727 71.0602 63.1867L71.321 63.1084V55.0739H68.3994V61.3085C67.982 61.465 67.068 61.6998 65.3995 61.6998C61.2998 61.6998 58.6692 59.2602 58.6692 55.4913C58.6692 51.7474 61.3947 49.335 65.6343 49.335C67.2276 49.335 68.4567 49.5822 69.6515 50.1175L70.0428 50.2741L70.8254 47.822L70.5385 47.6915C69.6724 47.2846 67.886 46.8046 65.7125 46.8046ZM132.832 46.8306V49.2827L138.415 49.3088C140.972 49.3088 142.886 49.939 144.101 51.1608C145.085 52.1479 145.576 53.519 145.562 55.2042C145.562 57.0803 144.98 58.659 143.867 59.7693C142.571 61.0705 140.53 61.7372 137.997 61.7258C137.229 61.7258 136.371 61.7122 135.754 61.6475V53.926H132.832V63.9953L133.171 64.0213C134.451 64.1496 135.841 64.23 137.606 64.23C141.226 64.23 144.211 63.2826 146.006 61.5692C147.686 59.9206 148.614 57.6334 148.614 55.1259C148.614 52.7197 147.774 50.733 146.136 49.2305C144.448 47.6434 141.828 46.8305 138.336 46.8305L132.832 46.8306ZM76.4339 46.961V64.0475H79.3816V46.961H76.4339ZM99.4158 46.961V64.0475H110.242V61.5171H102.364V56.4303H109.433V53.8999H102.364V49.5174H109.85V46.961H99.4158ZM119.972 46.961L113.528 64.0475H116.502L118.38 58.8302H124.38L126.363 64.0475H129.389L122.867 46.961H119.972ZM84.9902 46.987V64.0474H95.7116V61.4649H87.9379V46.987L84.9902 46.987ZM121.354 50.3261C121.522 50.8447 123.148 55.1593 123.624 56.4042H119.137C119.137 56.4042 121.195 50.8447 121.354 50.3261Z" fill="white"/>
<path d="M45.8642 38.3007C23.7786 40.4032 20.9833 55.6354 28.2038 60.5C26.9559 65.9989 28.0995 65.8737 28.0995 65.8737C28.327 64.2303 28.6442 62.5942 29.0647 60.9956C31.883 50.2784 38.8574 40.9542 45.8902 38.5093V38.4833C45.9351 38.48 45.9946 38.4552 45.9946 38.4051C45.9946 38.3383 45.9414 38.3007 45.8902 38.3007L45.8642 38.3007ZM44.7164 41.7962C44.6778 41.7962 44.6319 41.8348 44.6121 41.8744C42.786 45.4524 42.2695 50.5737 40.8817 54.5001C39.2863 58.9807 36.4544 62.0181 32.0907 61.726V72.6299C32.0907 72.6299 20.4302 67.3366 20.4302 58.8565V42.9701L29.9517 42.0832H29.9777C30.0289 42.0832 30.0559 42.0592 30.0559 42.005C30.0559 41.9434 30.0278 41.9058 29.9777 41.9006H19.3867V58.8565C19.3867 68.3936 32.0906 73.6996 32.0906 73.6996C32.0906 73.6996 44.8207 68.3091 44.8207 58.8565V41.9005C44.8207 41.8557 44.7675 41.7962 44.7164 41.7962Z" fill="white"/>
</svg>
