<svg width="168" height="112" viewBox="0 0 168 112" fill="none" xmlns="http://www.w3.org/2000/svg">
<path d="M54.3182 39.8843H19.3822V45.2508H52.5742V45.255C53.534 45.255 54.3059 46.0309 54.3059 46.9855V65.0162L54.2987 65.0286C54.2904 65.9832 53.5155 66.7499 52.5639 66.7499H26.4814C25.5257 66.7499 24.7467 65.9771 24.7467 65.0162V57.7288C24.7467 56.7722 25.5257 55.9983 26.4814 55.9983H48.9249V50.6337H24.7334C21.7766 50.6337 19.3822 53.0252 19.3822 55.9809V66.7632C19.3822 69.7178 21.7767 72.1155 24.7334 72.1155H54.3182C57.2769 72.1155 59.6694 69.7178 59.6694 66.7632V45.2355C59.6694 42.2798 57.2769 39.8843 54.3182 39.8843Z" fill="white"/>
<path d="M79.6342 39.8945L83.8302 52.4476C84.3327 53.9777 84.6821 54.3334 85.5598 54.3334H86.4159V56.5419H77.251V54.3334H78.0002C78.7555 54.3334 79.3865 54.2317 79.3865 53.9563C79.3865 53.7034 79.3577 53.428 79.2601 53.0529L78.7328 51.2432H73.6078L73.3088 52.2472C73.0303 53.126 72.9317 53.502 72.9317 53.8535C72.9317 54.2593 73.8093 54.3344 74.4906 54.3344H75.2141V56.5429H67.8353V54.3334H68.6873C69.5661 54.3334 69.9163 53.9778 70.422 52.4476L74.615 39.8945H79.6342ZM74.3303 49.0357H77.9776L76.1689 43.6332H76.1216L74.3303 49.0357ZM87.87 42.9826C87.87 42.2777 87.6942 41.9036 86.9656 41.9036H85.8126V39.8945H92.0403V46.1458C92.9663 45.0893 94.148 44.4132 95.2765 44.4132C99.043 44.4132 100.446 47.3533 100.446 50.6645C100.446 53.9778 99.043 56.9128 95.2765 56.9128C93.696 56.9128 92.2901 56.3641 91.4083 54.9818L90.6818 56.5419H87.8689V42.9826M92.0404 50.6645C92.0404 53.2256 92.6159 54.7588 94.0218 54.7588C95.4306 54.7588 96.0062 53.2256 96.0062 50.6645C96.0062 48.1035 95.4306 46.5754 94.0218 46.5754C92.6157 46.5754 92.0404 48.1035 92.0404 50.6645ZM101.957 42.9826C101.957 42.2777 101.779 41.9036 101.055 41.9036H99.899V39.8945H106.128V46.1458C107.056 45.0893 108.237 44.4132 109.366 44.4132C113.13 44.4132 114.538 47.3533 114.538 50.6645C114.538 53.9778 113.13 56.9128 109.366 56.9128C107.781 56.9128 106.379 56.3641 105.496 54.9818L104.769 56.5419H101.957V42.9826ZM106.127 50.6646C106.127 53.2257 106.705 54.7589 108.108 54.7589C109.516 54.7589 110.093 53.2257 110.093 50.6646C110.093 48.1037 109.516 46.5755 108.108 46.5755C106.707 46.5755 106.127 48.1037 106.127 50.6646ZM128.7 50.6646C128.7 54.6818 125.962 56.9129 122.221 56.9129C118.478 56.9129 115.74 54.6818 115.74 50.6646C115.74 46.6463 118.477 44.4132 122.221 44.4132C125.962 44.4132 128.7 46.6463 128.7 50.6645M120.186 50.6645C120.186 53.6253 120.713 54.9069 122.221 54.9069C123.728 54.9069 124.255 53.6253 124.255 50.6645C124.255 47.7017 123.728 46.4222 122.221 46.4222C120.713 46.4222 120.186 47.7017 120.186 50.6645ZM146.603 50.867V52.8268C146.603 53.9768 146.353 54.6591 145.397 54.6591C144.819 54.6591 144.545 54.2306 144.545 53.7023V46.7964H147.631V44.7913H144.545V40.1207H142.059C141.855 42.2039 141.205 44.7915 138.695 44.7915H134.777V40.1207H132.293C132.088 42.2039 131.437 44.7915 128.927 44.7915V46.7965H130.611V53.1013C130.611 55.6622 132.041 56.9129 134.625 56.9129C137.642 56.9129 138.843 55.5616 138.843 53.1013V50.866H136.84V52.8258C136.84 53.9758 136.586 54.6582 135.631 54.6582C135.053 54.6582 134.779 54.2296 134.779 53.7013V46.7955H140.38V53.1002C140.38 55.6612 141.808 56.9119 144.393 56.9119C147.409 56.9119 148.614 55.5605 148.614 53.1002V50.8649H146.603" fill="white"/>
</svg>
