<svg width="512" height="312" viewBox="0 0 512 312" fill="none" xmlns="http://www.w3.org/2000/svg">
<path d="M249.395 132H251.332C255.596 132.129 259.988 133.034 263.735 135.359C266.835 137.297 269.161 140.139 270.453 143.498C271.357 145.694 271.874 148.149 272.003 150.474H258.05C257.921 148.536 257.275 146.469 255.725 145.177C254.175 143.756 251.978 143.369 249.911 143.498C248.103 143.498 246.294 144.144 245.002 145.436C243.452 146.986 242.677 149.053 242.289 151.12C241.772 153.575 241.772 156.159 242.031 158.613C242.289 161.068 242.806 163.652 244.356 165.59C245.519 167.14 247.198 168.044 249.136 168.303C251.074 168.561 253.141 168.432 254.95 167.528C256.371 166.752 257.404 165.46 257.921 164.039C258.309 163.135 258.438 162.102 258.567 161.068H272.391C272.132 165.073 270.969 169.078 268.644 172.308C266.448 175.279 263.347 177.346 259.859 178.638C257.275 179.542 254.433 179.93 251.72 180.059H249.524C245.777 179.93 242.031 179.155 238.672 177.475C235.313 175.796 232.6 173.212 230.662 169.982C228.336 166.106 227.303 161.456 227.174 157.063C226.915 152.154 227.69 147.374 229.887 143.24C231.566 139.881 234.15 137.038 237.38 135.23C240.997 133.034 245.131 132 249.395 132Z" fill="white"/>
<path d="M330.656 132H332.723C336.857 132.129 341.12 132.904 344.608 135.23C346.417 136.392 347.967 137.943 349.001 139.751C350.164 141.819 350.81 144.015 351.068 146.34H337.245C337.115 145.307 336.599 144.402 335.953 143.756C335.048 142.852 333.627 142.594 332.335 142.464C331.173 142.335 329.881 142.464 328.718 142.723C327.943 142.981 327.168 143.498 326.909 144.402C326.651 145.177 326.651 146.211 327.168 146.857C327.555 147.503 328.33 147.89 329.106 148.149C330.397 148.666 331.689 148.924 332.981 149.312C335.694 150.087 338.407 150.604 341.12 151.379C342.929 151.895 344.608 152.541 346.159 153.446C347.838 154.479 349.389 155.9 350.551 157.58C351.714 159.259 352.231 161.326 352.36 163.393C352.489 165.848 352.102 168.432 351.068 170.757C350.293 172.566 349.001 174.245 347.451 175.537C344.479 177.863 340.862 179.026 337.115 179.542C335.694 179.671 334.402 179.801 332.981 179.801H330.914C327.555 179.671 324.196 179.155 321.096 177.734C318.124 176.442 315.411 174.116 313.861 171.274C312.698 169.207 312.052 166.752 311.794 164.427H326.005C326.263 165.46 326.651 166.623 327.426 167.398C328.072 168.044 328.847 168.561 329.752 168.69C330.914 168.949 332.206 169.078 333.369 168.949C334.532 168.819 335.823 168.69 336.857 168.044C337.503 167.657 338.02 166.882 338.149 166.106C338.278 165.331 338.149 164.427 337.503 163.781C336.986 163.135 336.082 162.877 335.307 162.618C333.886 162.231 332.594 161.843 331.173 161.456C328.589 160.81 326.134 160.164 323.55 159.259C321.742 158.613 319.933 158.097 318.253 157.063C316.445 155.9 314.895 154.35 313.861 152.412C312.827 150.345 312.44 147.89 312.44 145.565C312.569 143.369 313.086 141.302 314.119 139.364C315.153 137.555 316.703 136.005 318.512 134.842C322.129 132.775 326.393 132.129 330.656 132Z" fill="white"/>
<path d="M175.498 133.938C176.661 132.775 178.34 132 180.149 132C181.958 132 183.766 132.646 185.058 133.938L192.939 141.819L200.819 133.938C201.982 132.775 203.791 132 205.47 132C207.279 132 208.958 132.646 210.25 133.938L219.94 143.627C221.232 144.919 222.007 146.857 221.878 148.666C221.748 150.345 221.102 151.895 219.94 153.058C210.896 161.972 201.982 171.016 192.939 179.93C183.895 171.016 174.981 161.972 165.938 153.058C164.775 151.895 164.129 150.345 164 148.795V147.761C164.129 146.211 164.775 144.661 165.938 143.498C169.168 140.397 172.268 137.168 175.498 133.938Z" fill="white"/>
<path d="M269.033 133.162H283.89C286.474 142.981 288.929 152.67 291.512 162.489C294.225 152.67 296.938 142.981 299.651 133.162H313.992C308.953 148.278 303.786 163.393 298.618 178.508H284.019C279.239 163.522 274.201 148.407 269.033 133.162Z" fill="white"/>
</svg>
