<svg width="519" height="225" viewBox="0 0 519 225" fill="none" xmlns="http://www.w3.org/2000/svg">
<path opacity="0.32" d="M53.5849 128.924H0V222H515V128.924H456.905C451.934 128.924 447.905 124.895 447.905 119.924V84.8418C447.905 79.8713 443.876 75.8418 438.905 75.8418H418.219C413.249 75.8418 409.219 71.8124 409.219 66.8418V25.6339C409.219 20.6633 405.19 16.6339 400.219 16.6339H380.975C376.005 16.6339 371.975 20.6633 371.975 25.6338V122.709C371.975 127.68 367.946 131.709 362.975 131.709H342.476C337.505 131.709 333.476 127.68 333.476 122.709V79.7641C333.476 74.7935 329.447 70.7641 324.476 70.7641H304.999C300.029 70.7641 295.999 74.7935 295.999 79.7641V198C295.999 202.971 291.97 207 286.999 207H263.338C258.368 207 254.338 202.971 254.338 198V20C254.338 15.0294 250.309 11 245.338 11H225.025C220.054 11 216.025 15.0294 216.025 20V119.924C216.025 124.895 211.995 128.924 207.025 128.924H186.153C181.183 128.924 177.153 124.895 177.153 119.924V98.0579C177.153 93.0873 173.124 89.0579 168.153 89.0579H148.77C143.799 89.0579 139.77 93.0873 139.77 98.0579V172.004C139.77 176.975 135.74 181.004 130.77 181.004H111.758C106.788 181.004 102.758 176.975 102.758 172.004V68.132C102.758 63.1615 98.7288 59.132 93.7582 59.132H71.5849C66.6143 59.132 62.5849 63.1615 62.5849 68.132V119.924C62.5849 124.895 58.5554 128.924 53.5849 128.924Z" fill="url(#paint0_linear_1444_51161)"/>
<path d="M0 128.924H53.5849C58.5554 128.924 62.5849 124.895 62.5849 119.924V68.132C62.5849 63.1615 66.6143 59.132 71.5849 59.132H93.7582C98.7288 59.132 102.758 63.1615 102.758 68.132V172.004C102.758 176.975 106.788 181.004 111.758 181.004H130.77C135.74 181.004 139.77 176.975 139.77 172.004V98.0579C139.77 93.0873 143.799 89.0579 148.77 89.0579H168.153C173.124 89.0579 177.153 93.0873 177.153 98.0579V119.924C177.153 124.895 181.183 128.924 186.153 128.924H207.025C211.995 128.924 216.025 124.895 216.025 119.924V20C216.025 15.0294 220.054 11 225.025 11H245.338C250.309 11 254.338 15.0294 254.338 20V198C254.338 202.971 258.368 207 263.338 207H286.999C291.97 207 295.999 202.971 295.999 198V79.7641C295.999 74.7935 300.029 70.7641 304.999 70.7641H324.476C329.447 70.7641 333.476 74.7935 333.476 79.7641V122.709C333.476 127.68 337.505 131.709 342.476 131.709H362.975C367.946 131.709 371.975 127.68 371.975 122.709V25.6338C371.975 20.6633 376.005 16.6339 380.975 16.6339H400.22C405.19 16.6339 409.22 20.6633 409.22 25.6339V66.8418C409.22 71.8124 413.249 75.8418 418.22 75.8418H438.905C443.876 75.8418 447.905 79.8713 447.905 84.8418V119.924C447.905 124.895 451.934 128.924 456.905 128.924H515" stroke="white" stroke-width="4"/>
<rect x="501" y="121" width="16" height="16" rx="5" fill="white"/>
<rect x="501" y="121" width="16" height="16" rx="5" stroke="#3D4966" stroke-width="4"/>
<rect x="2" y="121" width="16" height="16" rx="5" fill="white"/>
<rect x="2" y="121" width="16" height="16" rx="5" stroke="#3D4966" stroke-width="4"/>
<defs>
<linearGradient id="paint0_linear_1444_51161" x1="257.5" y1="11" x2="257.5" y2="230" gradientUnits="userSpaceOnUse">
<stop stop-color="white"/>
<stop offset="1" stop-color="white" stop-opacity="0"/>
</linearGradient>
</defs>
</svg>
