<svg width="110" height="28" viewBox="0 0 110 28" fill="none" xmlns="http://www.w3.org/2000/svg">
<path d="M49.7528 0H50.8818C53.3657 0.0752686 55.9248 0.602149 58.1076 1.95698C59.9141 3.08601 61.2689 4.74192 62.0216 6.69891C62.5485 7.97847 62.8495 9.40858 62.9248 10.7634H54.7958C54.7205 9.63438 54.3442 8.43008 53.441 7.6774C52.5377 6.84944 51.2582 6.62364 50.0539 6.69891C49.0001 6.69891 47.9464 7.07525 47.1937 7.82793C46.2905 8.73116 45.8388 9.93546 45.613 11.1398C45.312 12.5699 45.312 14.0752 45.4625 15.5053C45.613 16.9354 45.9141 18.4408 46.8173 19.5698C47.4947 20.4731 48.4732 20.9999 49.6023 21.1505C50.7313 21.301 51.9356 21.2257 52.9894 20.6989C53.8173 20.2473 54.4195 19.4946 54.7205 18.6666C54.9463 18.1397 55.0216 17.5376 55.0969 16.9354H63.1506C63.0001 19.2688 62.3227 21.6021 60.9678 23.4838C59.6883 25.215 57.8818 26.4193 55.8496 27.172C54.3442 27.6988 52.6883 27.9247 51.1076 27.9999H49.8281C47.6453 27.9247 45.4625 27.473 43.5055 26.4945C41.5485 25.5161 39.9679 24.0107 38.8389 22.129C37.484 19.8709 36.8819 17.1612 36.8066 14.6021C36.6561 11.7419 37.1077 8.95696 38.3872 6.54837C39.3657 4.59138 40.8711 2.93548 42.7528 1.88172C44.8603 0.602149 47.2689 0 49.7528 0Z" fill="white"/>
<path d="M97.0961 0H98.3005C100.709 0.0752686 103.193 0.52688 105.225 1.88172C106.279 2.55913 107.182 3.46236 107.784 4.51612C108.462 5.72041 108.838 6.99998 108.989 8.35482H100.935C100.86 7.75267 100.559 7.22579 100.182 6.84944C99.6553 6.32256 98.8273 6.17203 98.0746 6.09676C97.3972 6.02149 96.6445 6.09676 95.9671 6.24729C95.5155 6.39783 95.0639 6.69891 94.9134 7.22579C94.7628 7.6774 94.7628 8.27955 95.0639 8.65589C95.2897 9.03223 95.7413 9.25804 96.1929 9.40858C96.9456 9.70965 97.6983 9.86019 98.451 10.086C100.032 10.5376 101.612 10.8387 103.193 11.2903C104.247 11.5914 105.225 11.9677 106.128 12.4946C107.107 13.0967 108.01 13.9247 108.688 14.9032C109.365 15.8817 109.666 17.086 109.741 18.2903C109.817 19.7204 109.591 21.2257 108.989 22.5806C108.537 23.6343 107.784 24.6128 106.881 25.3655C105.15 26.7204 103.042 27.3978 100.86 27.6989C100.032 27.7741 99.2789 27.8494 98.451 27.8494H97.2467C95.2897 27.7741 93.3327 27.473 91.5263 26.6451C89.7951 25.8924 88.2145 24.5376 87.3112 22.8817C86.6338 21.6774 86.2575 20.2473 86.1069 18.8924H94.3865C94.537 19.4946 94.7628 20.172 95.2144 20.6236C95.5908 20.9999 96.0424 21.301 96.5693 21.3763C97.2467 21.5268 97.9994 21.6021 98.6768 21.5268C99.3542 21.4516 100.107 21.3763 100.709 20.9999C101.085 20.7741 101.386 20.3225 101.462 19.8709C101.537 19.4193 101.462 18.8924 101.085 18.5161C100.784 18.1397 100.257 17.9892 99.8058 17.8387C98.9779 17.6129 98.2252 17.387 97.3972 17.1612C95.8918 16.7849 94.4617 16.4086 92.9564 15.8817C91.9026 15.5053 90.8489 15.2043 89.8704 14.6021C88.8166 13.9247 87.9134 13.0215 87.3112 11.8924C86.7091 10.6881 86.4833 9.25804 86.4833 7.9032C86.5585 6.62364 86.8596 5.41934 87.4618 4.29031C88.0639 3.23655 88.9671 2.33333 90.0209 1.65591C92.1284 0.451612 94.6123 0.0752686 97.0961 0Z" fill="white"/>
<path d="M6.69891 1.12903C7.37632 0.451612 8.35481 0 9.40858 0C10.4623 0 11.5161 0.376343 12.2688 1.12903L16.8602 5.72041L21.4516 1.12903C22.129 0.451612 23.1827 0 24.1612 0C25.215 0 26.1935 0.376343 26.9462 1.12903L32.5913 6.77417C33.344 7.52686 33.7956 8.65589 33.7203 9.70965C33.6451 10.6881 33.2687 11.5914 32.5913 12.2688C27.3225 17.4623 22.129 22.7311 16.8602 27.9247C11.5914 22.7311 6.39783 17.4623 1.12903 12.2688C0.451612 11.5914 0.0752686 10.6881 0 9.78492V9.18277C0.0752686 8.27955 0.451612 7.37632 1.12903 6.69891C3.01074 4.89246 4.81719 3.01074 6.69891 1.12903Z" fill="white"/>
<path d="M61.1938 0.677246H69.8497C71.3551 6.39766 72.7852 12.0428 74.2906 17.7632C75.8712 12.0428 77.4519 6.39766 79.0325 0.677246H87.3873C84.4518 9.48367 81.4411 18.2901 78.4304 27.0965H69.925C67.1401 18.3654 64.2046 9.55894 61.1938 0.677246Z" fill="white"/>
</svg>
