<svg width="828" height="476" viewBox="0 0 828 476" fill="none" xmlns="http://www.w3.org/2000/svg">
<path d="M0.5 24.5807H15.3208C20.232 24.5807 24.2133 28.562 24.2133 33.4732V48.2939" stroke="#242E49" stroke-width="4"/>
<path d="M47.9258 24.5807L33.105 24.5807C28.1938 24.5807 24.2125 20.5994 24.2125 15.6882L24.2125 0.867427" stroke="#242E49" stroke-width="4"/>
<path d="M98.3164 24.5807H83.4956C78.5844 24.5807 74.6031 28.562 74.6031 33.4732V48.2939" stroke="#242E49" stroke-width="4"/>
<path d="M50.8906 24.5807L65.7114 24.5807C70.6226 24.5807 74.6039 20.5994 74.6039 15.6882L74.6039 0.867427" stroke="#242E49" stroke-width="4"/>
<path d="M101.281 24.5807H116.102C121.013 24.5807 124.995 28.562 124.995 33.4732V48.2939" stroke="#242E49" stroke-width="4"/>
<path d="M202.062 24.5807H216.883C221.794 24.5807 225.776 28.562 225.776 33.4732V48.2939" stroke="#242E49" stroke-width="4"/>
<path d="M302.844 24.5807H317.665C322.576 24.5807 326.557 28.562 326.557 33.4732V48.2939" stroke="#242E49" stroke-width="4"/>
<path d="M148.707 24.5807L133.886 24.5807C128.975 24.5807 124.994 20.5994 124.994 15.6882L124.994 0.867427" stroke="#242E49" stroke-width="4"/>
<path d="M249.488 24.5807L234.667 24.5807C229.756 24.5807 225.775 20.5994 225.775 15.6882L225.775 0.867427" stroke="#242E49" stroke-width="4"/>
<path d="M350.271 24.5807L335.451 24.5807C330.54 24.5807 326.558 20.5994 326.558 15.6882L326.558 0.867427" stroke="#242E49" stroke-width="4"/>
<path d="M199.098 24.5807H184.277C179.366 24.5807 175.384 28.562 175.384 33.4732V48.2939" stroke="#242E49" stroke-width="4"/>
<path d="M299.881 24.5807H285.06C280.149 24.5807 276.168 28.562 276.168 33.4732V48.2939" stroke="#242E49" stroke-width="4"/>
<path d="M400.662 24.5807H385.841C380.93 24.5807 376.949 28.562 376.949 33.4732V48.2939" stroke="#242E49" stroke-width="4"/>
<path d="M151.672 24.5807L166.493 24.5807C171.404 24.5807 175.385 20.5994 175.385 15.6882L175.385 0.867427" stroke="#242E49" stroke-width="4"/>
<path d="M252.453 24.5807L267.274 24.5807C272.185 24.5807 276.166 20.5994 276.166 15.6882L276.166 0.867427" stroke="#242E49" stroke-width="4"/>
<path d="M353.234 24.5807L368.055 24.5807C372.966 24.5807 376.948 20.5994 376.948 15.6882L376.948 0.867427" stroke="#242E49" stroke-width="4"/>
<path d="M24.2129 72.0072H39.0337C43.9449 72.0072 47.9262 75.9885 47.9262 80.8997V95.7205" stroke="#242E49" stroke-width="4"/>
<path d="M71.6406 72.0072L56.8198 72.0072C51.9087 72.0072 47.9274 68.0259 47.9274 63.1147L47.9274 48.2939" stroke="#242E49" stroke-width="4"/>
<path d="M122.031 72.0072H107.21C102.299 72.0072 98.318 75.9885 98.318 80.8997V95.7205" stroke="#242E49" stroke-width="4"/>
<path d="M74.6035 72.0072L89.4243 72.0072C94.3355 72.0072 98.3168 68.0259 98.3168 63.1147L98.3168 48.2939" stroke="#242E49" stroke-width="4"/>
<path d="M124.994 72.0072H139.815C144.726 72.0072 148.707 75.9885 148.707 80.8997V95.7205" stroke="#242E49" stroke-width="4"/>
<path d="M225.775 72.0072H240.596C245.507 72.0072 249.489 75.9885 249.489 80.8997V95.7205" stroke="#242E49" stroke-width="4"/>
<path d="M326.557 72.0072H341.377C346.289 72.0072 350.27 75.9885 350.27 80.8997V95.7205" stroke="#242E49" stroke-width="4"/>
<path d="M172.422 72.0072L157.601 72.0072C152.69 72.0072 148.709 68.0259 148.709 63.1147L148.709 48.2939" stroke="#242E49" stroke-width="4"/>
<path d="M273.203 72.0072L258.382 72.0072C253.471 72.0072 249.49 68.0259 249.49 63.1147L249.49 48.2939" stroke="#242E49" stroke-width="4"/>
<path d="M373.984 72.0072L359.164 72.0072C354.252 72.0072 350.271 68.0259 350.271 63.1147L350.271 48.2939" stroke="#242E49" stroke-width="4"/>
<path d="M222.812 72.0072H207.992C203.081 72.0072 199.099 75.9885 199.099 80.8997V95.7205" stroke="#242E49" stroke-width="4"/>
<path d="M323.594 72.0072H308.773C303.862 72.0072 299.88 75.9885 299.88 80.8997V95.7205" stroke="#242E49" stroke-width="4"/>
<path d="M424.375 72.0072H409.554C404.643 72.0072 400.662 75.9885 400.662 80.8997V95.7205" stroke="#242E49" stroke-width="4"/>
<path d="M175.385 72.0072L190.206 72.0072C195.117 72.0072 199.098 68.0259 199.098 63.1147L199.098 48.2939" stroke="#242E49" stroke-width="4"/>
<path d="M276.166 72.0072L290.987 72.0072C295.898 72.0072 299.879 68.0259 299.879 63.1147L299.879 48.2939" stroke="#242E49" stroke-width="4"/>
<path d="M376.947 72.0072L391.768 72.0072C396.679 72.0072 400.661 68.0259 400.661 63.1147L400.661 48.2939" stroke="#242E49" stroke-width="4"/>
<path d="M0.5 119.434H15.3208C20.232 119.434 24.2133 123.415 24.2133 128.326V143.147" stroke="#242E49" stroke-width="4"/>
<path d="M0.5 214.287H15.3208C20.232 214.287 24.2133 218.268 24.2133 223.179V238" stroke="#242E49" stroke-width="4"/>
<path d="M0.5 309.14H15.3208C20.232 309.14 24.2133 313.121 24.2133 318.032V332.853" stroke="#242E49" stroke-width="4"/>
<path d="M0.5 403.993H15.3208C20.232 403.993 24.2133 407.974 24.2133 412.885V427.706" stroke="#242E49" stroke-width="4"/>
<path d="M47.9258 119.434L33.105 119.434C28.1938 119.434 24.2125 115.452 24.2125 110.541L24.2125 95.7204" stroke="#242E49" stroke-width="4"/>
<path d="M47.9258 214.287L33.105 214.287C28.1938 214.287 24.2125 210.305 24.2125 205.394L24.2125 190.573" stroke="#242E49" stroke-width="4"/>
<path d="M47.9258 309.14L33.105 309.14C28.1938 309.14 24.2125 305.158 24.2125 300.247L24.2125 285.426" stroke="#242E49" stroke-width="4"/>
<path d="M47.9258 403.993L33.105 403.993C28.1938 403.993 24.2125 400.012 24.2125 395.1L24.2125 380.28" stroke="#242E49" stroke-width="4"/>
<path d="M98.3164 119.434H83.4956C78.5844 119.434 74.6031 123.415 74.6031 128.326V143.147" stroke="#242E49" stroke-width="4"/>
<path d="M98.3164 214.287H83.4956C78.5844 214.287 74.6031 218.268 74.6031 223.179V238" stroke="#242E49" stroke-width="4"/>
<path d="M98.3164 309.14H83.4956C78.5844 309.14 74.6031 313.121 74.6031 318.032V332.853" stroke="#242E49" stroke-width="4"/>
<path d="M98.3164 403.993H83.4956C78.5844 403.993 74.6031 407.974 74.6031 412.885V427.706" stroke="#242E49" stroke-width="4"/>
<path d="M50.8906 119.434L65.7114 119.434C70.6226 119.434 74.6039 115.452 74.6039 110.541L74.6039 95.7204" stroke="#242E49" stroke-width="4"/>
<path d="M50.8906 214.287L65.7114 214.287C70.6226 214.287 74.6039 210.305 74.6039 205.394L74.6039 190.573" stroke="#242E49" stroke-width="4"/>
<path d="M50.8906 309.14L65.7114 309.14C70.6226 309.14 74.6039 305.158 74.6039 300.247L74.6039 285.426" stroke="#242E49" stroke-width="4"/>
<path d="M50.8906 403.993L65.7114 403.993C70.6226 403.993 74.6039 400.012 74.6039 395.1L74.6039 380.28" stroke="#242E49" stroke-width="4"/>
<path d="M101.281 119.434H116.102C121.013 119.434 124.995 123.415 124.995 128.326V143.147" stroke="#242E49" stroke-width="4"/>
<path d="M101.281 214.287H116.102C121.013 214.287 124.995 218.268 124.995 223.179V238" stroke="#242E49" stroke-width="4"/>
<path d="M101.281 309.14H116.102C121.013 309.14 124.995 313.121 124.995 318.032V332.853" stroke="#242E49" stroke-width="4"/>
<path d="M101.281 403.993H116.102C121.013 403.993 124.995 407.974 124.995 412.885V427.706" stroke="#242E49" stroke-width="4"/>
<path d="M202.062 119.434H216.883C221.794 119.434 225.776 123.415 225.776 128.326V143.147" stroke="#242E49" stroke-width="4"/>
<path d="M202.062 214.287H216.883C221.794 214.287 225.776 218.268 225.776 223.179V238" stroke="#242E49" stroke-width="4"/>
<path d="M202.062 309.14H216.883C221.794 309.14 225.776 313.121 225.776 318.032V332.853" stroke="#242E49" stroke-width="4"/>
<path d="M202.062 403.993H216.883C221.794 403.993 225.776 407.974 225.776 412.885V427.706" stroke="#242E49" stroke-width="4"/>
<path d="M302.844 119.434H317.665C322.576 119.434 326.557 123.415 326.557 128.326V143.147" stroke="#242E49" stroke-width="4"/>
<path d="M302.844 214.287H317.665C322.576 214.287 326.557 218.268 326.557 223.179V238" stroke="#242E49" stroke-width="4"/>
<path d="M302.844 309.14H317.665C322.576 309.14 326.557 313.121 326.557 318.032V332.853" stroke="#242E49" stroke-width="4"/>
<path d="M302.844 403.993H317.665C322.576 403.993 326.557 407.974 326.557 412.885V427.706" stroke="#242E49" stroke-width="4"/>
<path d="M148.707 119.434L133.886 119.434C128.975 119.434 124.994 115.452 124.994 110.541L124.994 95.7204" stroke="#242E49" stroke-width="4"/>
<path d="M148.707 214.287L133.886 214.287C128.975 214.287 124.994 210.305 124.994 205.394L124.994 190.573" stroke="#242E49" stroke-width="4"/>
<path d="M148.707 309.14L133.886 309.14C128.975 309.14 124.994 305.158 124.994 300.247L124.994 285.426" stroke="#242E49" stroke-width="4"/>
<path d="M148.707 403.993L133.886 403.993C128.975 403.993 124.994 400.012 124.994 395.1L124.994 380.28" stroke="#242E49" stroke-width="4"/>
<path d="M249.488 119.434L234.667 119.434C229.756 119.434 225.775 115.452 225.775 110.541L225.775 95.7204" stroke="#242E49" stroke-width="4"/>
<path d="M249.488 214.287L234.667 214.287C229.756 214.287 225.775 210.305 225.775 205.394L225.775 190.573" stroke="#242E49" stroke-width="4"/>
<path d="M249.488 309.14L234.667 309.14C229.756 309.14 225.775 305.158 225.775 300.247L225.775 285.426" stroke="#242E49" stroke-width="4"/>
<path d="M249.488 403.993L234.667 403.993C229.756 403.993 225.775 400.012 225.775 395.1L225.775 380.28" stroke="#242E49" stroke-width="4"/>
<path d="M350.271 119.434L335.451 119.434C330.54 119.434 326.558 115.452 326.558 110.541L326.558 95.7204" stroke="#242E49" stroke-width="4"/>
<path d="M350.271 214.287L335.451 214.287C330.54 214.287 326.558 210.305 326.558 205.394L326.558 190.573" stroke="#242E49" stroke-width="4"/>
<path d="M350.271 309.14L335.451 309.14C330.54 309.14 326.558 305.158 326.558 300.247L326.558 285.426" stroke="#242E49" stroke-width="4"/>
<path d="M350.271 403.993L335.451 403.993C330.54 403.993 326.558 400.012 326.558 395.1L326.558 380.28" stroke="#242E49" stroke-width="4"/>
<path d="M199.098 119.434H184.277C179.366 119.434 175.384 123.415 175.384 128.326V143.147" stroke="#242E49" stroke-width="4"/>
<path d="M199.098 214.287H184.277C179.366 214.287 175.384 218.268 175.384 223.179V238" stroke="#242E49" stroke-width="4"/>
<path d="M199.098 309.14H184.277C179.366 309.14 175.384 313.121 175.384 318.032V332.853" stroke="#242E49" stroke-width="4"/>
<path d="M199.098 403.993H184.277C179.366 403.993 175.384 407.974 175.384 412.885V427.706" stroke="#242E49" stroke-width="4"/>
<path d="M299.881 119.434H285.06C280.149 119.434 276.168 123.415 276.168 128.326V143.147" stroke="#242E49" stroke-width="4"/>
<path d="M299.881 214.287H285.06C280.149 214.287 276.168 218.268 276.168 223.179V238" stroke="#242E49" stroke-width="4"/>
<path d="M299.881 309.14H285.06C280.149 309.14 276.168 313.121 276.168 318.032V332.853" stroke="#242E49" stroke-width="4"/>
<path d="M299.881 403.993H285.06C280.149 403.993 276.168 407.974 276.168 412.885V427.706" stroke="#242E49" stroke-width="4"/>
<path d="M400.662 119.434H385.841C380.93 119.434 376.949 123.415 376.949 128.326V143.147" stroke="#242E49" stroke-width="4"/>
<path d="M400.662 214.287H385.841C380.93 214.287 376.949 218.268 376.949 223.179V238" stroke="#242E49" stroke-width="4"/>
<path d="M400.662 309.14H385.841C380.93 309.14 376.949 313.121 376.949 318.032V332.853" stroke="#242E49" stroke-width="4"/>
<path d="M400.662 403.993H385.841C380.93 403.993 376.949 407.974 376.949 412.885V427.706" stroke="#242E49" stroke-width="4"/>
<path d="M151.672 119.434L166.493 119.434C171.404 119.434 175.385 115.452 175.385 110.541L175.385 95.7204" stroke="#242E49" stroke-width="4"/>
<path d="M151.672 214.287L166.493 214.287C171.404 214.287 175.385 210.305 175.385 205.394L175.385 190.573" stroke="#242E49" stroke-width="4"/>
<path d="M151.672 309.14L166.493 309.14C171.404 309.14 175.385 305.158 175.385 300.247L175.385 285.426" stroke="#242E49" stroke-width="4"/>
<path d="M151.672 403.993L166.493 403.993C171.404 403.993 175.385 400.012 175.385 395.1L175.385 380.28" stroke="#242E49" stroke-width="4"/>
<path d="M252.453 119.434L267.274 119.434C272.185 119.434 276.166 115.452 276.166 110.541L276.166 95.7204" stroke="#242E49" stroke-width="4"/>
<path d="M252.453 214.287L267.274 214.287C272.185 214.287 276.166 210.305 276.166 205.394L276.166 190.573" stroke="#242E49" stroke-width="4"/>
<path d="M252.453 309.14L267.274 309.14C272.185 309.14 276.166 305.158 276.166 300.247L276.166 285.426" stroke="#242E49" stroke-width="4"/>
<path d="M252.453 403.993L267.274 403.993C272.185 403.993 276.166 400.012 276.166 395.1L276.166 380.28" stroke="#242E49" stroke-width="4"/>
<path d="M353.234 119.434L368.055 119.434C372.966 119.434 376.948 115.452 376.948 110.541L376.948 95.7204" stroke="#242E49" stroke-width="4"/>
<path d="M353.234 214.287L368.055 214.287C372.966 214.287 376.948 210.305 376.948 205.394L376.948 190.573" stroke="#242E49" stroke-width="4"/>
<path d="M353.234 309.14L368.055 309.14C372.966 309.14 376.948 305.158 376.948 300.247L376.948 285.426" stroke="#242E49" stroke-width="4"/>
<path d="M353.234 403.993L368.055 403.993C372.966 403.993 376.948 400.012 376.948 395.1L376.948 380.28" stroke="#242E49" stroke-width="4"/>
<path d="M24.2129 166.86H39.0337C43.9449 166.86 47.9262 170.842 47.9262 175.753V190.573" stroke="#242E49" stroke-width="4"/>
<path d="M24.2129 261.713H39.0337C43.9449 261.713 47.9262 265.695 47.9262 270.606V285.427" stroke="#242E49" stroke-width="4"/>
<path d="M24.2129 356.566H39.0337C43.9449 356.566 47.9262 360.548 47.9262 365.459V380.28" stroke="#242E49" stroke-width="4"/>
<path d="M24.2129 451.419H39.0337C43.9449 451.419 47.9262 455.401 47.9262 460.312V475.133" stroke="#242E49" stroke-width="4"/>
<path d="M71.6406 166.86L56.8198 166.86C51.9087 166.86 47.9274 162.879 47.9274 157.968L47.9274 143.147" stroke="#242E49" stroke-width="4"/>
<path d="M71.6406 261.713L56.8198 261.713C51.9087 261.713 47.9274 257.732 47.9274 252.821L47.9274 238" stroke="#242E49" stroke-width="4"/>
<path d="M71.6406 356.566L56.8198 356.566C51.9087 356.566 47.9274 352.585 47.9274 347.674L47.9274 332.853" stroke="#242E49" stroke-width="4"/>
<path d="M71.6406 451.419L56.8198 451.419C51.9087 451.419 47.9274 447.438 47.9274 442.527L47.9274 427.706" stroke="#242E49" stroke-width="4"/>
<path d="M122.031 166.86H107.21C102.299 166.86 98.318 170.842 98.318 175.753V190.573" stroke="#242E49" stroke-width="4"/>
<path d="M122.031 261.713H107.21C102.299 261.713 98.318 265.695 98.318 270.606V285.427" stroke="#242E49" stroke-width="4"/>
<path d="M122.031 356.566H107.21C102.299 356.566 98.318 360.548 98.318 365.459V380.28" stroke="#242E49" stroke-width="4"/>
<path d="M122.031 451.419H107.21C102.299 451.419 98.318 455.401 98.318 460.312V475.133" stroke="#242E49" stroke-width="4"/>
<path d="M74.6035 166.86L89.4243 166.86C94.3355 166.86 98.3168 162.879 98.3168 157.968L98.3168 143.147" stroke="#242E49" stroke-width="4"/>
<path d="M74.6035 261.713L89.4243 261.713C94.3355 261.713 98.3168 257.732 98.3168 252.821L98.3168 238" stroke="#242E49" stroke-width="4"/>
<path d="M74.6035 356.566L89.4243 356.566C94.3355 356.566 98.3168 352.585 98.3168 347.674L98.3168 332.853" stroke="#242E49" stroke-width="4"/>
<path d="M74.6035 451.419L89.4243 451.419C94.3355 451.419 98.3168 447.438 98.3168 442.527L98.3168 427.706" stroke="#242E49" stroke-width="4"/>
<path d="M124.994 166.86H139.815C144.726 166.86 148.707 170.842 148.707 175.753V190.573" stroke="#242E49" stroke-width="4"/>
<path d="M124.994 261.713H139.815C144.726 261.713 148.707 265.695 148.707 270.606V285.427" stroke="#242E49" stroke-width="4"/>
<path d="M124.994 356.566H139.815C144.726 356.566 148.707 360.548 148.707 365.459V380.28" stroke="#242E49" stroke-width="4"/>
<path d="M124.994 451.419H139.815C144.726 451.419 148.707 455.401 148.707 460.312V475.133" stroke="#242E49" stroke-width="4"/>
<path d="M225.775 166.86H240.596C245.507 166.86 249.489 170.842 249.489 175.753V190.573" stroke="#242E49" stroke-width="4"/>
<path d="M225.775 261.713H240.596C245.507 261.713 249.489 265.695 249.489 270.606V285.427" stroke="#242E49" stroke-width="4"/>
<path d="M225.775 356.566H240.596C245.507 356.566 249.489 360.548 249.489 365.459V380.28" stroke="#242E49" stroke-width="4"/>
<path d="M225.775 451.419H240.596C245.507 451.419 249.489 455.401 249.489 460.312V475.133" stroke="#242E49" stroke-width="4"/>
<path d="M326.557 166.86H341.377C346.289 166.86 350.27 170.842 350.27 175.753V190.573" stroke="#242E49" stroke-width="4"/>
<path d="M326.557 261.713H341.377C346.289 261.713 350.27 265.695 350.27 270.606V285.427" stroke="#242E49" stroke-width="4"/>
<path d="M326.557 356.566H341.377C346.289 356.566 350.27 360.548 350.27 365.459V380.28" stroke="#242E49" stroke-width="4"/>
<path d="M326.557 451.419H341.377C346.289 451.419 350.27 455.401 350.27 460.312V475.133" stroke="#242E49" stroke-width="4"/>
<path d="M172.422 166.86L157.601 166.86C152.69 166.86 148.709 162.879 148.709 157.968L148.709 143.147" stroke="#242E49" stroke-width="4"/>
<path d="M172.422 261.713L157.601 261.713C152.69 261.713 148.709 257.732 148.709 252.821L148.709 238" stroke="#242E49" stroke-width="4"/>
<path d="M172.422 356.566L157.601 356.566C152.69 356.566 148.709 352.585 148.709 347.674L148.709 332.853" stroke="#242E49" stroke-width="4"/>
<path d="M172.422 451.419L157.601 451.419C152.69 451.419 148.709 447.438 148.709 442.527L148.709 427.706" stroke="#242E49" stroke-width="4"/>
<path d="M273.203 166.86L258.382 166.86C253.471 166.86 249.49 162.879 249.49 157.968L249.49 143.147" stroke="#242E49" stroke-width="4"/>
<path d="M273.203 261.713L258.382 261.713C253.471 261.713 249.49 257.732 249.49 252.821L249.49 238" stroke="#242E49" stroke-width="4"/>
<path d="M273.203 356.566L258.382 356.566C253.471 356.566 249.49 352.585 249.49 347.674L249.49 332.853" stroke="#242E49" stroke-width="4"/>
<path d="M273.203 451.419L258.382 451.419C253.471 451.419 249.49 447.438 249.49 442.527L249.49 427.706" stroke="#242E49" stroke-width="4"/>
<path d="M373.984 166.86L359.164 166.86C354.252 166.86 350.271 162.879 350.271 157.968L350.271 143.147" stroke="#242E49" stroke-width="4"/>
<path d="M373.984 261.713L359.164 261.713C354.252 261.713 350.271 257.732 350.271 252.821L350.271 238" stroke="#242E49" stroke-width="4"/>
<path d="M373.984 356.566L359.164 356.566C354.252 356.566 350.271 352.585 350.271 347.674L350.271 332.853" stroke="#242E49" stroke-width="4"/>
<path d="M373.984 451.419L359.164 451.419C354.252 451.419 350.271 447.438 350.271 442.527L350.271 427.706" stroke="#242E49" stroke-width="4"/>
<path d="M222.812 166.86H207.992C203.081 166.86 199.099 170.842 199.099 175.753V190.573" stroke="#242E49" stroke-width="4"/>
<path d="M222.812 261.713H207.992C203.081 261.713 199.099 265.695 199.099 270.606V285.427" stroke="#242E49" stroke-width="4"/>
<path d="M222.812 356.566H207.992C203.081 356.566 199.099 360.548 199.099 365.459V380.28" stroke="#242E49" stroke-width="4"/>
<path d="M222.812 451.419H207.992C203.081 451.419 199.099 455.401 199.099 460.312V475.133" stroke="#242E49" stroke-width="4"/>
<path d="M323.594 166.86H308.773C303.862 166.86 299.88 170.842 299.88 175.753V190.573" stroke="#242E49" stroke-width="4"/>
<path d="M323.594 261.713H308.773C303.862 261.713 299.88 265.695 299.88 270.606V285.427" stroke="#242E49" stroke-width="4"/>
<path d="M323.594 356.566H308.773C303.862 356.566 299.88 360.548 299.88 365.459V380.28" stroke="#242E49" stroke-width="4"/>
<path d="M323.594 451.419H308.773C303.862 451.419 299.88 455.401 299.88 460.312V475.133" stroke="#242E49" stroke-width="4"/>
<path d="M424.375 166.86H409.554C404.643 166.86 400.662 170.842 400.662 175.753V190.573" stroke="#242E49" stroke-width="4"/>
<path d="M424.375 261.713H409.554C404.643 261.713 400.662 265.695 400.662 270.606V285.427" stroke="#242E49" stroke-width="4"/>
<path d="M424.375 356.566H409.554C404.643 356.566 400.662 360.548 400.662 365.459V380.28" stroke="#242E49" stroke-width="4"/>
<path d="M424.375 451.419H409.554C404.643 451.419 400.662 455.401 400.662 460.312V475.133" stroke="#242E49" stroke-width="4"/>
<path d="M175.385 166.86L190.206 166.86C195.117 166.86 199.098 162.879 199.098 157.968L199.098 143.147" stroke="#242E49" stroke-width="4"/>
<path d="M175.385 261.713L190.206 261.713C195.117 261.713 199.098 257.732 199.098 252.821L199.098 238" stroke="#242E49" stroke-width="4"/>
<path d="M175.385 356.566L190.206 356.566C195.117 356.566 199.098 352.585 199.098 347.674L199.098 332.853" stroke="#242E49" stroke-width="4"/>
<path d="M175.385 451.419L190.206 451.419C195.117 451.419 199.098 447.438 199.098 442.527L199.098 427.706" stroke="#242E49" stroke-width="4"/>
<path d="M276.166 166.86L290.987 166.86C295.898 166.86 299.879 162.879 299.879 157.968L299.879 143.147" stroke="#242E49" stroke-width="4"/>
<path d="M276.166 261.713L290.987 261.713C295.898 261.713 299.879 257.732 299.879 252.821L299.879 238" stroke="#242E49" stroke-width="4"/>
<path d="M276.166 356.566L290.987 356.566C295.898 356.566 299.879 352.585 299.879 347.674L299.879 332.853" stroke="#242E49" stroke-width="4"/>
<path d="M276.166 451.419L290.987 451.419C295.898 451.419 299.879 447.438 299.879 442.527L299.879 427.706" stroke="#242E49" stroke-width="4"/>
<path d="M376.947 166.86L391.768 166.86C396.679 166.86 400.661 162.879 400.661 157.968L400.661 143.147" stroke="#242E49" stroke-width="4"/>
<path d="M376.947 261.713L391.768 261.713C396.679 261.713 400.661 257.732 400.661 252.821L400.661 238" stroke="#242E49" stroke-width="4"/>
<path d="M376.947 356.566L391.768 356.566C396.679 356.566 400.661 352.585 400.661 347.674L400.661 332.853" stroke="#242E49" stroke-width="4"/>
<path d="M376.947 451.419L391.768 451.419C396.679 451.419 400.661 447.438 400.661 442.527L400.661 427.706" stroke="#242E49" stroke-width="4"/>
<path d="M403.625 24.5807H418.446C423.357 24.5807 427.338 28.562 427.338 33.4732V48.2939" stroke="#242E49" stroke-width="4"/>
<path d="M451.051 24.5807L436.23 24.5807C431.319 24.5807 427.338 20.5994 427.338 15.6882L427.338 0.867427" stroke="#242E49" stroke-width="4"/>
<path d="M501.441 24.5807H486.621C481.709 24.5807 477.728 28.562 477.728 33.4732V48.2939" stroke="#242E49" stroke-width="4"/>
<path d="M454.016 24.5807L468.836 24.5807C473.748 24.5807 477.729 20.5994 477.729 15.6882L477.729 0.867427" stroke="#242E49" stroke-width="4"/>
<path d="M504.406 24.5807H519.227C524.138 24.5807 528.12 28.562 528.12 33.4732V48.2939" stroke="#242E49" stroke-width="4"/>
<path d="M605.188 24.5807H620.008C624.919 24.5807 628.901 28.562 628.901 33.4732V48.2939" stroke="#242E49" stroke-width="4"/>
<path d="M705.969 24.5807H720.79C725.701 24.5807 729.682 28.562 729.682 33.4732V48.2939" stroke="#242E49" stroke-width="4"/>
<path d="M551.832 24.5807L537.011 24.5807C532.1 24.5807 528.119 20.5994 528.119 15.6882L528.119 0.867427" stroke="#242E49" stroke-width="4"/>
<path d="M652.613 24.5807L637.792 24.5807C632.881 24.5807 628.9 20.5994 628.9 15.6882L628.9 0.867427" stroke="#242E49" stroke-width="4"/>
<path d="M753.396 24.5807L738.576 24.5807C733.665 24.5807 729.683 20.5994 729.683 15.6882L729.683 0.867427" stroke="#242E49" stroke-width="4"/>
<path d="M602.223 24.5807H587.402C582.491 24.5807 578.509 28.562 578.509 33.4732V48.2939" stroke="#242E49" stroke-width="4"/>
<path d="M703.006 24.5807H688.185C683.274 24.5807 679.293 28.562 679.293 33.4732V48.2939" stroke="#242E49" stroke-width="4"/>
<path d="M803.787 24.5807H788.966C784.055 24.5807 780.074 28.562 780.074 33.4732V48.2939" stroke="#242E49" stroke-width="4"/>
<path d="M554.797 24.5807L569.618 24.5807C574.529 24.5807 578.51 20.5994 578.51 15.6882L578.51 0.867427" stroke="#242E49" stroke-width="4"/>
<path d="M655.578 24.5807L670.399 24.5807C675.31 24.5807 679.291 20.5994 679.291 15.6882L679.291 0.867427" stroke="#242E49" stroke-width="4"/>
<path d="M756.359 24.5807L771.18 24.5807C776.091 24.5807 780.073 20.5994 780.073 15.6882L780.073 0.867427" stroke="#242E49" stroke-width="4"/>
<path d="M427.338 72.0072H442.159C447.07 72.0072 451.051 75.9885 451.051 80.8997V95.7205" stroke="#242E49" stroke-width="4"/>
<path d="M474.766 72.0072L459.945 72.0072C455.034 72.0072 451.052 68.0259 451.052 63.1147L451.052 48.2939" stroke="#242E49" stroke-width="4"/>
<path d="M525.156 72.0072H510.335C505.424 72.0072 501.443 75.9885 501.443 80.8997V95.7205" stroke="#242E49" stroke-width="4"/>
<path d="M477.729 72.0072L492.549 72.0072C497.46 72.0072 501.442 68.0259 501.442 63.1147L501.442 48.2939" stroke="#242E49" stroke-width="4"/>
<path d="M528.119 72.0072H542.94C547.851 72.0072 551.832 75.9885 551.832 80.8997V95.7205" stroke="#242E49" stroke-width="4"/>
<path d="M628.9 72.0072H643.721C648.632 72.0072 652.614 75.9885 652.614 80.8997V95.7205" stroke="#242E49" stroke-width="4"/>
<path d="M729.682 72.0072H744.502C749.414 72.0072 753.395 75.9885 753.395 80.8997V95.7205" stroke="#242E49" stroke-width="4"/>
<path d="M575.547 72.0072L560.726 72.0072C555.815 72.0072 551.834 68.0259 551.834 63.1147L551.834 48.2939" stroke="#242E49" stroke-width="4"/>
<path d="M676.328 72.0072L661.507 72.0072C656.596 72.0072 652.615 68.0259 652.615 63.1147L652.615 48.2939" stroke="#242E49" stroke-width="4"/>
<path d="M777.109 72.0072L762.289 72.0072C757.377 72.0072 753.396 68.0259 753.396 63.1147L753.396 48.2939" stroke="#242E49" stroke-width="4"/>
<path d="M625.938 72.0072H611.117C606.206 72.0072 602.224 75.9885 602.224 80.8997V95.7205" stroke="#242E49" stroke-width="4"/>
<path d="M726.719 72.0072H711.898C706.987 72.0072 703.005 75.9885 703.005 80.8997V95.7205" stroke="#242E49" stroke-width="4"/>
<path d="M827.5 72.0072H812.679C807.768 72.0072 803.787 75.9885 803.787 80.8997V95.7205" stroke="#242E49" stroke-width="4"/>
<path d="M578.51 72.0072L593.331 72.0072C598.242 72.0072 602.223 68.0259 602.223 63.1147L602.223 48.2939" stroke="#242E49" stroke-width="4"/>
<path d="M679.291 72.0072L694.112 72.0072C699.023 72.0072 703.004 68.0259 703.004 63.1147L703.004 48.2939" stroke="#242E49" stroke-width="4"/>
<path d="M780.072 72.0072L794.893 72.0072C799.804 72.0072 803.786 68.0259 803.786 63.1147L803.786 48.2939" stroke="#242E49" stroke-width="4"/>
<path d="M403.625 119.434H418.446C423.357 119.434 427.338 123.415 427.338 128.326V143.147" stroke="#242E49" stroke-width="4"/>
<path d="M403.625 214.287H418.446C423.357 214.287 427.338 218.268 427.338 223.179V238" stroke="#242E49" stroke-width="4"/>
<path d="M403.625 309.14H418.446C423.357 309.14 427.338 313.121 427.338 318.032V332.853" stroke="#242E49" stroke-width="4"/>
<path d="M403.625 403.993H418.446C423.357 403.993 427.338 407.974 427.338 412.885V427.706" stroke="#242E49" stroke-width="4"/>
<path d="M451.051 119.434L436.23 119.434C431.319 119.434 427.338 115.452 427.338 110.541L427.338 95.7204" stroke="#242E49" stroke-width="4"/>
<path d="M451.051 214.287L436.23 214.287C431.319 214.287 427.338 210.305 427.338 205.394L427.338 190.573" stroke="#242E49" stroke-width="4"/>
<path d="M451.051 309.14L436.23 309.14C431.319 309.14 427.338 305.158 427.338 300.247L427.338 285.426" stroke="#242E49" stroke-width="4"/>
<path d="M451.051 403.993L436.23 403.993C431.319 403.993 427.338 400.012 427.338 395.1L427.338 380.28" stroke="#242E49" stroke-width="4"/>
<path d="M501.441 119.434H486.621C481.709 119.434 477.728 123.415 477.728 128.326V143.147" stroke="#242E49" stroke-width="4"/>
<path d="M501.441 214.287H486.621C481.709 214.287 477.728 218.268 477.728 223.179V238" stroke="#242E49" stroke-width="4"/>
<path d="M501.441 309.14H486.621C481.709 309.14 477.728 313.121 477.728 318.032V332.853" stroke="#242E49" stroke-width="4"/>
<path d="M501.441 403.993H486.621C481.709 403.993 477.728 407.974 477.728 412.885V427.706" stroke="#242E49" stroke-width="4"/>
<path d="M454.016 119.434L468.836 119.434C473.748 119.434 477.729 115.452 477.729 110.541L477.729 95.7204" stroke="#242E49" stroke-width="4"/>
<path d="M454.016 214.287L468.836 214.287C473.748 214.287 477.729 210.305 477.729 205.394L477.729 190.573" stroke="#242E49" stroke-width="4"/>
<path d="M454.016 309.14L468.836 309.14C473.748 309.14 477.729 305.158 477.729 300.247L477.729 285.426" stroke="#242E49" stroke-width="4"/>
<path d="M454.016 403.993L468.836 403.993C473.748 403.993 477.729 400.012 477.729 395.1L477.729 380.28" stroke="#242E49" stroke-width="4"/>
<path d="M504.406 119.434H519.227C524.138 119.434 528.12 123.415 528.12 128.326V143.147" stroke="#242E49" stroke-width="4"/>
<path d="M504.406 214.287H519.227C524.138 214.287 528.12 218.268 528.12 223.179V238" stroke="#242E49" stroke-width="4"/>
<path d="M504.406 309.14H519.227C524.138 309.14 528.12 313.121 528.12 318.032V332.853" stroke="#242E49" stroke-width="4"/>
<path d="M504.406 403.993H519.227C524.138 403.993 528.12 407.974 528.12 412.885V427.706" stroke="#242E49" stroke-width="4"/>
<path d="M605.188 119.434H620.008C624.919 119.434 628.901 123.415 628.901 128.326V143.147" stroke="#242E49" stroke-width="4"/>
<path d="M605.188 214.287H620.008C624.919 214.287 628.901 218.268 628.901 223.179V238" stroke="#242E49" stroke-width="4"/>
<path d="M605.188 309.14H620.008C624.919 309.14 628.901 313.121 628.901 318.032V332.853" stroke="#242E49" stroke-width="4"/>
<path d="M605.188 403.993H620.008C624.919 403.993 628.901 407.974 628.901 412.885V427.706" stroke="#242E49" stroke-width="4"/>
<path d="M705.969 119.434H720.79C725.701 119.434 729.682 123.415 729.682 128.326V143.147" stroke="#242E49" stroke-width="4"/>
<path d="M705.969 214.287H720.79C725.701 214.287 729.682 218.268 729.682 223.179V238" stroke="#242E49" stroke-width="4"/>
<path d="M705.969 309.14H720.79C725.701 309.14 729.682 313.121 729.682 318.032V332.853" stroke="#242E49" stroke-width="4"/>
<path d="M705.969 403.993H720.79C725.701 403.993 729.682 407.974 729.682 412.885V427.706" stroke="#242E49" stroke-width="4"/>
<path d="M551.832 119.434L537.011 119.434C532.1 119.434 528.119 115.452 528.119 110.541L528.119 95.7204" stroke="#242E49" stroke-width="4"/>
<path d="M551.832 214.287L537.011 214.287C532.1 214.287 528.119 210.305 528.119 205.394L528.119 190.573" stroke="#242E49" stroke-width="4"/>
<path d="M551.832 309.14L537.011 309.14C532.1 309.14 528.119 305.158 528.119 300.247L528.119 285.426" stroke="#242E49" stroke-width="4"/>
<path d="M551.832 403.993L537.011 403.993C532.1 403.993 528.119 400.012 528.119 395.1L528.119 380.28" stroke="#242E49" stroke-width="4"/>
<path d="M652.613 119.434L637.792 119.434C632.881 119.434 628.9 115.452 628.9 110.541L628.9 95.7204" stroke="#242E49" stroke-width="4"/>
<path d="M652.613 214.287L637.792 214.287C632.881 214.287 628.9 210.305 628.9 205.394L628.9 190.573" stroke="#242E49" stroke-width="4"/>
<path d="M652.613 309.14L637.792 309.14C632.881 309.14 628.9 305.158 628.9 300.247L628.9 285.426" stroke="#242E49" stroke-width="4"/>
<path d="M652.613 403.993L637.792 403.993C632.881 403.993 628.9 400.012 628.9 395.1L628.9 380.28" stroke="#242E49" stroke-width="4"/>
<path d="M753.396 119.434L738.576 119.434C733.665 119.434 729.683 115.452 729.683 110.541L729.683 95.7204" stroke="#242E49" stroke-width="4"/>
<path d="M753.396 214.287L738.576 214.287C733.665 214.287 729.683 210.305 729.683 205.394L729.683 190.573" stroke="#242E49" stroke-width="4"/>
<path d="M753.396 309.14L738.576 309.14C733.665 309.14 729.683 305.158 729.683 300.247L729.683 285.426" stroke="#242E49" stroke-width="4"/>
<path d="M753.396 403.993L738.576 403.993C733.665 403.993 729.683 400.012 729.683 395.1L729.683 380.28" stroke="#242E49" stroke-width="4"/>
<path d="M602.223 119.434H587.402C582.491 119.434 578.509 123.415 578.509 128.326V143.147" stroke="#242E49" stroke-width="4"/>
<path d="M602.223 214.287H587.402C582.491 214.287 578.509 218.268 578.509 223.179V238" stroke="#242E49" stroke-width="4"/>
<path d="M602.223 309.14H587.402C582.491 309.14 578.509 313.121 578.509 318.032V332.853" stroke="#242E49" stroke-width="4"/>
<path d="M602.223 403.993H587.402C582.491 403.993 578.509 407.974 578.509 412.885V427.706" stroke="#242E49" stroke-width="4"/>
<path d="M703.006 119.434H688.185C683.274 119.434 679.293 123.415 679.293 128.326V143.147" stroke="#242E49" stroke-width="4"/>
<path d="M703.006 214.287H688.185C683.274 214.287 679.293 218.268 679.293 223.179V238" stroke="#242E49" stroke-width="4"/>
<path d="M703.006 309.14H688.185C683.274 309.14 679.293 313.121 679.293 318.032V332.853" stroke="#242E49" stroke-width="4"/>
<path d="M703.006 403.993H688.185C683.274 403.993 679.293 407.974 679.293 412.885V427.706" stroke="#242E49" stroke-width="4"/>
<path d="M803.787 119.434H788.966C784.055 119.434 780.074 123.415 780.074 128.326V143.147" stroke="#242E49" stroke-width="4"/>
<path d="M803.787 214.287H788.966C784.055 214.287 780.074 218.268 780.074 223.179V238" stroke="#242E49" stroke-width="4"/>
<path d="M803.787 309.14H788.966C784.055 309.14 780.074 313.121 780.074 318.032V332.853" stroke="#242E49" stroke-width="4"/>
<path d="M803.787 403.993H788.966C784.055 403.993 780.074 407.974 780.074 412.885V427.706" stroke="#242E49" stroke-width="4"/>
<path d="M554.797 119.434L569.618 119.434C574.529 119.434 578.51 115.452 578.51 110.541L578.51 95.7204" stroke="#242E49" stroke-width="4"/>
<path d="M554.797 214.287L569.618 214.287C574.529 214.287 578.51 210.305 578.51 205.394L578.51 190.573" stroke="#242E49" stroke-width="4"/>
<path d="M554.797 309.14L569.618 309.14C574.529 309.14 578.51 305.158 578.51 300.247L578.51 285.426" stroke="#242E49" stroke-width="4"/>
<path d="M554.797 403.993L569.618 403.993C574.529 403.993 578.51 400.012 578.51 395.1L578.51 380.28" stroke="#242E49" stroke-width="4"/>
<path d="M655.578 119.434L670.399 119.434C675.31 119.434 679.291 115.452 679.291 110.541L679.291 95.7204" stroke="#242E49" stroke-width="4"/>
<path d="M655.578 214.287L670.399 214.287C675.31 214.287 679.291 210.305 679.291 205.394L679.291 190.573" stroke="#242E49" stroke-width="4"/>
<path d="M655.578 309.14L670.399 309.14C675.31 309.14 679.291 305.158 679.291 300.247L679.291 285.426" stroke="#242E49" stroke-width="4"/>
<path d="M655.578 403.993L670.399 403.993C675.31 403.993 679.291 400.012 679.291 395.1L679.291 380.28" stroke="#242E49" stroke-width="4"/>
<path d="M756.359 119.434L771.18 119.434C776.091 119.434 780.073 115.452 780.073 110.541L780.073 95.7204" stroke="#242E49" stroke-width="4"/>
<path d="M756.359 214.287L771.18 214.287C776.091 214.287 780.073 210.305 780.073 205.394L780.073 190.573" stroke="#242E49" stroke-width="4"/>
<path d="M756.359 309.14L771.18 309.14C776.091 309.14 780.073 305.158 780.073 300.247L780.073 285.426" stroke="#242E49" stroke-width="4"/>
<path d="M756.359 403.993L771.18 403.993C776.091 403.993 780.073 400.012 780.073 395.1L780.073 380.28" stroke="#242E49" stroke-width="4"/>
<path d="M427.338 166.86H442.159C447.07 166.86 451.051 170.842 451.051 175.753V190.573" stroke="#242E49" stroke-width="4"/>
<path d="M427.338 261.713H442.159C447.07 261.713 451.051 265.695 451.051 270.606V285.427" stroke="#242E49" stroke-width="4"/>
<path d="M427.338 356.566H442.159C447.07 356.566 451.051 360.548 451.051 365.459V380.28" stroke="#242E49" stroke-width="4"/>
<path d="M427.338 451.419H442.159C447.07 451.419 451.051 455.401 451.051 460.312V475.133" stroke="#242E49" stroke-width="4"/>
<path d="M474.766 166.86L459.945 166.86C455.034 166.86 451.052 162.879 451.052 157.968L451.052 143.147" stroke="#242E49" stroke-width="4"/>
<path d="M474.766 261.713L459.945 261.713C455.034 261.713 451.052 257.732 451.052 252.821L451.052 238" stroke="#242E49" stroke-width="4"/>
<path d="M474.766 356.566L459.945 356.566C455.034 356.566 451.052 352.585 451.052 347.674L451.052 332.853" stroke="#242E49" stroke-width="4"/>
<path d="M474.766 451.419L459.945 451.419C455.034 451.419 451.052 447.438 451.052 442.527L451.052 427.706" stroke="#242E49" stroke-width="4"/>
<path d="M525.156 166.86H510.335C505.424 166.86 501.443 170.842 501.443 175.753V190.573" stroke="#242E49" stroke-width="4"/>
<path d="M525.156 261.713H510.335C505.424 261.713 501.443 265.695 501.443 270.606V285.427" stroke="#242E49" stroke-width="4"/>
<path d="M525.156 356.566H510.335C505.424 356.566 501.443 360.548 501.443 365.459V380.28" stroke="#242E49" stroke-width="4"/>
<path d="M525.156 451.419H510.335C505.424 451.419 501.443 455.401 501.443 460.312V475.133" stroke="#242E49" stroke-width="4"/>
<path d="M477.729 166.86L492.549 166.86C497.46 166.86 501.442 162.879 501.442 157.968L501.442 143.147" stroke="#242E49" stroke-width="4"/>
<path d="M477.729 261.713L492.549 261.713C497.46 261.713 501.442 257.732 501.442 252.821L501.442 238" stroke="#242E49" stroke-width="4"/>
<path d="M477.729 356.566L492.549 356.566C497.46 356.566 501.442 352.585 501.442 347.674L501.442 332.853" stroke="#242E49" stroke-width="4"/>
<path d="M477.729 451.419L492.549 451.419C497.46 451.419 501.442 447.438 501.442 442.527L501.442 427.706" stroke="#242E49" stroke-width="4"/>
<path d="M528.119 166.86H542.94C547.851 166.86 551.832 170.842 551.832 175.753V190.573" stroke="#242E49" stroke-width="4"/>
<path d="M528.119 261.713H542.94C547.851 261.713 551.832 265.695 551.832 270.606V285.427" stroke="#242E49" stroke-width="4"/>
<path d="M528.119 356.566H542.94C547.851 356.566 551.832 360.548 551.832 365.459V380.28" stroke="#242E49" stroke-width="4"/>
<path d="M528.119 451.419H542.94C547.851 451.419 551.832 455.401 551.832 460.312V475.133" stroke="#242E49" stroke-width="4"/>
<path d="M628.9 166.86H643.721C648.632 166.86 652.614 170.842 652.614 175.753V190.573" stroke="#242E49" stroke-width="4"/>
<path d="M628.9 261.713H643.721C648.632 261.713 652.614 265.695 652.614 270.606V285.427" stroke="#242E49" stroke-width="4"/>
<path d="M628.9 356.566H643.721C648.632 356.566 652.614 360.548 652.614 365.459V380.28" stroke="#242E49" stroke-width="4"/>
<path d="M628.9 451.419H643.721C648.632 451.419 652.614 455.401 652.614 460.312V475.133" stroke="#242E49" stroke-width="4"/>
<path d="M729.682 166.86H744.502C749.414 166.86 753.395 170.842 753.395 175.753V190.573" stroke="#242E49" stroke-width="4"/>
<path d="M729.682 261.713H744.502C749.414 261.713 753.395 265.695 753.395 270.606V285.427" stroke="#242E49" stroke-width="4"/>
<path d="M729.682 356.566H744.502C749.414 356.566 753.395 360.548 753.395 365.459V380.28" stroke="#242E49" stroke-width="4"/>
<path d="M729.682 451.419H744.502C749.414 451.419 753.395 455.401 753.395 460.312V475.133" stroke="#242E49" stroke-width="4"/>
<path d="M575.547 166.86L560.726 166.86C555.815 166.86 551.834 162.879 551.834 157.968L551.834 143.147" stroke="#242E49" stroke-width="4"/>
<path d="M575.547 261.713L560.726 261.713C555.815 261.713 551.834 257.732 551.834 252.821L551.834 238" stroke="#242E49" stroke-width="4"/>
<path d="M575.547 356.566L560.726 356.566C555.815 356.566 551.834 352.585 551.834 347.674L551.834 332.853" stroke="#242E49" stroke-width="4"/>
<path d="M575.547 451.419L560.726 451.419C555.815 451.419 551.834 447.438 551.834 442.527L551.834 427.706" stroke="#242E49" stroke-width="4"/>
<path d="M676.328 166.86L661.507 166.86C656.596 166.86 652.615 162.879 652.615 157.968L652.615 143.147" stroke="#242E49" stroke-width="4"/>
<path d="M676.328 261.713L661.507 261.713C656.596 261.713 652.615 257.732 652.615 252.821L652.615 238" stroke="#242E49" stroke-width="4"/>
<path d="M676.328 356.566L661.507 356.566C656.596 356.566 652.615 352.585 652.615 347.674L652.615 332.853" stroke="#242E49" stroke-width="4"/>
<path d="M676.328 451.419L661.507 451.419C656.596 451.419 652.615 447.438 652.615 442.527L652.615 427.706" stroke="#242E49" stroke-width="4"/>
<path d="M777.109 166.86L762.289 166.86C757.377 166.86 753.396 162.879 753.396 157.968L753.396 143.147" stroke="#242E49" stroke-width="4"/>
<path d="M777.109 261.713L762.289 261.713C757.377 261.713 753.396 257.732 753.396 252.821L753.396 238" stroke="#242E49" stroke-width="4"/>
<path d="M777.109 356.566L762.289 356.566C757.377 356.566 753.396 352.585 753.396 347.674L753.396 332.853" stroke="#242E49" stroke-width="4"/>
<path d="M777.109 451.419L762.289 451.419C757.377 451.419 753.396 447.438 753.396 442.527L753.396 427.706" stroke="#242E49" stroke-width="4"/>
<path d="M625.938 166.86H611.117C606.206 166.86 602.224 170.842 602.224 175.753V190.573" stroke="#242E49" stroke-width="4"/>
<path d="M625.938 261.713H611.117C606.206 261.713 602.224 265.695 602.224 270.606V285.427" stroke="#242E49" stroke-width="4"/>
<path d="M625.938 356.566H611.117C606.206 356.566 602.224 360.548 602.224 365.459V380.28" stroke="#242E49" stroke-width="4"/>
<path d="M625.938 451.419H611.117C606.206 451.419 602.224 455.401 602.224 460.312V475.133" stroke="#242E49" stroke-width="4"/>
<path d="M726.719 166.86H711.898C706.987 166.86 703.005 170.842 703.005 175.753V190.573" stroke="#242E49" stroke-width="4"/>
<path d="M726.719 261.713H711.898C706.987 261.713 703.005 265.695 703.005 270.606V285.427" stroke="#242E49" stroke-width="4"/>
<path d="M726.719 356.566H711.898C706.987 356.566 703.005 360.548 703.005 365.459V380.28" stroke="#242E49" stroke-width="4"/>
<path d="M726.719 451.419H711.898C706.987 451.419 703.005 455.401 703.005 460.312V475.133" stroke="#242E49" stroke-width="4"/>
<path d="M827.5 166.86H812.679C807.768 166.86 803.787 170.842 803.787 175.753V190.573" stroke="#242E49" stroke-width="4"/>
<path d="M827.5 261.713H812.679C807.768 261.713 803.787 265.695 803.787 270.606V285.427" stroke="#242E49" stroke-width="4"/>
<path d="M827.5 356.566H812.679C807.768 356.566 803.787 360.548 803.787 365.459V380.28" stroke="#242E49" stroke-width="4"/>
<path d="M827.5 451.419H812.679C807.768 451.419 803.787 455.401 803.787 460.312V475.133" stroke="#242E49" stroke-width="4"/>
<path d="M578.51 166.86L593.331 166.86C598.242 166.86 602.223 162.879 602.223 157.968L602.223 143.147" stroke="#242E49" stroke-width="4"/>
<path d="M578.51 261.713L593.331 261.713C598.242 261.713 602.223 257.732 602.223 252.821L602.223 238" stroke="#242E49" stroke-width="4"/>
<path d="M578.51 356.566L593.331 356.566C598.242 356.566 602.223 352.585 602.223 347.674L602.223 332.853" stroke="#242E49" stroke-width="4"/>
<path d="M578.51 451.419L593.331 451.419C598.242 451.419 602.223 447.438 602.223 442.527L602.223 427.706" stroke="#242E49" stroke-width="4"/>
<path d="M679.291 166.86L694.112 166.86C699.023 166.86 703.004 162.879 703.004 157.968L703.004 143.147" stroke="#242E49" stroke-width="4"/>
<path d="M679.291 261.713L694.112 261.713C699.023 261.713 703.004 257.732 703.004 252.821L703.004 238" stroke="#242E49" stroke-width="4"/>
<path d="M679.291 356.566L694.112 356.566C699.023 356.566 703.004 352.585 703.004 347.674L703.004 332.853" stroke="#242E49" stroke-width="4"/>
<path d="M679.291 451.419L694.112 451.419C699.023 451.419 703.004 447.438 703.004 442.527L703.004 427.706" stroke="#242E49" stroke-width="4"/>
<path d="M780.072 166.86L794.893 166.86C799.804 166.86 803.786 162.879 803.786 157.968L803.786 143.147" stroke="#242E49" stroke-width="4"/>
<path d="M780.072 261.713L794.893 261.713C799.804 261.713 803.786 257.732 803.786 252.821L803.786 238" stroke="#242E49" stroke-width="4"/>
<path d="M780.072 356.566L794.893 356.566C799.804 356.566 803.786 352.585 803.786 347.674L803.786 332.853" stroke="#242E49" stroke-width="4"/>
<path d="M780.072 451.419L794.893 451.419C799.804 451.419 803.786 447.438 803.786 442.527L803.786 427.706" stroke="#242E49" stroke-width="4"/>
</svg>
