<svg width="95" height="32" viewBox="0 0 95 32" fill="none" xmlns="http://www.w3.org/2000/svg">
<path d="M40.6539 17.1849C40.6539 21.684 37.1342 24.9993 32.8147 24.9993C28.4953 24.9993 24.9756 21.684 24.9756 17.1849C24.9756 12.654 28.4953 9.37036 32.8147 9.37036C37.1342 9.37036 40.6539 12.654 40.6539 17.1849ZM37.2223 17.1849C37.2223 14.3733 35.1823 12.4497 32.8147 12.4497C30.4471 12.4497 28.4072 14.3733 28.4072 17.1849C28.4072 19.9682 30.4471 21.9201 32.8147 21.9201C35.1823 21.9201 37.2223 19.9647 37.2223 17.1849Z" fill="#EDF5FF"/>
<path d="M57.567 17.1849C57.567 21.684 54.0473 24.9993 49.7278 24.9993C45.4084 24.9993 41.8887 21.684 41.8887 17.1849C41.8887 12.6575 45.4084 9.37036 49.7278 9.37036C54.0473 9.37036 57.567 12.654 57.567 17.1849ZM54.1354 17.1849C54.1354 14.3733 52.0954 12.4497 49.7278 12.4497C47.3602 12.4497 45.3203 14.3733 45.3203 17.1849C45.3203 19.9682 47.3602 21.9201 49.7278 21.9201C52.0954 21.9201 54.1354 19.9647 54.1354 17.1849Z" fill="#EDF5FF"/>
<path d="M73.7717 9.84247V23.8719C73.7717 29.6429 70.3683 32 66.3448 32C62.5573 32 60.2778 29.4668 59.4181 27.3951L62.4058 26.1514C62.9378 27.4233 64.2414 28.9242 66.3413 28.9242C68.9167 28.9242 70.5128 27.3352 70.5128 24.344V23.2201H70.393C69.6249 24.1679 68.1452 24.9958 66.2778 24.9958C62.3706 24.9958 58.791 21.5924 58.791 17.213C58.791 12.802 62.3706 9.37036 66.2778 9.37036C68.1416 9.37036 69.6214 10.1983 70.393 11.1179H70.5128V9.84599H73.7717V9.84247ZM70.7559 17.213C70.7559 14.4614 68.9203 12.4497 66.5844 12.4497C64.2168 12.4497 62.2332 14.4614 62.2332 17.213C62.2332 19.9365 64.2168 21.9201 66.5844 21.9201C68.9203 21.9201 70.7559 19.9365 70.7559 17.213Z" fill="#EDF5FF"/>
<path d="M79.1459 1.61938V24.5203H75.7988V1.61938H79.1459Z" fill="#EDF5FF"/>
<path d="M92.1889 19.7574L94.8524 21.5331C93.9927 22.805 91.9211 24.9964 88.3415 24.9964C83.9023 24.9964 80.5869 21.5648 80.5869 17.1819C80.5869 12.5348 83.9304 9.36743 87.9575 9.36743C92.0127 9.36743 93.9963 12.5947 94.6445 14.3387L95.0004 15.2265L84.5541 19.553C85.3538 21.1209 86.5975 21.9206 88.3415 21.9206C90.089 21.9206 91.301 21.061 92.1889 19.7574ZM83.9903 16.9459L90.9733 14.0463C90.5893 13.0703 89.4337 12.3903 88.0737 12.3903C86.3298 12.3903 83.9023 13.93 83.9903 16.9459Z" fill="#EDF5FF"/>
<path d="M12.3066 15.1521V11.8367H23.4787C23.5879 12.4145 23.6443 13.098 23.6443 13.8379C23.6443 16.3253 22.9643 19.4011 20.7729 21.5925C18.6413 23.8121 15.9179 24.9959 12.3101 24.9959C5.62305 24.9959 0 19.549 0 12.862C0 6.17492 5.62305 0.728027 12.3101 0.728027C16.0095 0.728027 18.6449 2.17959 20.6249 4.07156L18.2855 6.41097C16.8656 5.0792 14.942 4.04337 12.3066 4.04337C7.42341 4.04337 3.60425 7.9788 3.60425 12.862C3.60425 17.7452 7.42341 21.6806 12.3066 21.6806C15.474 21.6806 17.2778 20.4087 18.4335 19.2531C19.3706 18.3159 19.9872 16.9771 20.2303 15.1485L12.3066 15.1521Z" fill="#EDF5FF"/>
</svg>
