<svg width="32" height="32" viewBox="0 0 32 32" fill="none" xmlns="http://www.w3.org/2000/svg">
<path fill-rule="evenodd" clip-rule="evenodd" d="M16 4C12.7408 4 12.3328 4.0136 11.0528 4.072C9.7752 4.1304 8.9024 4.3336 8.1392 4.6304C7.3392 4.9312 6.6136 5.4032 6.0136 6.0144C5.40338 6.61371 4.93109 7.3388 4.6296 8.1392C4.3344 8.9024 4.1304 9.776 4.072 11.0536C4.0144 12.3328 4 12.74 4 16C4 19.26 4.0136 19.6672 4.072 20.9472C4.1304 22.2248 4.3336 23.0976 4.6304 23.8608C4.9312 24.6608 5.4032 25.3864 6.0144 25.9864C6.61372 26.5966 7.33881 27.0689 8.1392 27.3704C8.9024 27.6664 9.7752 27.8696 11.0528 27.928C12.3328 27.9864 12.7408 28 16 28C19.2592 28 19.6672 27.9864 20.9472 27.928C22.2248 27.8696 23.0976 27.6664 23.8608 27.3696C24.6608 27.0688 25.3864 26.5968 25.9864 25.9856C26.5966 25.3863 27.0689 24.6612 27.3704 23.8608C27.6664 23.0976 27.8696 22.2248 27.928 20.9472C27.9864 19.6672 28 19.2592 28 16C28 12.7408 27.9864 12.3328 27.928 11.0528C27.8696 9.7752 27.6664 8.9024 27.3696 8.1392C27.0683 7.33845 26.596 6.61306 25.9856 6.0136C25.3863 5.40338 24.6612 4.93109 23.8608 4.6296C23.0976 4.3344 22.224 4.1304 20.9464 4.072C19.6672 4.0144 19.26 4 16 4ZM16 6.1624C19.204 6.1624 19.584 6.1744 20.8496 6.232C22.0192 6.2856 22.6544 6.48 23.0776 6.6456C23.6376 6.8624 24.0376 7.1232 24.4576 7.5424C24.8776 7.9624 25.1376 8.3624 25.3544 8.9224C25.5192 9.3456 25.7144 9.9808 25.768 11.1504C25.8256 12.416 25.8376 12.796 25.8376 16C25.8376 19.204 25.8256 19.584 25.768 20.8496C25.7144 22.0192 25.52 22.6544 25.3544 23.0776C25.1623 23.5988 24.8559 24.0704 24.4576 24.4576C24.0705 24.856 23.5989 25.1624 23.0776 25.3544C22.6544 25.5192 22.0192 25.7144 20.8496 25.768C19.584 25.8256 19.2048 25.8376 16 25.8376C12.7952 25.8376 12.416 25.8256 11.1504 25.768C9.9808 25.7144 9.3456 25.52 8.9224 25.3544C8.40116 25.1623 7.92961 24.8559 7.5424 24.4576C7.14414 24.0704 6.8377 23.5988 6.6456 23.0776C6.4808 22.6544 6.2856 22.0192 6.232 20.8496C6.1744 19.584 6.1624 19.204 6.1624 16C6.1624 12.796 6.1744 12.416 6.232 11.1504C6.2856 9.9808 6.48 9.3456 6.6456 8.9224C6.8624 8.3624 7.1232 7.9624 7.5424 7.5424C7.92955 7.14404 8.40113 6.83758 8.9224 6.6456C9.3456 6.4808 9.9808 6.2856 11.1504 6.232C12.416 6.1744 12.796 6.1624 16 6.1624Z" fill="#F2F5F9"/>
<path fill-rule="evenodd" clip-rule="evenodd" d="M16 20.0042C15.4742 20.0042 14.9536 19.9006 14.4678 19.6994C13.982 19.4982 13.5406 19.2033 13.1688 18.8315C12.797 18.4597 12.502 18.0183 12.3008 17.5325C12.0996 17.0467 11.996 16.526 11.996 16.0002C11.996 15.4744 12.0996 14.9537 12.3008 14.4679C12.502 13.9822 12.797 13.5408 13.1688 13.169C13.5406 12.7971 13.982 12.5022 14.4678 12.301C14.9536 12.0998 15.4742 11.9962 16 11.9962C17.062 11.9962 18.0804 12.4181 18.8313 13.169C19.5822 13.9198 20.004 14.9383 20.004 16.0002C20.004 17.0621 19.5822 18.0806 18.8313 18.8315C18.0804 19.5824 17.062 20.0042 16 20.0042ZM16 9.83221C14.3642 9.83221 12.7953 10.482 11.6386 11.6388C10.4819 12.7955 9.83203 14.3644 9.83203 16.0002C9.83203 17.6361 10.4819 19.2049 11.6386 20.3616C12.7953 21.5184 14.3642 22.1682 16 22.1682C17.6359 22.1682 19.2047 21.5184 20.3615 20.3616C21.5182 19.2049 22.168 17.6361 22.168 16.0002C22.168 14.3644 21.5182 12.7955 20.3615 11.6388C19.2047 10.482 17.6359 9.83221 16 9.83221ZM23.9624 9.72021C23.9624 10.1069 23.8088 10.4777 23.5354 10.7512C23.262 11.0246 22.8911 11.1782 22.5044 11.1782C22.1177 11.1782 21.7469 11.0246 21.4735 10.7512C21.2 10.4777 21.0464 10.1069 21.0464 9.72021C21.0464 9.33352 21.2 8.96267 21.4735 8.68925C21.7469 8.41582 22.1177 8.26221 22.5044 8.26221C22.8911 8.26221 23.262 8.41582 23.5354 8.68925C23.8088 8.96267 23.9624 9.33352 23.9624 9.72021Z" fill="#F2F5F9"/>
</svg>
