<svg width="32" height="33" viewBox="0 0 32 33" fill="none" xmlns="http://www.w3.org/2000/svg">
<path d="M28 6.60943V27.08C28 27.548 27.8141 27.9969 27.4831 28.3279C27.1522 28.6588 26.7033 28.8447 26.2353 28.8447H5.76471C5.29668 28.8447 4.84782 28.6588 4.51687 28.3279C4.18592 27.9969 4 27.548 4 27.08V6.60943C4 6.1414 4.18592 5.69254 4.51687 5.3616C4.84782 5.03065 5.29668 4.84473 5.76471 4.84473H26.2353C26.7033 4.84473 27.1522 5.03065 27.4831 5.3616C27.8141 5.69254 28 6.1414 28 6.60943ZM11.0588 14.0212H7.52941V25.3153H11.0588V14.0212ZM11.3765 10.1388C11.3783 9.87187 11.3276 9.60715 11.2271 9.35979C11.1267 9.11243 10.9785 8.88728 10.791 8.69719C10.6036 8.5071 10.3805 8.3558 10.1346 8.25192C9.88861 8.14805 9.62462 8.09363 9.35765 8.09179H9.29412C8.7512 8.09179 8.23053 8.30746 7.84663 8.69136C7.46273 9.07525 7.24706 9.59593 7.24706 10.1388C7.24706 10.6818 7.46273 11.2024 7.84663 11.5863C8.23053 11.9702 8.7512 12.1859 9.29412 12.1859C9.56111 12.1925 9.82678 12.1464 10.0759 12.0502C10.3251 11.9541 10.5529 11.8098 10.7463 11.6256C10.9396 11.4414 11.0948 11.2209 11.203 10.9767C11.3111 10.7325 11.3701 10.4694 11.3765 10.2024V10.1388ZM24.4706 18.4541C24.4706 15.0588 22.3106 13.7388 20.1647 13.7388C19.4621 13.7037 18.7626 13.8533 18.1358 14.1729C17.5091 14.4924 16.9771 14.9707 16.5929 15.56H16.4941V14.0212H13.1765V25.3153H16.7059V19.3083C16.6549 18.693 16.8487 18.0825 17.2452 17.6094C17.6417 17.1362 18.2089 16.8386 18.8235 16.7812H18.9576C20.08 16.7812 20.9129 17.4871 20.9129 19.2659V25.3153H24.4424L24.4706 18.4541Z" fill="#9EA7B8"/>
</svg>
