<svg width="32" height="33" viewBox="0 0 32 33" fill="none" xmlns="http://www.w3.org/2000/svg">
<path fill-rule="evenodd" clip-rule="evenodd" d="M26.3895 8.06434C27.5362 8.37242 28.4434 9.27958 28.7515 10.4263C29.3163 12.5145 29.3334 16.8448 29.3334 16.8448C29.3334 16.8448 29.3334 21.1923 28.7686 23.2633C28.4605 24.4101 27.5534 25.3172 26.4066 25.6253C24.3356 26.1901 16.0001 26.1901 16.0001 26.1901C16.0001 26.1901 7.66461 26.1901 5.59358 25.6253C4.44681 25.3172 3.53966 24.4101 3.23158 23.2633C2.66675 21.1752 2.66675 16.8448 2.66675 16.8448C2.66675 16.8448 2.66675 12.5145 3.21446 10.4435C3.52255 9.29669 4.42969 8.38954 5.57646 8.08146C7.64749 7.51662 15.983 7.49951 15.983 7.49951C15.983 7.49951 24.3184 7.49951 26.3895 8.06434ZM20.2448 16.8448L13.33 20.85V12.8397L20.2448 16.8448Z" fill="#9EA7B8"/>
</svg>
