<svg width="32" height="33" viewBox="0 0 32 33" fill="none" xmlns="http://www.w3.org/2000/svg">
<path fill-rule="evenodd" clip-rule="evenodd" d="M16 4.84473C12.7408 4.84473 12.3328 4.85833 11.0528 4.91673C9.7752 4.97513 8.9024 5.17833 8.1392 5.47513C7.3392 5.77593 6.6136 6.24793 6.0136 6.85913C5.40338 7.45843 4.93109 8.18352 4.6296 8.98393C4.3344 9.74713 4.1304 10.6207 4.072 11.8983C4.0144 13.1775 4 13.5847 4 16.8447C4 20.1047 4.0136 20.5119 4.072 21.7919C4.1304 23.0695 4.3336 23.9423 4.6304 24.7055C4.9312 25.5055 5.4032 26.2311 6.0144 26.8311C6.61372 27.4413 7.33881 27.9136 8.1392 28.2151C8.9024 28.5111 9.7752 28.7143 11.0528 28.7727C12.3328 28.8311 12.7408 28.8447 16 28.8447C19.2592 28.8447 19.6672 28.8311 20.9472 28.7727C22.2248 28.7143 23.0976 28.5111 23.8608 28.2143C24.6608 27.9135 25.3864 27.4415 25.9864 26.8303C26.5966 26.231 27.0689 25.5059 27.3704 24.7055C27.6664 23.9423 27.8696 23.0695 27.928 21.7919C27.9864 20.5119 28 20.1039 28 16.8447C28 13.5855 27.9864 13.1775 27.928 11.8975C27.8696 10.6199 27.6664 9.74713 27.3696 8.98393C27.0683 8.18318 26.596 7.45778 25.9856 6.85833C25.3863 6.2481 24.6612 5.77581 23.8608 5.47433C23.0976 5.17913 22.224 4.97513 20.9464 4.91673C19.6672 4.85913 19.26 4.84473 16 4.84473ZM16 7.00713C19.204 7.00713 19.584 7.01913 20.8496 7.07673C22.0192 7.13033 22.6544 7.32473 23.0776 7.49033C23.6376 7.70713 24.0376 7.96793 24.4576 8.38713C24.8776 8.80713 25.1376 9.20713 25.3544 9.76713C25.5192 10.1903 25.7144 10.8255 25.768 11.9951C25.8256 13.2607 25.8376 13.6407 25.8376 16.8447C25.8376 20.0487 25.8256 20.4287 25.768 21.6943C25.7144 22.8639 25.52 23.4991 25.3544 23.9223C25.1623 24.4436 24.8559 24.9151 24.4576 25.3023C24.0705 25.7007 23.5989 26.0072 23.0776 26.1991C22.6544 26.3639 22.0192 26.5591 20.8496 26.6127C19.584 26.6703 19.2048 26.6823 16 26.6823C12.7952 26.6823 12.416 26.6703 11.1504 26.6127C9.9808 26.5591 9.3456 26.3647 8.9224 26.1991C8.40116 26.0071 7.92961 25.7006 7.5424 25.3023C7.14414 24.9151 6.8377 24.4435 6.6456 23.9223C6.4808 23.4991 6.2856 22.8639 6.232 21.6943C6.1744 20.4287 6.1624 20.0487 6.1624 16.8447C6.1624 13.6407 6.1744 13.2607 6.232 11.9951C6.2856 10.8255 6.48 10.1903 6.6456 9.76713C6.8624 9.20713 7.1232 8.80713 7.5424 8.38713C7.92955 7.98876 8.40113 7.68231 8.9224 7.49033C9.3456 7.32553 9.9808 7.13033 11.1504 7.07673C12.416 7.01913 12.796 7.00713 16 7.00713Z" fill="#9EA7B8"/>
<path fill-rule="evenodd" clip-rule="evenodd" d="M16 20.8489C15.4742 20.8489 14.9536 20.7454 14.4678 20.5441C13.982 20.3429 13.5406 20.048 13.1688 19.6762C12.797 19.3044 12.502 18.863 12.3008 18.3772C12.0996 17.8914 11.996 17.3707 11.996 16.8449C11.996 16.3191 12.0996 15.7985 12.3008 15.3127C12.502 14.8269 12.797 14.3855 13.1688 14.0137C13.5406 13.6419 13.982 13.3469 14.4678 13.1457C14.9536 12.9445 15.4742 12.8409 16 12.8409C17.062 12.8409 18.0804 13.2628 18.8313 14.0137C19.5822 14.7646 20.004 15.783 20.004 16.8449C20.004 17.9069 19.5822 18.9253 18.8313 19.6762C18.0804 20.4271 17.062 20.8489 16 20.8489ZM16 10.6769C14.3642 10.6769 12.7953 11.3268 11.6386 12.4835C10.4819 13.6402 9.83203 15.2091 9.83203 16.8449C9.83203 18.4808 10.4819 20.0496 11.6386 21.2064C12.7953 22.3631 14.3642 23.0129 16 23.0129C17.6359 23.0129 19.2047 22.3631 20.3615 21.2064C21.5182 20.0496 22.168 18.4808 22.168 16.8449C22.168 15.2091 21.5182 13.6402 20.3615 12.4835C19.2047 11.3268 17.6359 10.6769 16 10.6769ZM23.9624 10.5649C23.9624 10.9516 23.8088 11.3225 23.5354 11.5959C23.262 11.8693 22.8911 12.0229 22.5044 12.0229C22.1177 12.0229 21.7469 11.8693 21.4735 11.5959C21.2 11.3225 21.0464 10.9516 21.0464 10.5649C21.0464 10.1782 21.2 9.8074 21.4735 9.53397C21.7469 9.26054 22.1177 9.10693 22.5044 9.10693C22.8911 9.10693 23.262 9.26054 23.5354 9.53397C23.8088 9.8074 23.9624 10.1782 23.9624 10.5649Z" fill="#9EA7B8"/>
</svg>
