<svg width="32" height="32" viewBox="0 0 32 32" fill="none" xmlns="http://www.w3.org/2000/svg">
<path fill-rule="evenodd" clip-rule="evenodd" d="M26.3887 7.21961C27.5355 7.52769 28.4427 8.43485 28.7507 9.58161C29.3156 11.6698 29.3327 16.0001 29.3327 16.0001C29.3327 16.0001 29.3327 20.3476 28.7679 22.4186C28.4598 23.5654 27.5526 24.4725 26.4059 24.7806C24.3348 25.3454 15.9993 25.3454 15.9993 25.3454C15.9993 25.3454 7.66388 25.3454 5.59285 24.7806C4.44607 24.4725 3.53893 23.5654 3.23084 22.4186C2.66602 20.3304 2.66602 16.0001 2.66602 16.0001C2.66602 16.0001 2.66602 11.6698 3.21373 9.59873C3.52181 8.45196 4.42896 7.54482 5.57573 7.23673C7.64676 6.6719 15.9822 6.65479 15.9822 6.65479C15.9822 6.65479 24.3177 6.65479 26.3887 7.21961ZM20.2441 16.0001L13.3293 20.0052V11.995L20.2441 16.0001Z" fill="#F2F5F9"/>
</svg>
