<svg width="113" height="38" viewBox="0 0 113 38" fill="none" xmlns="http://www.w3.org/2000/svg">
<g filter="url(#filter0_ii_2_3551)">
<path d="M0.00245331 18.2764C0.00245331 15.8093 0.00952929 13.3423 9.6376e-05 10.8729C-0.00697831 9.02553 0.375054 7.27206 1.2759 5.65709C3.03985 2.49991 5.73767 0.647865 9.32453 0.0938923C9.78203 0.023472 10.2466 0 10.7112 0C15.18 0.00234734 19.6489 -0.00235221 24.1201 0.00234247C29.2304 0.00703716 33.6685 3.67359 34.626 8.67108C34.758 9.3659 34.8288 10.0654 34.8288 10.772C34.8288 15.8047 34.8335 20.8374 34.8288 25.8677C34.8241 30.7995 31.5721 35.0106 26.7919 36.2805C25.9383 36.5082 25.0704 36.6256 24.1861 36.6256C19.6677 36.6256 15.1494 36.6303 10.631 36.6232C5.68343 36.6162 1.25939 33.0271 0.245351 28.2104C0.0708417 27.3864 0.00245331 26.5531 0.00245331 25.7128C0.00481154 23.2363 0.00245331 20.7552 0.00245331 18.2764Z" fill="#51B7B7"/>
</g>
<path d="M79.4463 17.6332C78.1375 15.4032 76.2274 14.1169 73.5602 14.1427C72.0533 14.1591 70.7539 14.7014 69.6715 15.7506C69.6078 15.8117 69.5677 15.9197 69.4286 15.9032C69.4286 15.5488 69.4239 15.199 69.4309 14.8493C69.4357 14.6756 69.3743 14.6098 69.1998 14.6145C68.7966 14.6239 68.3933 14.6169 67.9901 14.6169C67.1105 14.6169 66.2308 14.6145 65.3536 14.6169C65.0517 14.6192 65.0517 14.6239 65.047 14.9267C65.0446 14.9619 65.047 14.9995 65.047 15.0347V37.5668C65.047 37.6631 65.0446 37.7617 65.0517 37.8579C65.0564 37.9424 65.1036 37.9917 65.1909 37.994C65.2875 37.9987 65.3866 37.9987 65.4833 37.9987H68.9994C69.4687 37.9987 69.4286 38.0457 69.4286 37.5645V28.4944C69.5795 28.5155 69.6172 28.6164 69.6738 28.6845C69.9898 29.0624 70.3672 29.3676 70.7916 29.6164C72.0769 30.3605 73.4588 30.5107 74.895 30.2361C76.7037 29.8887 78.0927 28.9028 79.1162 27.3958C79.9534 26.1634 80.4108 24.7949 80.5783 23.3208C80.807 21.3044 80.4769 19.389 79.4463 17.6332ZM75.0577 25.356C73.6333 26.978 71.3199 26.877 69.9851 25.1635C68.6244 23.4194 68.6716 20.8444 70.1078 19.166C70.7586 18.4078 71.5816 17.9853 72.5745 17.9947C73.7158 17.9877 74.579 18.4806 75.2369 19.335C76.633 21.1472 76.5103 23.7034 75.0577 25.356Z" fill="#1C9FA3"/>
<path d="M50.8318 18.9313C49.9522 16.652 48.2802 15.1779 45.9337 14.4784C44.4928 14.0488 43.019 14.0089 41.5521 14.3164C39.0501 14.8375 37.1871 16.2224 36.1376 18.5651C35.0882 20.9101 35.0764 23.3091 36.0197 25.6893C36.7531 27.5343 38.0714 28.8582 39.899 29.6633C41.0074 30.1539 42.1794 30.3628 43.4977 30.3558C44.1014 30.3698 44.8041 30.2947 45.4951 30.1281C47.8698 29.5577 49.6456 28.215 50.6596 25.985C51.7114 23.6729 51.7421 21.2927 50.8318 18.9313ZM45.7238 25.5132C44.3914 26.8676 42.3304 26.8371 41.0263 25.4545C40.3424 24.7315 39.9603 23.856 39.8401 22.8818C39.6939 21.687 39.9367 20.5627 40.6112 19.5463C42.0049 17.4384 44.9268 17.4524 46.2898 19.6801C46.7685 20.457 47.0138 21.3373 47.0091 22.5955C46.9831 23.5156 46.6035 24.6212 45.7238 25.5132Z" fill="#1C9FA3"/>
<path d="M100.939 19.7738C100.939 21.3043 100.958 22.8371 100.932 24.3676C100.918 25.2854 100.713 26.175 100.343 27.0177C99.6751 28.5411 98.5125 29.52 96.9254 29.9777C95.0789 30.5105 93.2136 30.5176 91.3623 29.9965C89.1904 29.3838 87.9405 27.9027 87.4595 25.7408C87.3062 25.0506 87.2425 24.3488 87.2425 23.6422C87.2425 20.8113 87.2425 17.9781 87.2425 15.1472C87.2425 15.0979 87.2425 15.051 87.2425 15.0017C87.2449 14.6191 87.2448 14.6167 87.6151 14.6167C88.3839 14.6144 89.1527 14.6167 89.9238 14.6167C90.3884 14.6167 90.8506 14.6144 91.3152 14.6167C91.617 14.6191 91.6217 14.6237 91.6217 14.9219C91.6241 16.0157 91.6217 17.1096 91.6217 18.2034C91.6217 19.8208 91.6217 21.4357 91.6217 23.053C91.6217 23.6751 91.6713 24.2901 91.8387 24.891C91.8646 24.9849 91.8929 25.0788 91.926 25.1703C92.3528 26.3698 93.3102 26.7994 94.4611 26.6703C95.3808 26.567 95.9703 26.0459 96.2793 25.1915C96.5363 24.4849 96.5976 23.7455 96.6 23.0038C96.6071 20.3536 96.6023 17.7058 96.6023 15.0557C96.6023 14.5862 96.5481 14.6167 97.0268 14.6167C98.2224 14.6167 99.4204 14.6167 100.616 14.6167C100.951 14.6167 100.956 14.6214 100.956 14.9618C100.956 16.565 100.956 18.1706 100.956 19.7738C100.949 19.7738 100.944 19.7738 100.939 19.7738Z" fill="#1C9FA3"/>
<path d="M85.828 16.7057C85.828 20.9215 85.828 25.1397 85.828 29.3555C85.828 29.4401 85.8186 29.5269 85.8304 29.6114C85.8539 29.8133 85.7525 29.8555 85.5733 29.8555C84.2787 29.8508 82.9863 29.8508 81.6917 29.8555C81.4936 29.8555 81.4299 29.7781 81.4488 29.5973C81.4559 29.5246 81.4488 29.4518 81.4488 29.379C81.4488 20.9333 81.4488 12.4876 81.4488 4.04417C81.4488 3.50428 81.3757 3.56766 81.9416 3.56766C83.1019 3.56531 84.2621 3.56766 85.42 3.56766C85.8775 3.56766 85.8256 3.54888 85.8256 3.98784C85.828 8.22479 85.828 12.4664 85.828 16.7057Z" fill="#1C9FA3"/>
<path d="M110.445 18.2223C110.266 18.0815 110.108 17.9524 109.943 17.8327C109.45 17.4782 108.913 17.2341 108.297 17.1895C107.773 17.1519 107.335 17.3186 106.993 17.7129C106.564 18.2082 106.613 18.8725 107.104 19.3068C107.332 19.511 107.597 19.6636 107.882 19.781C108.535 20.0509 109.193 20.3091 109.846 20.5814C110.297 20.7692 110.728 20.9945 111.136 21.2645C112.16 21.9452 112.761 22.8935 112.936 24.1001C113.056 24.9381 113.013 25.7737 112.759 26.5882C112.226 28.2807 111.07 29.4051 109.412 29.9496C106.578 30.8839 104.076 30.2524 101.949 28.1657C101.88 28.0976 101.824 28.0154 101.753 27.9474C101.654 27.8511 101.67 27.769 101.751 27.6633C102.373 26.8676 102.989 26.0695 103.602 25.2784C103.739 25.2808 103.776 25.3841 103.842 25.4498C104.363 25.9709 104.925 26.4357 105.611 26.7244C106.208 26.9756 106.825 27.1023 107.465 26.9122C108.332 26.654 108.818 25.7596 108.556 24.931C108.467 24.6423 108.29 24.4146 108.059 24.2268C107.743 23.971 107.377 23.7996 107.007 23.6447C106.455 23.417 105.896 23.2034 105.347 22.971C104.863 22.7668 104.404 22.5156 103.981 22.2011C103.088 21.5297 102.621 20.6354 102.541 19.5298C102.46 18.4124 102.635 17.3468 103.222 16.3773C104.019 15.0557 105.22 14.321 106.741 14.1732C108.339 14.0182 109.875 14.3234 111.316 15.0464C111.622 15.1989 111.907 15.3867 112.174 15.6003C112.264 15.6708 112.299 15.7341 112.219 15.8398C111.632 16.6285 111.044 17.4172 110.445 18.2223Z" fill="#1C9FA3"/>
<path d="M63.1322 19.2715C62.9553 19.1142 62.8421 19.0133 62.7266 18.91C61.9507 18.2269 61.0664 17.8114 60.0146 17.7973C58.7931 17.7833 57.7861 18.2527 57.0786 19.2316C55.9349 20.8137 55.7392 22.553 56.4844 24.3441C57.5031 26.7876 60.5146 27.4285 62.5426 25.783C62.7219 25.6374 62.8917 25.4825 63.0638 25.3346C63.1676 25.3745 63.1322 25.459 63.1322 25.5224C63.1346 26.7383 63.1298 27.9519 63.1393 29.1678C63.1416 29.3674 63.0756 29.4706 62.8987 29.5598C62.0592 29.98 61.1725 30.2382 60.241 30.3204C58.2059 30.5035 56.3311 30.0622 54.7039 28.7899C53.1428 27.5693 52.1971 25.959 51.8104 24.0319C51.367 21.8207 51.6925 19.7175 52.8881 17.795C54.1568 15.7599 56.0127 14.5604 58.404 14.2176C59.7977 14.0181 61.1536 14.1472 62.4507 14.7294C62.5733 14.7834 62.6888 14.8561 62.8138 14.9007C63.0638 14.9946 63.1487 15.1542 63.144 15.4289C63.1251 16.2551 63.1369 17.0814 63.1369 17.9077C63.1322 18.3349 63.1322 18.7574 63.1322 19.2715Z" fill="#1C9FA3"/>
<path d="M0.00245331 18.2764C0.00245331 15.8094 0.00952929 13.3423 9.6376e-05 10.8729C-0.00697831 9.02553 0.375054 7.27206 1.2759 5.65709C3.03985 2.49991 5.73767 0.647865 9.32453 0.0938923C9.78203 0.023472 10.2466 0 10.7112 0C15.18 0.00234734 19.6489 -0.00235221 24.1201 0.00234247C29.2304 0.00703716 33.6685 3.67359 34.626 8.67109C34.758 9.3659 34.8288 10.0654 34.8288 10.772C34.8288 15.8047 34.8335 20.8374 34.8288 25.8677C34.8241 30.7995 31.5721 35.0106 26.7919 36.2805C25.9383 36.5082 25.0704 36.6256 24.1861 36.6256C19.6677 36.6256 15.1494 36.6303 10.631 36.6232C5.68343 36.6162 1.25939 33.0271 0.245351 28.2104C0.0708417 27.3864 0.00245331 26.5531 0.00245331 25.7128C0.00481154 23.2363 0.00245331 20.7552 0.00245331 18.2764Z" fill="#1C9FA3"/>
<g filter="url(#filter1_d_2_3551)">
<path fill-rule="evenodd" clip-rule="evenodd" d="M15.8466 7.08234C15.4372 7.08323 15.0278 7.08412 14.6187 7.08412C14.1142 7.08412 13.6098 7.08386 13.1051 7.0836C12.0952 7.08308 11.0847 7.08256 10.0721 7.08412C9.85919 7.08412 9.7635 7.07142 9.72112 7.11302C9.67804 7.1553 9.69002 7.25367 9.69002 7.47847V16.0838C9.69002 16.1158 9.6895 16.1481 9.68898 16.1804C9.68793 16.2454 9.68688 16.3106 9.69002 16.3749C9.6971 16.5017 9.63343 16.5486 9.51316 16.5439C9.45647 16.5423 9.39874 16.5429 9.34135 16.5434C9.3128 16.5436 9.28432 16.5439 9.25611 16.5439H4.71416C4.51057 16.5439 4.41949 16.5391 4.37916 16.5819C4.34007 16.6235 4.34864 16.7099 4.34864 16.889V20.5367C4.34864 20.5571 4.3489 20.5774 4.34916 20.5978C4.34968 20.6385 4.35021 20.6791 4.34864 20.7198C4.34156 20.8278 4.38873 20.8771 4.4972 20.8748C4.55389 20.8732 4.61162 20.8737 4.66901 20.8742C4.69757 20.8745 4.72604 20.8748 4.75425 20.8748H9.37166C9.68999 20.8748 9.69002 20.8794 9.69238 21.1915L9.69238 21.1916V21.3747V29.3252C9.69238 29.556 9.67979 29.6597 9.72539 29.7058C9.7702 29.751 9.87122 29.7407 10.0956 29.7407C10.8032 29.7407 11.5109 29.7405 12.2187 29.7404C14.344 29.7399 16.47 29.7395 18.5947 29.743C19.1701 29.743 19.7432 29.7031 20.3068 29.5998C24.0941 28.9121 27.0018 26.9379 28.9332 23.6188C30.3481 21.1846 30.7561 18.572 30.0746 15.8186C29.5369 13.6426 28.4002 11.8164 26.7447 10.3141C24.4455 8.22493 21.7406 7.11464 18.6112 7.08647C17.6903 7.07834 16.7682 7.08034 15.8466 7.08234ZM17.8779 20.8753C17.6012 20.8751 17.3245 20.8748 17.0478 20.8748H17.0468C16.2288 20.8748 15.4109 20.8748 14.5882 20.8795C14.2462 20.8795 14.2439 20.8795 14.2439 21.2081V25.0718C14.245 25.2427 14.2365 25.3239 14.273 25.3622C14.3106 25.4018 14.3964 25.3958 14.5905 25.3958C14.8629 25.3958 15.1352 25.3954 15.4075 25.395C16.0879 25.3941 16.7683 25.3931 17.4487 25.3981C17.6224 25.3996 17.7959 25.4073 17.9694 25.4151C18.3306 25.4311 18.6922 25.4472 19.057 25.4075C21.71 25.1211 23.7121 23.8348 25.0328 21.5344C25.778 20.2387 26.0444 18.8326 25.7874 17.3514C25.2308 14.1567 22.4057 11.7812 19.2692 11.4479C18.7865 11.3964 18.3065 11.4113 17.8263 11.4261C17.5396 11.4349 17.2527 11.4438 16.9653 11.4385C16.3516 11.4262 15.7379 11.4297 15.1242 11.4332C14.9196 11.4344 14.715 11.4356 14.5103 11.4361C14.2533 11.4385 14.2486 11.4432 14.2486 11.7014C14.2462 13.2225 14.2462 14.7412 14.2486 16.2599C14.2486 16.5438 14.2533 16.544 14.5218 16.551L14.5221 16.551C14.5788 16.5526 14.6366 16.552 14.6939 16.5515C14.7225 16.5513 14.751 16.551 14.7792 16.551C15.3043 16.551 15.8294 16.5507 16.3545 16.5505C17.4047 16.55 18.4549 16.5494 19.5051 16.551C19.7928 16.551 19.7975 16.5557 19.7975 16.8209C19.7998 18.0838 19.7998 19.349 19.7975 20.6119C19.7975 20.8678 19.7928 20.8748 19.5381 20.8748C18.9847 20.8764 18.4313 20.8758 17.8779 20.8753Z" fill="white"/>
</g>
<defs>
<filter id="filter0_ii_2_3551" x="-4" y="-3" width="40.8309" height="43.6271" filterUnits="userSpaceOnUse" color-interpolation-filters="sRGB">
<feFlood flood-opacity="0" result="BackgroundImageFix"/>
<feBlend mode="normal" in="SourceGraphic" in2="BackgroundImageFix" result="shape"/>
<feColorMatrix in="SourceAlpha" type="matrix" values="0 0 0 0 0 0 0 0 0 0 0 0 0 0 0 0 0 0 127 0" result="hardAlpha"/>
<feOffset dx="-6" dy="4"/>
<feGaussianBlur stdDeviation="2"/>
<feComposite in2="hardAlpha" operator="arithmetic" k2="-1" k3="1"/>
<feColorMatrix type="matrix" values="0 0 0 0 1 0 0 0 0 1 0 0 0 0 1 0 0 0 0.25 0"/>
<feBlend mode="normal" in2="shape" result="effect1_innerShadow_2_3551"/>
<feColorMatrix in="SourceAlpha" type="matrix" values="0 0 0 0 0 0 0 0 0 0 0 0 0 0 0 0 0 0 127 0" result="hardAlpha"/>
<feOffset dx="2" dy="-3"/>
<feGaussianBlur stdDeviation="3"/>
<feComposite in2="hardAlpha" operator="arithmetic" k2="-1" k3="1"/>
<feColorMatrix type="matrix" values="0 0 0 0 0 0 0 0 0 0 0 0 0 0 0 0 0 0 0.25 0"/>
<feBlend mode="normal" in2="effect1_innerShadow_2_3551" result="effect2_innerShadow_2_3551"/>
</filter>
<filter id="filter1_d_2_3551" x="2.34784" y="5.08057" width="30.049" height="26.6624" filterUnits="userSpaceOnUse" color-interpolation-filters="sRGB">
<feFlood flood-opacity="0" result="BackgroundImageFix"/>
<feColorMatrix in="SourceAlpha" type="matrix" values="0 0 0 0 0 0 0 0 0 0 0 0 0 0 0 0 0 0 127 0" result="hardAlpha"/>
<feOffset/>
<feGaussianBlur stdDeviation="1"/>
<feComposite in2="hardAlpha" operator="out"/>
<feColorMatrix type="matrix" values="0 0 0 0 0.160784 0 0 0 0 0.447059 0 0 0 0 0.505882 0 0 0 0.32 0"/>
<feBlend mode="normal" in2="BackgroundImageFix" result="effect1_dropShadow_2_3551"/>
<feBlend mode="normal" in="SourceGraphic" in2="effect1_dropShadow_2_3551" result="shape"/>
</filter>
</defs>
</svg>
