<svg width="25" height="24" viewBox="0 0 25 24" fill="none" xmlns="http://www.w3.org/2000/svg">
<path d="M13.334 14H11.334V16H13.334V14Z" fill="#5D6A85"/>
<path fill-rule="evenodd" clip-rule="evenodd" d="M9.83398 2C8.45327 2 7.33398 3.11929 7.33398 4.5L7.33399 8C5.12485 8 3.33398 9.79086 3.33398 12V18C3.33398 20.2091 5.12484 22 7.33398 22H17.334C19.5431 22 21.334 20.2091 21.334 18V12C21.334 9.79086 19.5431 8 17.334 8L17.334 4.5C17.334 3.11929 16.2147 2 14.834 2H9.83398ZM15.334 8V4.5C15.334 4.22386 15.1101 4 14.834 4H9.83398C9.55784 4 9.33398 4.22386 9.33398 4.5V8H15.334ZM9.33398 14C9.33398 12.8954 10.2294 12 11.334 12H13.334C14.4386 12 15.334 12.8954 15.334 14V16C15.334 17.1046 14.4386 18 13.334 18H11.334C10.2294 18 9.33398 17.1046 9.33398 16V14Z" fill="#5D6A85"/>
</svg>
