<svg width="24" height="24" viewBox="0 0 24 24" fill="none" xmlns="http://www.w3.org/2000/svg">
<path fill-rule="evenodd" clip-rule="evenodd" d="M3 17V4H5V17C5 18.1046 5.89543 19 7 19H20V21H7C4.79086 21 3 19.2091 3 17Z" fill="#0F67FE"/>
<path fill-rule="evenodd" clip-rule="evenodd" d="M20.7071 10.7071L17.2678 14.1464C16.2915 15.1228 14.7085 15.1228 13.7322 14.1464L12.3536 12.7678C12.1583 12.5725 11.8417 12.5725 11.6464 12.7678L7.70711 16.7071L6.29289 15.2929L10.2322 11.3536C11.2085 10.3772 12.7915 10.3772 13.7678 11.3536L15.1464 12.7322C15.3417 12.9275 15.6583 12.9275 15.8536 12.7322L19.2929 9.29289L20.7071 10.7071Z" fill="#0F67FE"/>
</svg>
