<svg width="25" height="24" viewBox="0 0 25 24" fill="none" xmlns="http://www.w3.org/2000/svg">
<rect x="5.5" y="5" width="14" height="14" rx="3" stroke="white" stroke-width="2"/>
<path d="M22.5 8L19.5 8" stroke="white" stroke-width="2"/>
<path d="M22.5 16L19.5 16" stroke="white" stroke-width="2"/>
<path d="M5.5 8L2.5 8" stroke="white" stroke-width="2"/>
<path d="M5.5 16L2.5 16" stroke="white" stroke-width="2"/>
<path d="M5.5 12L2.5 12" stroke="white" stroke-width="2"/>
<path d="M22.5 12L19.5 12" stroke="white" stroke-width="2"/>
<path d="M8.5 2L8.5 5" stroke="white" stroke-width="2"/>
<path d="M16.5 2L16.5 5" stroke="white" stroke-width="2"/>
<path d="M12.5 19L12.5 22" stroke="white" stroke-width="2"/>
<path d="M12.5 2L12.5 5" stroke="white" stroke-width="2"/>
<path d="M8.5 19L8.5 22" stroke="white" stroke-width="2"/>
<path d="M16.5 19L16.5 22" stroke="white" stroke-width="2"/>
<path d="M10.5 11.5V12.5C10.5 13.3284 11.1716 14 12 14H13C13.8284 14 14.5 13.3284 14.5 12.5V11.5C14.5 10.6716 13.8284 10 13 10H12C11.1716 10 10.5 10.6716 10.5 11.5Z" stroke="white" stroke-width="2"/>
</svg>
