<svg width="24" height="25" viewBox="0 0 24 25" fill="none" xmlns="http://www.w3.org/2000/svg">
<path d="M4.5 9.75781H7.5C8.32843 9.75781 9 9.08624 9 8.25781V5.25781C9 4.42939 9.67157 3.75781 10.5 3.75781H13.5C14.3284 3.75781 15 4.42939 15 5.25781V8.25781C15 9.08624 15.6716 9.75781 16.5 9.75781H19.5C20.3284 9.75781 21 10.4294 21 11.2578V14.2578C21 15.0862 20.3284 15.7578 19.5 15.7578H16.5C15.6716 15.7578 15 16.4294 15 17.2578V20.2578C15 21.0862 14.3284 21.7578 13.5 21.7578H10.5C9.67157 21.7578 9 21.0862 9 20.2578V17.2578C9 16.4294 8.32843 15.7578 7.5 15.7578H4.5C3.67157 15.7578 3 15.0862 3 14.2578V11.2578C3 10.4294 3.67157 9.75781 4.5 9.75781Z" stroke="#5D6A85" stroke-width="2"/>
</svg>
