<svg width="24" height="25" viewBox="0 0 24 25" fill="none" xmlns="http://www.w3.org/2000/svg">
<path d="M13 12.0351C13.5883 11.6948 14.2714 11.5 15 11.5H16V13.5H15C13.8954 13.5 13 14.3954 13 15.5V16.5H11V15.5C11 14.3954 10.1046 13.5 9 13.5H8V11.5H9C9.72857 11.5 10.4117 11.6948 11 12.0351L11 2.5H13L13 12.0351Z" fill="#0F67FE"/>
<path d="M2 14.5V17.5C2 19.7091 3.79086 21.5 6 21.5H18C20.2091 21.5 22 19.7091 22 17.5V14.5H20V17.5C20 18.6046 19.1046 19.5 18 19.5H6C4.89543 19.5 4 18.6046 4 17.5V14.5H2Z" fill="#0F67FE"/>
<path d="M13 12.0351C13.5883 11.6948 14.2714 11.5 15 11.5H16V13.5H15C13.8954 13.5 13 14.3954 13 15.5V16.5H11V15.5C11 14.3954 10.1046 13.5 9 13.5H8V11.5H9C9.72857 11.5 10.4117 11.6948 11 12.0351L11 2.5H13L13 12.0351Z" stroke="#0F67FE"/>
<path d="M2 14.5V17.5C2 19.7091 3.79086 21.5 6 21.5H18C20.2091 21.5 22 19.7091 22 17.5V14.5H20V17.5C20 18.6046 19.1046 19.5 18 19.5H6C4.89543 19.5 4 18.6046 4 17.5V14.5H2Z" stroke="#0F67FE"/>
</svg>
