<svg width="24" height="24" viewBox="0 0 24 24" fill="none" xmlns="http://www.w3.org/2000/svg">
<path d="M12 10.4142L13.5858 12L12 13.5858L10.4142 12L12 10.4142Z" fill="#242E49"/>
<path fill-rule="evenodd" clip-rule="evenodd" d="M9.17161 4.41422C10.7337 2.85212 13.2664 2.85212 14.8285 4.41422L19.5858 9.17158C21.1479 10.7337 21.1479 13.2663 19.5858 14.8284L12 22.4142L4.41425 14.8284C2.85215 13.2663 2.85215 10.7337 4.41425 9.17158L9.17161 4.41422ZM13.4142 9C12.6332 8.21895 11.3668 8.21895 10.5858 9L9 10.5858C8.21895 11.3668 8.21895 12.6332 9 13.4142L10.5858 15C11.3668 15.781 12.6332 15.781 13.4142 15L15 13.4142C15.781 12.6332 15.781 11.3668 15 10.5858L13.4142 9Z" fill="#242E49"/>
</svg>
