<svg width="24" height="24" viewBox="0 0 24 24" fill="none" xmlns="http://www.w3.org/2000/svg">
<path d="M10.9998 6C10.9998 4.89543 10.1043 4 8.99976 4V2C10.1944 2 11.2668 2.52376 11.9998 3.35418C12.7327 2.52376 13.8051 2 14.9998 2V4C13.8952 4 12.9998 4.89543 12.9998 6V6.523L14.2563 6.0204C16.0791 5.29126 18.1617 5.99283 19.1718 7.67633L20.0917 9.2095C20.7348 10.2814 20.8399 11.5924 20.3756 12.753L18.0658 18.5275C17.2362 20.6016 14.811 21.5237 12.813 20.5246C12.3011 20.2687 11.6985 20.2687 11.1866 20.5246C9.18858 21.5237 6.76342 20.6016 5.93378 18.5275L3.62399 12.753C3.15973 11.5924 3.26477 10.2814 3.90793 9.2095L4.82783 7.67633C5.83793 5.99283 7.92051 5.29126 9.74337 6.0204L10.9998 6.52296V6Z" fill="#5D6A85"/>
</svg>
