<svg width="24" height="25" viewBox="0 0 24 25" fill="none" xmlns="http://www.w3.org/2000/svg">
<rect x="6" y="6.75781" width="12" height="12" rx="3" stroke="#5D6A85" stroke-width="2"/>
<path d="M12 6.75781V4.25781C12 3.42939 12.6716 2.75781 13.5 2.75781H14" stroke="#5D6A85" stroke-width="2"/>
<path d="M12 6.75781V4.25781C12 3.42939 11.3284 2.75781 10.5 2.75781H10" stroke="#5D6A85" stroke-width="2"/>
<path d="M12 18.7578V21.2578C12 22.0862 12.6716 22.7578 13.5 22.7578H14" stroke="#5D6A85" stroke-width="2"/>
<path d="M12 18.7578V21.2578C12 22.0862 11.3284 22.7578 10.5 22.7578H10" stroke="#5D6A85" stroke-width="2"/>
<path d="M6 12.7578L3.5 12.7578C2.67157 12.7578 2 12.0862 2 11.2578L2 10.7578" stroke="#5D6A85" stroke-width="2"/>
<path d="M6 12.7578L3.5 12.7578C2.67157 12.7578 2 13.4294 2 14.2578L2 14.7578" stroke="#5D6A85" stroke-width="2"/>
<path d="M18 12.7578L20.5 12.7578C21.3284 12.7578 22 12.0862 22 11.2578L22 10.7578" stroke="#5D6A85" stroke-width="2"/>
<path d="M18 12.7578L20.5 12.7578C21.3284 12.7578 22 13.4294 22 14.2578L22 14.7578" stroke="#5D6A85" stroke-width="2"/>
<path d="M10 12.2578V13.2578C10 14.0862 10.6716 14.7578 11.5 14.7578H12.5C13.3284 14.7578 14 14.0862 14 13.2578V12.2578C14 11.4294 13.3284 10.7578 12.5 10.7578H11.5C10.6716 10.7578 10 11.4294 10 12.2578Z" stroke="#5D6A85" stroke-width="2"/>
<path d="M17 7.75781L18.4393 6.31847C19.0251 5.73269 19.9749 5.73269 20.5607 6.31847L21 6.75781" stroke="#5D6A85" stroke-width="2"/>
<path d="M17 17.7578L18.4393 19.1972C19.0251 19.7829 19.9749 19.7829 20.5607 19.1972L21 18.7578" stroke="#5D6A85" stroke-width="2"/>
<path d="M17 7.75781L18.4393 6.31847C19.0251 5.73269 19.0251 4.78294 18.4393 4.19715L18 3.75781" stroke="#5D6A85" stroke-width="2"/>
<path d="M17 17.7578L18.4393 19.1972C19.0251 19.7829 19.0251 20.7327 18.4393 21.3185L18 21.7578" stroke="#5D6A85" stroke-width="2"/>
<path d="M7 7.75781L5.56066 6.31847C4.97487 5.73269 4.02513 5.73269 3.43934 6.31847L3 6.75781" stroke="#5D6A85" stroke-width="2"/>
<path d="M7 17.7578L5.56066 19.1972C4.97487 19.7829 4.02513 19.7829 3.43934 19.1972L3 18.7578" stroke="#5D6A85" stroke-width="2"/>
<path d="M7 7.75781L5.56066 6.31847C4.97487 5.73269 4.97487 4.78294 5.56066 4.19715L6 3.75781" stroke="#5D6A85" stroke-width="2"/>
<path d="M7 17.7578L5.56066 19.1972C4.97487 19.7829 4.97487 20.7327 5.56066 21.3185L6 21.7578" stroke="#5D6A85" stroke-width="2"/>
</svg>
