<svg width="48" height="49" viewBox="0 0 48 49" fill="none" xmlns="http://www.w3.org/2000/svg">
<path fill-rule="evenodd" clip-rule="evenodd" d="M36 16.5C40.4183 16.5 44 20.0817 44 24.5H4C4 20.0817 7.58172 16.5 12 16.5V14.5C12 10.0817 15.5817 6.5 20 6.5H28C32.4183 6.5 36 10.0817 36 14.5V16.5ZM16 14.5V16.5H32V14.5C32 12.2909 30.2091 10.5 28 10.5H20C17.7909 10.5 16 12.2909 16 14.5Z" fill="white"/>
<path d="M4 36.5V28.5H44V36.5C44 40.9183 40.4183 44.5 36 44.5H12C7.58172 44.5 4 40.9183 4 36.5Z" fill="white"/>
<path fill-rule="evenodd" clip-rule="evenodd" d="M36 16.5C40.4183 16.5 44 20.0817 44 24.5H4C4 20.0817 7.58172 16.5 12 16.5V14.5C12 10.0817 15.5817 6.5 20 6.5H28C32.4183 6.5 36 10.0817 36 14.5V16.5ZM16 14.5V16.5H32V14.5C32 12.2909 30.2091 10.5 28 10.5H20C17.7909 10.5 16 12.2909 16 14.5Z" stroke="white"/>
<path d="M4 36.5V28.5H44V36.5C44 40.9183 40.4183 44.5 36 44.5H12C7.58172 44.5 4 40.9183 4 36.5Z" stroke="white"/>
</svg>
