<svg width="97" height="97" viewBox="0 0 97 97" fill="none" xmlns="http://www.w3.org/2000/svg">
<path fill-rule="evenodd" clip-rule="evenodd" d="M8.5 18.5C8.5 12.9772 12.9772 8.5 18.5 8.5H24.5V16.5H18.5C17.3954 16.5 16.5 17.3954 16.5 18.5V46.5C16.5 47.6046 17.3954 48.5 18.5 48.5H46.5C47.6046 48.5 48.5 47.6046 48.5 46.5V18.5C48.5 17.3954 47.6046 16.5 46.5 16.5H40.5V8.5H46.5C52.0228 8.5 56.5 12.9772 56.5 18.5V46.5C56.5 52.0228 52.0229 56.5 46.5 56.5H36.5V72.5C36.5 76.9183 40.0817 80.5 44.5 80.5H60.5C64.9183 80.5 68.5 76.9183 68.5 72.5V48.3C63.9355 47.3734 60.5 43.3379 60.5 38.5V34.5C60.5 28.9772 64.9772 24.5 70.5 24.5H74.5C80.0229 24.5 84.5 28.9772 84.5 34.5V38.5C84.5 43.3379 81.0645 47.3734 76.5 48.3V72.5C76.5 81.3366 69.3366 88.5 60.5 88.5H44.5C35.6634 88.5 28.5 81.3366 28.5 72.5V56.5H18.5C12.9772 56.5 8.5 52.0229 8.5 46.5V18.5ZM68.5 34.5C68.5 33.3954 69.3954 32.5 70.5 32.5H74.5C75.6046 32.5 76.5 33.3954 76.5 34.5V38.5C76.5 39.6046 75.6046 40.5 74.5 40.5H70.5C69.3954 40.5 68.5 39.6046 68.5 38.5V34.5Z" fill="#FFB3BD"/>
</svg>
