<svg width="24" height="25" viewBox="0 0 24 25" fill="none" xmlns="http://www.w3.org/2000/svg">
<path d="M5 12.769L7 10.769L8.56066 9.20838C8.84196 8.92708 9 8.54555 9 8.14772V5.26904C9 4.44062 8.32843 3.76904 7.5 3.76904H5.5C4.67157 3.76904 4 4.44062 4 5.26904V10.6178C4 11.359 4.27433 12.0739 4.77012 12.6247L8.5 16.769L12.1062 20.7759C12.6751 21.4081 13.4856 21.769 14.3361 21.769H19.5C20.3284 21.769 21 21.0975 21 20.269V18.269C21 17.4406 20.3284 16.769 19.5 16.769H17.6213C17.2235 16.769 16.842 16.9271 16.5607 17.2084L15 18.769L13 20.769" stroke="white" stroke-width="2"/>
</svg>
