<svg width="24" height="24" viewBox="0 0 24 24" fill="none" xmlns="http://www.w3.org/2000/svg">
<path d="M4.5 9H7.5C8.32843 9 9 8.32843 9 7.5V4.5C9 3.67157 9.67157 3 10.5 3H13.5C14.3284 3 15 3.67157 15 4.5V7.5C15 8.32843 15.6716 9 16.5 9H19.5C20.3284 9 21 9.67157 21 10.5V13.5C21 14.3284 20.3284 15 19.5 15H16.5C15.6716 15 15 15.6716 15 16.5V19.5C15 20.3284 14.3284 21 13.5 21H10.5C9.67157 21 9 20.3284 9 19.5V16.5C9 15.6716 8.32843 15 7.5 15H4.5C3.67157 15 3 14.3284 3 13.5V10.5C3 9.67157 3.67157 9 4.5 9Z" stroke="#242E49" stroke-width="2"/>
</svg>
