<svg width="25" height="24" viewBox="0 0 25 24" fill="none" xmlns="http://www.w3.org/2000/svg">
<path d="M22.3751 6.29285L18.3751 2.29285L16.9608 3.70706L18.2538 5L16.668 6.58575L12.3752 2.29288L10.9609 3.70709L12.2538 4.99998L6.08225 11.1716C4.52015 12.7337 4.52015 15.2663 6.08225 16.8284L6.23916 16.9853L3.96094 19.2635L5.37515 20.6778L7.65338 18.3995L7.83961 18.5858C9.4017 20.1479 11.9344 20.1479 13.4965 18.5858L15.168 16.9142L11.9609 13.7071L13.3751 12.2929L16.5822 15.5L17.168 14.9142L13.9609 11.7071L15.3751 10.2929L18.5822 13.5L19.668 12.4142L20.9609 13.7071L22.3752 12.2929L18.0822 7.99997L19.668 6.41421L20.9608 7.70706L22.3751 6.29285Z" fill="#5D6A85"/>
</svg>
