<svg width="25" height="24" viewBox="0 0 25 24" fill="none" xmlns="http://www.w3.org/2000/svg">
<path d="M13.5 11.5351C14.0883 11.1948 14.7714 11 15.5 11H16.5V13H15.5C14.3954 13 13.5 13.8954 13.5 15V16H11.5V15C11.5 13.8954 10.6046 13 9.5 13H8.5V11H9.5C10.2286 11 10.9117 11.1948 11.5 11.5351L11.5 2H13.5L13.5 11.5351Z" fill="white"/>
<path d="M2.5 14V17C2.5 19.2091 4.29086 21 6.5 21H18.5C20.7091 21 22.5 19.2091 22.5 17V14H20.5V17C20.5 18.1046 19.6046 19 18.5 19H6.5C5.39543 19 4.5 18.1046 4.5 17V14H2.5Z" fill="white"/>
<path d="M13.5 11.5351C14.0883 11.1948 14.7714 11 15.5 11H16.5V13H15.5C14.3954 13 13.5 13.8954 13.5 15V16H11.5V15C11.5 13.8954 10.6046 13 9.5 13H8.5V11H9.5C10.2286 11 10.9117 11.1948 11.5 11.5351L11.5 2H13.5L13.5 11.5351Z" stroke="white"/>
<path d="M2.5 14V17C2.5 19.2091 4.29086 21 6.5 21H18.5C20.7091 21 22.5 19.2091 22.5 17V14H20.5V17C20.5 18.1046 19.6046 19 18.5 19H6.5C5.39543 19 4.5 18.1046 4.5 17V14H2.5Z" stroke="white"/>
</svg>
