<svg width="24" height="24" viewBox="0 0 24 24" fill="none" xmlns="http://www.w3.org/2000/svg">
<path d="M3.96803 3.55382C4.56355 3.20193 5.25819 3 6 3H18C18.7418 3 19.4365 3.20193 20.032 3.55382L13.4142 10.1716C12.6332 10.9526 11.3668 10.9526 10.5858 10.1716L3.96803 3.55382Z" fill="#242E49"/>
<path d="M2.55382 4.96803C2.20193 5.56355 2 6.25819 2 7V17C2 19.2091 3.79086 21 6 21H18C20.2091 21 22 19.2091 22 17V7C22 6.25819 21.7981 5.56355 21.4462 4.96803L14.8284 11.5858C13.2663 13.1479 10.7337 13.1479 9.17157 11.5858L2.55382 4.96803Z" fill="#242E49"/>
</svg>
