<svg width="24" height="24" viewBox="0 0 24 24" fill="none" xmlns="http://www.w3.org/2000/svg">
<path d="M5 6.5C5 7.32843 5.67157 8 6.5 8H17.5C18.3284 8 19 7.32843 19 6.5V5.5C19 4.67157 18.3284 4 17.5 4H6.5C5.67157 4 5 4.67157 5 5.5V6.5Z" stroke="#242E49" stroke-width="2"/>
<path d="M7 8H17V18C17 19.6569 15.6569 21 14 21H10C8.34315 21 7 19.6569 7 18V8Z" stroke="#242E49" stroke-width="2"/>
<path d="M8 4L8 8" stroke="#242E49" stroke-width="2"/>
<path d="M16 4L16 8" stroke="#242E49" stroke-width="2"/>
<path d="M12 4L12 8" stroke="#242E49" stroke-width="2"/>
<path d="M12 11L12 17" stroke="#242E49" stroke-width="2"/>
<path d="M15 14H9" stroke="#242E49" stroke-width="2"/>
</svg>
