<svg width="382" height="382" viewBox="0 0 382 382" fill="none" xmlns="http://www.w3.org/2000/svg">
<g opacity="0.48">
<path d="M127.333 111.417C127.333 93.8356 141.586 79.5833 159.167 79.5833H222.833C240.414 79.5833 254.667 93.8356 254.667 111.417V151.208C254.667 164.394 243.977 175.083 230.792 175.083C200.025 175.083 175.083 200.025 175.083 230.792V270.583H206.917V230.792C206.917 217.606 217.606 206.917 230.792 206.917C261.559 206.917 286.5 181.975 286.5 151.208V111.417C286.5 76.2545 257.995 47.75 222.833 47.75H159.167C124.005 47.75 95.5 76.2545 95.5 111.417V143.25H127.333V111.417Z" fill="#458CFF"/>
<path d="M183.042 302.417C178.646 302.417 175.083 305.98 175.083 310.375V326.292C175.083 330.687 178.646 334.25 183.042 334.25H198.958C203.354 334.25 206.917 330.687 206.917 326.292V310.375C206.917 305.98 203.354 302.417 198.958 302.417H183.042Z" fill="#458CFF"/>
</g>
</svg>
