<svg width="25" height="24" viewBox="0 0 25 24" fill="none" xmlns="http://www.w3.org/2000/svg">
<path d="M16.667 22V18.2002C16.667 18.0775 16.7363 17.9653 16.8461 17.9105V17.9105C19.1878 16.7396 20.667 14.3462 20.667 11.7281V10C20.667 6.13401 17.533 3 13.667 3L12.5901 3C9.31885 3 6.66699 5.65186 6.66699 8.9231V8.9231C6.66699 8.97342 6.65332 9.0228 6.62743 9.06595L4.6525 12.3575C4.21878 13.0804 4.73947 14 5.58247 14V14C6.18143 14 6.66699 14.4856 6.66699 15.0845V16.5C6.66699 17.3284 7.33857 18 8.16699 18H9.16699C9.99542 18 10.667 18.6716 10.667 19.5V22" stroke="#5D6A85" stroke-width="2"/>
<path d="M13.667 7V13" stroke="#5D6A85" stroke-width="2"/>
<path d="M16.667 10L10.667 10" stroke="#5D6A85" stroke-width="2"/>
</svg>
