<svg width="24" height="24" viewBox="0 0 24 24" fill="none" xmlns="http://www.w3.org/2000/svg">
<path d="M2 3H11.3486C11.7084 3 12 3.29164 12 3.65139V3.65139C12 3.86918 11.8912 4.07257 11.7099 4.19338L3.29006 9.80662C3.10885 9.92744 3 10.1308 3 10.3486V10.3486C3 10.7084 3.29164 11 3.65139 11H13" stroke="#818BA0" stroke-width="2"/>
<path d="M14 13H20.3486C20.7084 13 21 13.2916 21 13.6514V13.6514C21 13.8692 20.8912 14.0726 20.7099 14.1934L15.2901 17.8066C15.1088 17.9274 15 18.1308 15 18.3486V18.3486C15 18.7084 15.2916 19 15.6514 19H22" stroke="#818BA0" stroke-width="2"/>
<path d="M6 17H11.3615C11.7141 17 12 17.2859 12 17.6385V17.6385C12 17.8628 11.8823 18.0706 11.69 18.186L7.30999 20.814C7.11767 20.9294 7 21.1372 7 21.3615V21.3615C7 21.7141 7.28586 22 7.63849 22H13" stroke="#818BA0" stroke-width="2"/>
</svg>
