<svg width="24" height="24" viewBox="0 0 24 24" fill="none" xmlns="http://www.w3.org/2000/svg">
<path d="M13.8219 18C14.4726 18 15.0206 18.5469 14.7716 19.1481C14.6209 19.512 14.3999 19.8427 14.1213 20.1213C13.8427 20.3999 13.512 20.6209 13.1481 20.7716C12.7841 20.9224 12.394 21 12 21C11.606 21 11.2159 20.9224 10.8519 20.7716C10.488 20.6209 10.1573 20.3999 9.87868 20.1213C9.6001 19.8427 9.37913 19.512 9.22836 19.1481C8.97937 18.5469 9.52745 18 10.1781 18L12 18H13.8219Z" fill="#0F67FE"/>
<path d="M12 4V2" stroke="#0F67FE" stroke-width="2"/>
<path d="M6.90111 7.8461C7.55156 5.56955 9.63235 4 12 4V4C14.3676 4 16.4484 5.56954 17.0989 7.8461L19.0086 14.5299C19.5054 16.2689 18.1997 18 16.3911 18H7.60892C5.80034 18 4.49459 16.2689 4.99145 14.5299L6.90111 7.8461Z" stroke="#0F67FE" stroke-width="2"/>
</svg>
