<svg width="1561" height="652" viewBox="0 0 1561 652" fill="none" xmlns="http://www.w3.org/2000/svg">
<g opacity="0.64">
<path d="M0.0117188 30.8346H19.2832C25.6692 30.8346 30.846 36.0114 30.846 42.3974V61.6689" stroke="#DCE1E8" stroke-width="2"/>
<path d="M61.6836 30.8345L42.4121 30.8345C36.0261 30.8345 30.8493 25.6576 30.8493 19.2716L30.8493 0.000149356" stroke="#DCE1E8" stroke-width="2"/>
<path d="M0.0117188 96.3576H19.2832C25.6692 96.3576 30.846 91.1808 30.846 84.7948V65.5233" stroke="#DCE1E8" stroke-width="2"/>
<path d="M61.6836 96.3577L42.4121 96.3577C36.0261 96.3577 30.8493 101.535 30.8493 107.921L30.8493 127.192" stroke="#DCE1E8" stroke-width="2"/>
<path d="M127.203 30.8345H107.932C101.546 30.8345 96.3688 36.0113 96.3688 42.3973V61.6688" stroke="#DCE1E8" stroke-width="2"/>
<path d="M65.5352 30.8345L84.8066 30.8345C91.1926 30.8345 96.3695 25.6576 96.3695 19.2716L96.3695 0.000149356" stroke="#DCE1E8" stroke-width="2"/>
<path d="M127.203 96.3577H107.932C101.546 96.3577 96.3688 91.1808 96.3688 84.7948V65.5233" stroke="#DCE1E8" stroke-width="2"/>
<path d="M65.5352 96.3577L84.8066 96.3577C91.1926 96.3577 96.3695 101.535 96.3695 107.921L96.3695 127.192" stroke="#DCE1E8" stroke-width="2"/>
<path d="M0.0117188 161.88H19.2832C25.6692 161.88 30.846 167.057 30.846 173.443V192.715" stroke="#DCE1E8" stroke-width="2"/>
<path d="M0.0117188 292.926H19.2832C25.6692 292.926 30.846 298.103 30.846 304.489V323.761" stroke="#DCE1E8" stroke-width="2"/>
<path d="M0.0117188 423.972H19.2832C25.6692 423.972 30.846 429.149 30.846 435.535V454.807" stroke="#DCE1E8" stroke-width="2"/>
<path d="M0.0117188 555.018H19.2832C25.6692 555.018 30.846 560.195 30.846 566.581V585.853" stroke="#DCE1E8" stroke-width="2"/>
<path d="M61.6836 161.88L42.4121 161.88C36.0261 161.88 30.8493 156.703 30.8493 150.317L30.8493 131.046" stroke="#DCE1E8" stroke-width="2"/>
<path d="M61.6836 292.926L42.4121 292.926C36.0261 292.926 30.8493 287.75 30.8493 281.364L30.8493 262.092" stroke="#DCE1E8" stroke-width="2"/>
<path d="M61.6836 423.972L42.4121 423.972C36.0261 423.972 30.8493 418.795 30.8493 412.409L30.8493 393.138" stroke="#DCE1E8" stroke-width="2"/>
<path d="M61.6836 555.018L42.4121 555.018C36.0261 555.018 30.8493 549.841 30.8493 543.455L30.8493 524.184" stroke="#DCE1E8" stroke-width="2"/>
<path d="M0.0117188 227.404H19.2832C25.6692 227.404 30.846 222.227 30.846 215.841V196.569" stroke="#DCE1E8" stroke-width="2"/>
<path d="M0.0117188 358.449H19.2832C25.6692 358.449 30.846 353.273 30.846 346.887V327.615" stroke="#DCE1E8" stroke-width="2"/>
<path d="M0.0117188 489.495H19.2832C25.6692 489.495 30.846 484.318 30.846 477.932V458.661" stroke="#DCE1E8" stroke-width="2"/>
<path d="M0.0117188 620.541H19.2832C25.6692 620.541 30.846 615.364 30.846 608.978V589.707" stroke="#DCE1E8" stroke-width="2"/>
<path d="M61.6836 227.404L42.4121 227.404C36.0261 227.404 30.8493 232.58 30.8493 238.966L30.8493 258.238" stroke="#DCE1E8" stroke-width="2"/>
<path d="M61.6836 358.449L42.4121 358.449C36.0261 358.449 30.8493 363.626 30.8493 370.012L30.8493 389.284" stroke="#DCE1E8" stroke-width="2"/>
<path d="M61.6836 489.495L42.4121 489.495C36.0261 489.495 30.8493 494.672 30.8493 501.058L30.8493 520.33" stroke="#DCE1E8" stroke-width="2"/>
<path d="M61.6836 620.541L42.4121 620.541C36.0261 620.541 30.8493 625.718 30.8493 632.104L30.8493 651.375" stroke="#DCE1E8" stroke-width="2"/>
<path d="M127.203 161.88H107.932C101.546 161.88 96.3688 167.057 96.3688 173.443V192.715" stroke="#DCE1E8" stroke-width="2"/>
<path d="M127.203 292.926H107.932C101.546 292.926 96.3688 298.103 96.3688 304.489V323.761" stroke="#DCE1E8" stroke-width="2"/>
<path d="M127.203 423.972H107.932C101.546 423.972 96.3688 429.149 96.3688 435.535V454.807" stroke="#DCE1E8" stroke-width="2"/>
<path d="M127.203 555.018H107.932C101.546 555.018 96.3688 560.195 96.3688 566.581V585.853" stroke="#DCE1E8" stroke-width="2"/>
<path d="M65.5352 161.88L84.8066 161.88C91.1926 161.88 96.3695 156.703 96.3695 150.317L96.3695 131.046" stroke="#DCE1E8" stroke-width="2"/>
<path d="M65.5352 292.926L84.8066 292.926C91.1926 292.926 96.3695 287.75 96.3695 281.364L96.3695 262.092" stroke="#DCE1E8" stroke-width="2"/>
<path d="M65.5352 423.972L84.8066 423.972C91.1926 423.972 96.3695 418.795 96.3695 412.409L96.3695 393.138" stroke="#DCE1E8" stroke-width="2"/>
<path d="M65.5352 555.018L84.8066 555.018C91.1926 555.018 96.3695 549.841 96.3695 543.455L96.3695 524.184" stroke="#DCE1E8" stroke-width="2"/>
<path d="M127.203 227.404H107.932C101.546 227.404 96.3688 222.227 96.3688 215.841V196.569" stroke="#DCE1E8" stroke-width="2"/>
<path d="M127.203 358.449H107.932C101.546 358.449 96.3688 353.273 96.3688 346.887V327.615" stroke="#DCE1E8" stroke-width="2"/>
<path d="M127.203 489.495H107.932C101.546 489.495 96.3688 484.318 96.3688 477.932V458.661" stroke="#DCE1E8" stroke-width="2"/>
<path d="M127.203 620.541H107.932C101.546 620.541 96.3688 615.364 96.3688 608.978V589.707" stroke="#DCE1E8" stroke-width="2"/>
<path d="M65.5352 227.404L84.8066 227.404C91.1926 227.404 96.3695 232.58 96.3695 238.966L96.3695 258.238" stroke="#DCE1E8" stroke-width="2"/>
<path d="M65.5352 358.449L84.8066 358.449C91.1926 358.449 96.3695 363.626 96.3695 370.012L96.3695 389.284" stroke="#DCE1E8" stroke-width="2"/>
<path d="M65.5352 489.495L84.8066 489.495C91.1926 489.495 96.3695 494.672 96.3695 501.058L96.3695 520.33" stroke="#DCE1E8" stroke-width="2"/>
<path d="M65.5352 620.541L84.8066 620.541C91.1926 620.541 96.3695 625.718 96.3695 632.104L96.3695 651.375" stroke="#DCE1E8" stroke-width="2"/>
<path d="M131.059 30.8345H150.33C156.716 30.8345 161.893 36.0113 161.893 42.3973V61.6688" stroke="#DCE1E8" stroke-width="2"/>
<path d="M262.102 30.8345H281.373C287.759 30.8345 292.936 36.0113 292.936 42.3973V61.6688" stroke="#DCE1E8" stroke-width="2"/>
<path d="M393.152 30.8345H412.424C418.81 30.8345 423.987 36.0113 423.987 42.3973V61.6688" stroke="#DCE1E8" stroke-width="2"/>
<path d="M192.727 30.8345L173.455 30.8345C167.069 30.8345 161.892 25.6576 161.892 19.2716L161.892 0.000149356" stroke="#DCE1E8" stroke-width="2"/>
<path d="M323.774 30.8346L304.502 30.8346C298.116 30.8346 292.939 25.6577 292.939 19.2717L292.939 0.000240909" stroke="#DCE1E8" stroke-width="2"/>
<path d="M454.82 30.8345L435.549 30.8345C429.163 30.8345 423.986 25.6576 423.986 19.2716L423.986 0.000149356" stroke="#DCE1E8" stroke-width="2"/>
<path d="M131.059 96.3577H150.33C156.716 96.3577 161.893 91.1808 161.893 84.7948V65.5233" stroke="#DCE1E8" stroke-width="2"/>
<path d="M262.102 96.3577H281.373C287.759 96.3577 292.936 91.1808 292.936 84.7948V65.5233" stroke="#DCE1E8" stroke-width="2"/>
<path d="M393.152 96.3577H412.424C418.81 96.3577 423.987 91.1808 423.987 84.7948V65.5233" stroke="#DCE1E8" stroke-width="2"/>
<path d="M192.727 96.3577L173.455 96.3577C167.069 96.3577 161.892 101.535 161.892 107.921L161.892 127.192" stroke="#DCE1E8" stroke-width="2"/>
<path d="M323.774 96.3576L304.502 96.3576C298.116 96.3576 292.939 101.535 292.939 107.921L292.939 127.192" stroke="#DCE1E8" stroke-width="2"/>
<path d="M454.82 96.3577L435.549 96.3577C429.163 96.3577 423.986 101.535 423.986 107.921L423.986 127.192" stroke="#DCE1E8" stroke-width="2"/>
<path d="M258.25 30.8345H238.979C232.593 30.8345 227.416 36.0113 227.416 42.3973V61.6688" stroke="#DCE1E8" stroke-width="2"/>
<path d="M389.297 30.8345H370.025C363.639 30.8345 358.463 36.0113 358.463 42.3973V61.6688" stroke="#DCE1E8" stroke-width="2"/>
<path d="M520.344 30.8345H501.072C494.686 30.8345 489.509 36.0113 489.509 42.3973V61.6688" stroke="#DCE1E8" stroke-width="2"/>
<path d="M196.582 30.8345L215.853 30.8345C222.239 30.8345 227.416 25.6576 227.416 19.2716L227.416 0.000149356" stroke="#DCE1E8" stroke-width="2"/>
<path d="M327.629 30.8346L346.9 30.8346C353.286 30.8346 358.463 25.6577 358.463 19.2717L358.463 0.000240909" stroke="#DCE1E8" stroke-width="2"/>
<path d="M458.672 30.8345L477.943 30.8345C484.329 30.8345 489.506 25.6576 489.506 19.2716L489.506 0.000149356" stroke="#DCE1E8" stroke-width="2"/>
<path d="M258.25 96.3577H238.979C232.593 96.3577 227.416 91.1808 227.416 84.7948V65.5233" stroke="#DCE1E8" stroke-width="2"/>
<path d="M389.297 96.3577H370.025C363.639 96.3577 358.463 91.1808 358.463 84.7948V65.5233" stroke="#DCE1E8" stroke-width="2"/>
<path d="M520.344 96.3577H501.072C494.686 96.3577 489.509 91.1808 489.509 84.7948V65.5233" stroke="#DCE1E8" stroke-width="2"/>
<path d="M196.582 96.3577L215.853 96.3577C222.239 96.3577 227.416 101.535 227.416 107.921L227.416 127.192" stroke="#DCE1E8" stroke-width="2"/>
<path d="M327.629 96.3576L346.9 96.3576C353.286 96.3576 358.463 101.535 358.463 107.921L358.463 127.192" stroke="#DCE1E8" stroke-width="2"/>
<path d="M458.672 96.3577L477.943 96.3577C484.329 96.3577 489.506 101.535 489.506 107.921L489.506 127.192" stroke="#DCE1E8" stroke-width="2"/>
<path d="M131.059 161.88H150.33C156.716 161.88 161.893 167.057 161.893 173.443V192.715" stroke="#DCE1E8" stroke-width="2"/>
<path d="M262.102 161.88H281.373C287.759 161.88 292.936 167.057 292.936 173.443V192.715" stroke="#DCE1E8" stroke-width="2"/>
<path d="M393.152 161.88H412.424C418.81 161.88 423.987 167.057 423.987 173.443V192.715" stroke="#DCE1E8" stroke-width="2"/>
<path d="M131.059 292.926H150.33C156.716 292.926 161.893 298.103 161.893 304.489V323.761" stroke="#DCE1E8" stroke-width="2"/>
<path d="M262.102 292.926H281.373C287.759 292.926 292.936 298.103 292.936 304.489V323.761" stroke="#DCE1E8" stroke-width="2"/>
<path d="M393.152 292.926H412.424C418.81 292.926 423.987 298.103 423.987 304.489V323.761" stroke="#DCE1E8" stroke-width="2"/>
<path d="M131.059 423.972H150.33C156.716 423.972 161.893 429.149 161.893 435.535V454.807" stroke="#DCE1E8" stroke-width="2"/>
<path d="M262.102 423.972H281.373C287.759 423.972 292.936 429.149 292.936 435.535V454.807" stroke="#DCE1E8" stroke-width="2"/>
<path d="M393.152 423.972H412.424C418.81 423.972 423.987 429.149 423.987 435.535V454.807" stroke="#DCE1E8" stroke-width="2"/>
<path d="M131.059 555.018H150.33C156.716 555.018 161.893 560.195 161.893 566.581V585.853" stroke="#DCE1E8" stroke-width="2"/>
<path d="M262.102 555.018H281.373C287.759 555.018 292.936 560.195 292.936 566.581V585.853" stroke="#DCE1E8" stroke-width="2"/>
<path d="M393.152 555.018H412.424C418.81 555.018 423.987 560.195 423.987 566.581V585.853" stroke="#DCE1E8" stroke-width="2"/>
<path d="M192.727 161.88L173.455 161.88C167.069 161.88 161.892 156.703 161.892 150.317L161.892 131.046" stroke="#DCE1E8" stroke-width="2"/>
<path d="M323.774 161.88L304.502 161.88C298.116 161.88 292.939 156.704 292.939 150.318L292.939 131.046" stroke="#DCE1E8" stroke-width="2"/>
<path d="M454.82 161.88L435.549 161.88C429.163 161.88 423.986 156.703 423.986 150.317L423.986 131.046" stroke="#DCE1E8" stroke-width="2"/>
<path d="M192.727 292.926L173.455 292.926C167.069 292.926 161.892 287.75 161.892 281.364L161.892 262.092" stroke="#DCE1E8" stroke-width="2"/>
<path d="M323.774 292.926L304.502 292.926C298.116 292.926 292.939 287.75 292.939 281.364L292.939 262.092" stroke="#DCE1E8" stroke-width="2"/>
<path d="M454.82 292.926L435.549 292.926C429.163 292.926 423.986 287.75 423.986 281.364L423.986 262.092" stroke="#DCE1E8" stroke-width="2"/>
<path d="M192.727 423.972L173.455 423.972C167.069 423.972 161.892 418.795 161.892 412.409L161.892 393.138" stroke="#DCE1E8" stroke-width="2"/>
<path d="M323.774 423.972L304.502 423.972C298.116 423.972 292.939 418.795 292.939 412.409L292.939 393.138" stroke="#DCE1E8" stroke-width="2"/>
<path d="M454.82 423.972L435.549 423.972C429.163 423.972 423.986 418.795 423.986 412.409L423.986 393.138" stroke="#DCE1E8" stroke-width="2"/>
<path d="M192.727 555.018L173.455 555.018C167.069 555.018 161.892 549.841 161.892 543.455L161.892 524.184" stroke="#DCE1E8" stroke-width="2"/>
<path d="M323.774 555.018L304.502 555.018C298.116 555.018 292.939 549.841 292.939 543.455L292.939 524.184" stroke="#DCE1E8" stroke-width="2"/>
<path d="M454.82 555.018L435.549 555.018C429.163 555.018 423.986 549.841 423.986 543.455L423.986 524.184" stroke="#DCE1E8" stroke-width="2"/>
<path d="M131.059 227.404H150.33C156.716 227.404 161.893 222.227 161.893 215.841V196.569" stroke="#DCE1E8" stroke-width="2"/>
<path d="M262.102 227.404H281.373C287.759 227.404 292.936 222.227 292.936 215.841V196.569" stroke="#DCE1E8" stroke-width="2"/>
<path d="M393.152 227.404H412.424C418.81 227.404 423.987 222.227 423.987 215.841V196.569" stroke="#DCE1E8" stroke-width="2"/>
<path d="M131.059 358.449H150.33C156.716 358.449 161.893 353.273 161.893 346.887V327.615" stroke="#DCE1E8" stroke-width="2"/>
<path d="M262.102 358.449H281.373C287.759 358.449 292.936 353.273 292.936 346.887V327.615" stroke="#DCE1E8" stroke-width="2"/>
<path d="M393.152 358.449H412.424C418.81 358.449 423.987 353.273 423.987 346.887V327.615" stroke="#DCE1E8" stroke-width="2"/>
<path d="M131.059 489.495H150.33C156.716 489.495 161.893 484.318 161.893 477.932V458.661" stroke="#DCE1E8" stroke-width="2"/>
<path d="M262.102 489.495H281.373C287.759 489.495 292.936 484.318 292.936 477.932V458.661" stroke="#DCE1E8" stroke-width="2"/>
<path d="M393.152 489.495H412.424C418.81 489.495 423.987 484.318 423.987 477.932V458.661" stroke="#DCE1E8" stroke-width="2"/>
<path d="M131.059 620.541H150.33C156.716 620.541 161.893 615.364 161.893 608.978V589.707" stroke="#DCE1E8" stroke-width="2"/>
<path d="M262.102 620.541H281.373C287.759 620.541 292.936 615.364 292.936 608.978V589.707" stroke="#DCE1E8" stroke-width="2"/>
<path d="M393.152 620.541H412.424C418.81 620.541 423.987 615.364 423.987 608.978V589.707" stroke="#DCE1E8" stroke-width="2"/>
<path d="M192.727 227.404L173.455 227.404C167.069 227.404 161.892 232.58 161.892 238.966L161.892 258.238" stroke="#DCE1E8" stroke-width="2"/>
<path d="M323.774 227.404L304.502 227.404C298.116 227.404 292.939 232.58 292.939 238.966L292.939 258.238" stroke="#DCE1E8" stroke-width="2"/>
<path d="M454.82 227.404L435.549 227.404C429.163 227.404 423.986 232.58 423.986 238.966L423.986 258.238" stroke="#DCE1E8" stroke-width="2"/>
<path d="M192.727 358.449L173.455 358.449C167.069 358.449 161.892 363.626 161.892 370.012L161.892 389.284" stroke="#DCE1E8" stroke-width="2"/>
<path d="M323.774 358.449L304.502 358.449C298.116 358.449 292.939 363.626 292.939 370.012L292.939 389.284" stroke="#DCE1E8" stroke-width="2"/>
<path d="M454.82 358.449L435.549 358.449C429.163 358.449 423.986 363.626 423.986 370.012L423.986 389.284" stroke="#DCE1E8" stroke-width="2"/>
<path d="M192.727 489.495L173.455 489.495C167.069 489.495 161.892 494.672 161.892 501.058L161.892 520.33" stroke="#DCE1E8" stroke-width="2"/>
<path d="M323.774 489.495L304.502 489.495C298.116 489.495 292.939 494.672 292.939 501.058L292.939 520.33" stroke="#DCE1E8" stroke-width="2"/>
<path d="M454.82 489.495L435.549 489.495C429.163 489.495 423.986 494.672 423.986 501.058L423.986 520.33" stroke="#DCE1E8" stroke-width="2"/>
<path d="M192.727 620.541L173.455 620.541C167.069 620.541 161.892 625.718 161.892 632.104L161.892 651.375" stroke="#DCE1E8" stroke-width="2"/>
<path d="M323.774 620.541L304.502 620.541C298.116 620.541 292.939 625.718 292.939 632.104L292.939 651.375" stroke="#DCE1E8" stroke-width="2"/>
<path d="M454.82 620.541L435.549 620.541C429.163 620.541 423.986 625.718 423.986 632.104L423.986 651.375" stroke="#DCE1E8" stroke-width="2"/>
<path d="M258.25 161.88H238.979C232.593 161.88 227.416 167.057 227.416 173.443V192.715" stroke="#DCE1E8" stroke-width="2"/>
<path d="M389.297 161.88H370.025C363.639 161.88 358.463 167.057 358.463 173.443V192.715" stroke="#DCE1E8" stroke-width="2"/>
<path d="M520.344 161.88H501.072C494.686 161.88 489.509 167.057 489.509 173.443V192.715" stroke="#DCE1E8" stroke-width="2"/>
<path d="M258.25 292.926H238.979C232.593 292.926 227.416 298.103 227.416 304.489V323.761" stroke="#DCE1E8" stroke-width="2"/>
<path d="M389.297 292.926H370.025C363.639 292.926 358.463 298.103 358.463 304.489V323.761" stroke="#DCE1E8" stroke-width="2"/>
<path d="M520.344 292.926H501.072C494.686 292.926 489.509 298.103 489.509 304.489V323.761" stroke="#DCE1E8" stroke-width="2"/>
<path d="M258.25 423.972H238.979C232.593 423.972 227.416 429.149 227.416 435.535V454.807" stroke="#DCE1E8" stroke-width="2"/>
<path d="M389.297 423.972H370.025C363.639 423.972 358.463 429.149 358.463 435.535V454.807" stroke="#DCE1E8" stroke-width="2"/>
<path d="M520.344 423.972H501.072C494.686 423.972 489.509 429.149 489.509 435.535V454.807" stroke="#DCE1E8" stroke-width="2"/>
<path d="M258.25 555.018H238.979C232.593 555.018 227.416 560.195 227.416 566.581V585.853" stroke="#DCE1E8" stroke-width="2"/>
<path d="M389.297 555.018H370.025C363.639 555.018 358.463 560.195 358.463 566.581V585.853" stroke="#DCE1E8" stroke-width="2"/>
<path d="M520.344 555.018H501.072C494.686 555.018 489.509 560.195 489.509 566.581V585.853" stroke="#DCE1E8" stroke-width="2"/>
<path d="M196.582 161.88L215.853 161.88C222.239 161.88 227.416 156.703 227.416 150.317L227.416 131.046" stroke="#DCE1E8" stroke-width="2"/>
<path d="M327.629 161.88L346.9 161.88C353.286 161.88 358.463 156.704 358.463 150.318L358.463 131.046" stroke="#DCE1E8" stroke-width="2"/>
<path d="M458.672 161.88L477.943 161.88C484.329 161.88 489.506 156.703 489.506 150.317L489.506 131.046" stroke="#DCE1E8" stroke-width="2"/>
<path d="M196.582 292.926L215.853 292.926C222.239 292.926 227.416 287.75 227.416 281.364L227.416 262.092" stroke="#DCE1E8" stroke-width="2"/>
<path d="M327.629 292.926L346.9 292.926C353.286 292.926 358.463 287.75 358.463 281.364L358.463 262.092" stroke="#DCE1E8" stroke-width="2"/>
<path d="M458.672 292.926L477.943 292.926C484.329 292.926 489.506 287.75 489.506 281.364L489.506 262.092" stroke="#DCE1E8" stroke-width="2"/>
<path d="M196.582 423.972L215.853 423.972C222.239 423.972 227.416 418.795 227.416 412.409L227.416 393.138" stroke="#DCE1E8" stroke-width="2"/>
<path d="M327.629 423.972L346.9 423.972C353.286 423.972 358.463 418.795 358.463 412.409L358.463 393.138" stroke="#DCE1E8" stroke-width="2"/>
<path d="M458.672 423.972L477.943 423.972C484.329 423.972 489.506 418.795 489.506 412.409L489.506 393.138" stroke="#DCE1E8" stroke-width="2"/>
<path d="M196.582 555.018L215.853 555.018C222.239 555.018 227.416 549.841 227.416 543.455L227.416 524.184" stroke="#DCE1E8" stroke-width="2"/>
<path d="M327.629 555.018L346.9 555.018C353.286 555.018 358.463 549.841 358.463 543.455L358.463 524.184" stroke="#DCE1E8" stroke-width="2"/>
<path d="M458.672 555.018L477.943 555.018C484.329 555.018 489.506 549.841 489.506 543.455L489.506 524.184" stroke="#DCE1E8" stroke-width="2"/>
<path d="M258.25 227.404H238.979C232.593 227.404 227.416 222.227 227.416 215.841V196.569" stroke="#DCE1E8" stroke-width="2"/>
<path d="M389.297 227.404H370.025C363.639 227.404 358.463 222.227 358.463 215.841V196.569" stroke="#DCE1E8" stroke-width="2"/>
<path d="M520.344 227.404H501.072C494.686 227.404 489.509 222.227 489.509 215.841V196.569" stroke="#DCE1E8" stroke-width="2"/>
<path d="M258.25 358.449H238.979C232.593 358.449 227.416 353.273 227.416 346.887V327.615" stroke="#DCE1E8" stroke-width="2"/>
<path d="M389.297 358.449H370.025C363.639 358.449 358.463 353.273 358.463 346.887V327.615" stroke="#DCE1E8" stroke-width="2"/>
<path d="M520.344 358.449H501.072C494.686 358.449 489.509 353.273 489.509 346.887V327.615" stroke="#DCE1E8" stroke-width="2"/>
<path d="M258.25 489.495H238.979C232.593 489.495 227.416 484.318 227.416 477.932V458.661" stroke="#DCE1E8" stroke-width="2"/>
<path d="M389.297 489.495H370.025C363.639 489.495 358.463 484.318 358.463 477.932V458.661" stroke="#DCE1E8" stroke-width="2"/>
<path d="M520.344 489.495H501.072C494.686 489.495 489.509 484.318 489.509 477.932V458.661" stroke="#DCE1E8" stroke-width="2"/>
<path d="M258.25 620.541H238.979C232.593 620.541 227.416 615.364 227.416 608.978V589.707" stroke="#DCE1E8" stroke-width="2"/>
<path d="M389.297 620.541H370.025C363.639 620.541 358.463 615.364 358.463 608.978V589.707" stroke="#DCE1E8" stroke-width="2"/>
<path d="M520.344 620.541H501.072C494.686 620.541 489.509 615.364 489.509 608.978V589.707" stroke="#DCE1E8" stroke-width="2"/>
<path d="M196.582 227.404L215.853 227.404C222.239 227.404 227.416 232.58 227.416 238.966L227.416 258.238" stroke="#DCE1E8" stroke-width="2"/>
<path d="M327.629 227.404L346.9 227.404C353.286 227.404 358.463 232.58 358.463 238.966L358.463 258.238" stroke="#DCE1E8" stroke-width="2"/>
<path d="M458.672 227.404L477.943 227.404C484.329 227.404 489.506 232.58 489.506 238.966L489.506 258.238" stroke="#DCE1E8" stroke-width="2"/>
<path d="M196.582 358.449L215.853 358.449C222.239 358.449 227.416 363.626 227.416 370.012L227.416 389.284" stroke="#DCE1E8" stroke-width="2"/>
<path d="M327.629 358.449L346.9 358.449C353.286 358.449 358.463 363.626 358.463 370.012L358.463 389.284" stroke="#DCE1E8" stroke-width="2"/>
<path d="M458.672 358.449L477.943 358.449C484.329 358.449 489.506 363.626 489.506 370.012L489.506 389.284" stroke="#DCE1E8" stroke-width="2"/>
<path d="M196.582 489.495L215.853 489.495C222.239 489.495 227.416 494.672 227.416 501.058L227.416 520.33" stroke="#DCE1E8" stroke-width="2"/>
<path d="M327.629 489.495L346.9 489.495C353.286 489.495 358.463 494.672 358.463 501.058L358.463 520.33" stroke="#DCE1E8" stroke-width="2"/>
<path d="M458.672 489.495L477.943 489.495C484.329 489.495 489.506 494.672 489.506 501.058L489.506 520.33" stroke="#DCE1E8" stroke-width="2"/>
<path d="M196.582 620.541L215.853 620.541C222.239 620.541 227.416 625.718 227.416 632.104L227.416 651.375" stroke="#DCE1E8" stroke-width="2"/>
<path d="M327.629 620.541L346.9 620.541C353.286 620.541 358.463 625.718 358.463 632.104L358.463 651.375" stroke="#DCE1E8" stroke-width="2"/>
<path d="M458.672 620.541L477.943 620.541C484.329 620.541 489.506 625.718 489.506 632.104L489.506 651.375" stroke="#DCE1E8" stroke-width="2"/>
<path d="M520.336 30.8346H539.607C545.993 30.8346 551.17 36.0114 551.17 42.3974V61.6689" stroke="#DCE1E8" stroke-width="2"/>
<path d="M582.008 30.8345L562.736 30.8345C556.35 30.8345 551.173 25.6576 551.173 19.2716L551.173 0.000149356" stroke="#DCE1E8" stroke-width="2"/>
<path d="M520.336 96.3576H539.607C545.993 96.3576 551.17 91.1808 551.17 84.7948V65.5233" stroke="#DCE1E8" stroke-width="2"/>
<path d="M582.008 96.3577L562.736 96.3577C556.35 96.3577 551.173 101.535 551.173 107.921L551.173 127.192" stroke="#DCE1E8" stroke-width="2"/>
<path d="M647.527 30.8345H628.256C621.87 30.8345 616.693 36.0113 616.693 42.3973V61.6688" stroke="#DCE1E8" stroke-width="2"/>
<path d="M585.859 30.8345L605.131 30.8345C611.517 30.8345 616.694 25.6576 616.694 19.2716L616.694 0.000149356" stroke="#DCE1E8" stroke-width="2"/>
<path d="M647.527 96.3577H628.256C621.87 96.3577 616.693 91.1808 616.693 84.7948V65.5233" stroke="#DCE1E8" stroke-width="2"/>
<path d="M585.859 96.3577L605.131 96.3577C611.517 96.3577 616.694 101.535 616.694 107.921L616.694 127.192" stroke="#DCE1E8" stroke-width="2"/>
<path d="M520.336 161.88H539.607C545.993 161.88 551.17 167.057 551.17 173.443V192.715" stroke="#DCE1E8" stroke-width="2"/>
<path d="M520.336 292.926H539.607C545.993 292.926 551.17 298.103 551.17 304.489V323.761" stroke="#DCE1E8" stroke-width="2"/>
<path d="M520.336 423.972H539.607C545.993 423.972 551.17 429.149 551.17 435.535V454.807" stroke="#DCE1E8" stroke-width="2"/>
<path d="M520.336 555.018H539.607C545.993 555.018 551.17 560.195 551.17 566.581V585.853" stroke="#DCE1E8" stroke-width="2"/>
<path d="M582.008 161.88L562.736 161.88C556.35 161.88 551.173 156.703 551.173 150.317L551.173 131.046" stroke="#DCE1E8" stroke-width="2"/>
<path d="M582.008 292.926L562.736 292.926C556.35 292.926 551.173 287.75 551.173 281.364L551.173 262.092" stroke="#DCE1E8" stroke-width="2"/>
<path d="M582.008 423.972L562.736 423.972C556.35 423.972 551.173 418.795 551.173 412.409L551.173 393.138" stroke="#DCE1E8" stroke-width="2"/>
<path d="M582.008 555.018L562.736 555.018C556.35 555.018 551.173 549.841 551.173 543.455L551.173 524.184" stroke="#DCE1E8" stroke-width="2"/>
<path d="M520.336 227.404H539.607C545.993 227.404 551.17 222.227 551.17 215.841V196.569" stroke="#DCE1E8" stroke-width="2"/>
<path d="M520.336 358.449H539.607C545.993 358.449 551.17 353.272 551.17 346.886V327.615" stroke="#DCE1E8" stroke-width="2"/>
<path d="M520.336 489.495H539.607C545.993 489.495 551.17 484.318 551.17 477.932V458.661" stroke="#DCE1E8" stroke-width="2"/>
<path d="M520.336 620.541H539.607C545.993 620.541 551.17 615.364 551.17 608.978V589.707" stroke="#DCE1E8" stroke-width="2"/>
<path d="M582.008 227.404L562.736 227.404C556.35 227.404 551.173 232.58 551.173 238.966L551.173 258.238" stroke="#DCE1E8" stroke-width="2"/>
<path d="M582.008 358.449L562.736 358.449C556.35 358.449 551.173 363.626 551.173 370.012L551.173 389.284" stroke="#DCE1E8" stroke-width="2"/>
<path d="M582.008 489.495L562.736 489.495C556.35 489.495 551.173 494.672 551.173 501.058L551.173 520.33" stroke="#DCE1E8" stroke-width="2"/>
<path d="M582.008 620.541L562.736 620.541C556.35 620.541 551.173 625.718 551.173 632.104L551.173 651.375" stroke="#DCE1E8" stroke-width="2"/>
<path d="M647.527 161.88H628.256C621.87 161.88 616.693 167.057 616.693 173.443V192.715" stroke="#DCE1E8" stroke-width="2"/>
<path d="M647.527 292.926H628.256C621.87 292.926 616.693 298.103 616.693 304.489V323.761" stroke="#DCE1E8" stroke-width="2"/>
<path d="M647.527 423.972H628.256C621.87 423.972 616.693 429.149 616.693 435.535V454.807" stroke="#DCE1E8" stroke-width="2"/>
<path d="M647.527 555.018H628.256C621.87 555.018 616.693 560.195 616.693 566.581V585.853" stroke="#DCE1E8" stroke-width="2"/>
<path d="M585.859 161.88L605.131 161.88C611.517 161.88 616.694 156.703 616.694 150.317L616.694 131.046" stroke="#DCE1E8" stroke-width="2"/>
<path d="M585.859 292.926L605.131 292.926C611.517 292.926 616.694 287.75 616.694 281.364L616.694 262.092" stroke="#DCE1E8" stroke-width="2"/>
<path d="M585.859 423.972L605.131 423.972C611.517 423.972 616.694 418.795 616.694 412.409L616.694 393.138" stroke="#DCE1E8" stroke-width="2"/>
<path d="M585.859 555.018L605.131 555.018C611.517 555.018 616.694 549.841 616.694 543.455L616.694 524.184" stroke="#DCE1E8" stroke-width="2"/>
<path d="M647.527 227.404H628.256C621.87 227.404 616.693 222.227 616.693 215.841V196.569" stroke="#DCE1E8" stroke-width="2"/>
<path d="M647.527 358.449H628.256C621.87 358.449 616.693 353.272 616.693 346.886V327.615" stroke="#DCE1E8" stroke-width="2"/>
<path d="M647.527 489.495H628.256C621.87 489.495 616.693 484.318 616.693 477.932V458.661" stroke="#DCE1E8" stroke-width="2"/>
<path d="M647.527 620.541H628.256C621.87 620.541 616.693 615.364 616.693 608.978V589.707" stroke="#DCE1E8" stroke-width="2"/>
<path d="M585.859 227.404L605.131 227.404C611.517 227.404 616.694 232.58 616.694 238.966L616.694 258.238" stroke="#DCE1E8" stroke-width="2"/>
<path d="M585.859 358.449L605.131 358.449C611.517 358.449 616.694 363.626 616.694 370.012L616.694 389.284" stroke="#DCE1E8" stroke-width="2"/>
<path d="M585.859 489.495L605.131 489.495C611.517 489.495 616.694 494.672 616.694 501.058L616.694 520.33" stroke="#DCE1E8" stroke-width="2"/>
<path d="M585.859 620.541L605.131 620.541C611.517 620.541 616.694 625.718 616.694 632.104L616.694 651.375" stroke="#DCE1E8" stroke-width="2"/>
<path d="M651.383 30.8345H670.654C677.04 30.8345 682.217 36.0113 682.217 42.3973V61.6688" stroke="#DCE1E8" stroke-width="2"/>
<path d="M782.426 30.8345H801.697C808.083 30.8345 813.26 36.0113 813.26 42.3973V61.6688" stroke="#DCE1E8" stroke-width="2"/>
<path d="M913.477 30.8345H932.748C939.134 30.8345 944.311 36.0113 944.311 42.3973V61.6688" stroke="#DCE1E8" stroke-width="2"/>
<path d="M713.051 30.8345L693.779 30.8345C687.393 30.8345 682.216 25.6576 682.216 19.2716L682.216 0.000149356" stroke="#DCE1E8" stroke-width="2"/>
<path d="M844.098 30.8346L824.826 30.8346C818.44 30.8346 813.264 25.6577 813.264 19.2717L813.264 0.000240909" stroke="#DCE1E8" stroke-width="2"/>
<path d="M975.145 30.8345L955.873 30.8345C949.487 30.8345 944.31 25.6576 944.31 19.2716L944.31 0.000149356" stroke="#DCE1E8" stroke-width="2"/>
<path d="M651.383 96.3577H670.654C677.04 96.3577 682.217 91.1808 682.217 84.7948V65.5233" stroke="#DCE1E8" stroke-width="2"/>
<path d="M782.426 96.3577H801.697C808.083 96.3577 813.26 91.1808 813.26 84.7948V65.5233" stroke="#DCE1E8" stroke-width="2"/>
<path d="M913.477 96.3577H932.748C939.134 96.3577 944.311 91.1808 944.311 84.7948V65.5233" stroke="#DCE1E8" stroke-width="2"/>
<path d="M713.051 96.3577L693.779 96.3577C687.393 96.3577 682.216 101.535 682.216 107.921L682.216 127.192" stroke="#DCE1E8" stroke-width="2"/>
<path d="M844.098 96.3576L824.826 96.3576C818.44 96.3576 813.264 101.535 813.264 107.921L813.264 127.192" stroke="#DCE1E8" stroke-width="2"/>
<path d="M975.145 96.3577L955.873 96.3577C949.487 96.3577 944.31 101.535 944.31 107.921L944.31 127.192" stroke="#DCE1E8" stroke-width="2"/>
<path d="M778.574 30.8345H759.303C752.917 30.8345 747.74 36.0113 747.74 42.3973V61.6688" stroke="#DCE1E8" stroke-width="2"/>
<path d="M909.621 30.8345H890.35C883.964 30.8345 878.787 36.0113 878.787 42.3973V61.6688" stroke="#DCE1E8" stroke-width="2"/>
<path d="M1040.67 30.8345H1021.4C1015.01 30.8345 1009.83 36.0113 1009.83 42.3973V61.6688" stroke="#DCE1E8" stroke-width="2"/>
<path d="M716.906 30.8345L736.178 30.8345C742.564 30.8345 747.741 25.6576 747.741 19.2716L747.741 0.000149356" stroke="#DCE1E8" stroke-width="2"/>
<path d="M847.953 30.8346L867.224 30.8346C873.61 30.8346 878.787 25.6577 878.787 19.2717L878.787 0.000240909" stroke="#DCE1E8" stroke-width="2"/>
<path d="M978.996 30.8345L998.268 30.8345C1004.65 30.8345 1009.83 25.6576 1009.83 19.2716L1009.83 0.000149356" stroke="#DCE1E8" stroke-width="2"/>
<path d="M778.574 96.3577H759.303C752.917 96.3577 747.74 91.1808 747.74 84.7948V65.5233" stroke="#DCE1E8" stroke-width="2"/>
<path d="M909.621 96.3577H890.35C883.964 96.3577 878.787 91.1808 878.787 84.7948V65.5233" stroke="#DCE1E8" stroke-width="2"/>
<path d="M1040.67 96.3577H1021.4C1015.01 96.3577 1009.83 91.1808 1009.83 84.7948V65.5233" stroke="#DCE1E8" stroke-width="2"/>
<path d="M716.906 96.3577L736.178 96.3577C742.564 96.3577 747.741 101.535 747.741 107.921L747.741 127.192" stroke="#DCE1E8" stroke-width="2"/>
<path d="M847.953 96.3576L867.224 96.3576C873.61 96.3576 878.787 101.535 878.787 107.921L878.787 127.192" stroke="#DCE1E8" stroke-width="2"/>
<path d="M978.996 96.3577L998.268 96.3577C1004.65 96.3577 1009.83 101.535 1009.83 107.921L1009.83 127.192" stroke="#DCE1E8" stroke-width="2"/>
<path d="M651.383 161.88H670.654C677.04 161.88 682.217 167.057 682.217 173.443V192.715" stroke="#DCE1E8" stroke-width="2"/>
<path d="M782.426 161.88H801.697C808.083 161.88 813.26 167.057 813.26 173.443V192.715" stroke="#DCE1E8" stroke-width="2"/>
<path d="M913.477 161.88H932.748C939.134 161.88 944.311 167.057 944.311 173.443V192.715" stroke="#DCE1E8" stroke-width="2"/>
<path d="M651.383 292.926H670.654C677.04 292.926 682.217 298.103 682.217 304.489V323.761" stroke="#DCE1E8" stroke-width="2"/>
<path d="M782.426 292.926H801.697C808.083 292.926 813.26 298.103 813.26 304.489V323.761" stroke="#DCE1E8" stroke-width="2"/>
<path d="M913.477 292.926H932.748C939.134 292.926 944.311 298.103 944.311 304.489V323.761" stroke="#DCE1E8" stroke-width="2"/>
<path d="M651.383 423.972H670.654C677.04 423.972 682.217 429.149 682.217 435.535V454.807" stroke="#DCE1E8" stroke-width="2"/>
<path d="M782.426 423.972H801.697C808.083 423.972 813.26 429.149 813.26 435.535V454.807" stroke="#DCE1E8" stroke-width="2"/>
<path d="M913.477 423.972H932.748C939.134 423.972 944.311 429.149 944.311 435.535V454.807" stroke="#DCE1E8" stroke-width="2"/>
<path d="M651.383 555.018H670.654C677.04 555.018 682.217 560.195 682.217 566.581V585.853" stroke="#DCE1E8" stroke-width="2"/>
<path d="M782.426 555.018H801.697C808.083 555.018 813.26 560.195 813.26 566.581V585.853" stroke="#DCE1E8" stroke-width="2"/>
<path d="M913.477 555.018H932.748C939.134 555.018 944.311 560.195 944.311 566.581V585.853" stroke="#DCE1E8" stroke-width="2"/>
<path d="M713.051 161.88L693.779 161.88C687.393 161.88 682.216 156.703 682.216 150.317L682.216 131.046" stroke="#DCE1E8" stroke-width="2"/>
<path d="M844.098 161.88L824.826 161.88C818.44 161.88 813.264 156.704 813.264 150.318L813.264 131.046" stroke="#DCE1E8" stroke-width="2"/>
<path d="M975.145 161.88L955.873 161.88C949.487 161.88 944.31 156.703 944.31 150.317L944.31 131.046" stroke="#DCE1E8" stroke-width="2"/>
<path d="M713.051 292.926L693.779 292.926C687.393 292.926 682.216 287.75 682.216 281.364L682.216 262.092" stroke="#DCE1E8" stroke-width="2"/>
<path d="M844.098 292.926L824.826 292.926C818.44 292.926 813.264 287.75 813.264 281.364L813.264 262.092" stroke="#DCE1E8" stroke-width="2"/>
<path d="M975.145 292.926L955.873 292.926C949.487 292.926 944.31 287.75 944.31 281.364L944.31 262.092" stroke="#DCE1E8" stroke-width="2"/>
<path d="M713.051 423.972L693.779 423.972C687.393 423.972 682.216 418.795 682.216 412.409L682.216 393.138" stroke="#DCE1E8" stroke-width="2"/>
<path d="M844.098 423.972L824.826 423.972C818.44 423.972 813.264 418.795 813.264 412.409L813.264 393.138" stroke="#DCE1E8" stroke-width="2"/>
<path d="M975.145 423.972L955.873 423.972C949.487 423.972 944.31 418.795 944.31 412.409L944.31 393.138" stroke="#DCE1E8" stroke-width="2"/>
<path d="M713.051 555.018L693.779 555.018C687.393 555.018 682.216 549.841 682.216 543.455L682.216 524.184" stroke="#DCE1E8" stroke-width="2"/>
<path d="M844.098 555.018L824.826 555.018C818.44 555.018 813.264 549.841 813.264 543.455L813.264 524.184" stroke="#DCE1E8" stroke-width="2"/>
<path d="M975.145 555.018L955.873 555.018C949.487 555.018 944.31 549.841 944.31 543.455L944.31 524.184" stroke="#DCE1E8" stroke-width="2"/>
<path d="M651.383 227.404H670.654C677.04 227.404 682.217 222.227 682.217 215.841V196.569" stroke="#DCE1E8" stroke-width="2"/>
<path d="M782.426 227.404H801.697C808.083 227.404 813.26 222.227 813.26 215.841V196.569" stroke="#DCE1E8" stroke-width="2"/>
<path d="M913.477 227.404H932.748C939.134 227.404 944.311 222.227 944.311 215.841V196.569" stroke="#DCE1E8" stroke-width="2"/>
<path d="M651.383 358.449H670.654C677.04 358.449 682.217 353.272 682.217 346.886V327.615" stroke="#DCE1E8" stroke-width="2"/>
<path d="M782.426 358.449H801.697C808.083 358.449 813.26 353.272 813.26 346.886V327.615" stroke="#DCE1E8" stroke-width="2"/>
<path d="M913.477 358.449H932.748C939.134 358.449 944.311 353.272 944.311 346.886V327.615" stroke="#DCE1E8" stroke-width="2"/>
<path d="M651.383 489.495H670.654C677.04 489.495 682.217 484.318 682.217 477.932V458.661" stroke="#DCE1E8" stroke-width="2"/>
<path d="M782.426 489.495H801.697C808.083 489.495 813.26 484.318 813.26 477.932V458.661" stroke="#DCE1E8" stroke-width="2"/>
<path d="M913.477 489.495H932.748C939.134 489.495 944.311 484.318 944.311 477.932V458.661" stroke="#DCE1E8" stroke-width="2"/>
<path d="M651.383 620.541H670.654C677.04 620.541 682.217 615.364 682.217 608.978V589.707" stroke="#DCE1E8" stroke-width="2"/>
<path d="M782.426 620.541H801.697C808.083 620.541 813.26 615.364 813.26 608.978V589.707" stroke="#DCE1E8" stroke-width="2"/>
<path d="M913.477 620.541H932.748C939.134 620.541 944.311 615.364 944.311 608.978V589.707" stroke="#DCE1E8" stroke-width="2"/>
<path d="M713.051 227.404L693.779 227.404C687.393 227.404 682.216 232.58 682.216 238.966L682.216 258.238" stroke="#DCE1E8" stroke-width="2"/>
<path d="M844.098 227.404L824.826 227.404C818.44 227.404 813.264 232.58 813.264 238.966L813.264 258.238" stroke="#DCE1E8" stroke-width="2"/>
<path d="M975.145 227.404L955.873 227.404C949.487 227.404 944.31 232.58 944.31 238.966L944.31 258.238" stroke="#DCE1E8" stroke-width="2"/>
<path d="M713.051 358.449L693.779 358.449C687.393 358.449 682.216 363.626 682.216 370.012L682.216 389.284" stroke="#DCE1E8" stroke-width="2"/>
<path d="M844.098 358.449L824.826 358.449C818.44 358.449 813.264 363.626 813.264 370.012L813.264 389.284" stroke="#DCE1E8" stroke-width="2"/>
<path d="M975.145 358.449L955.873 358.449C949.487 358.449 944.31 363.626 944.31 370.012L944.31 389.284" stroke="#DCE1E8" stroke-width="2"/>
<path d="M713.051 489.495L693.779 489.495C687.393 489.495 682.216 494.672 682.216 501.058L682.216 520.33" stroke="#DCE1E8" stroke-width="2"/>
<path d="M844.098 489.495L824.826 489.495C818.44 489.495 813.264 494.672 813.264 501.058L813.264 520.33" stroke="#DCE1E8" stroke-width="2"/>
<path d="M975.145 489.495L955.873 489.495C949.487 489.495 944.31 494.672 944.31 501.058L944.31 520.33" stroke="#DCE1E8" stroke-width="2"/>
<path d="M713.051 620.541L693.779 620.541C687.393 620.541 682.216 625.718 682.216 632.104L682.216 651.375" stroke="#DCE1E8" stroke-width="2"/>
<path d="M844.098 620.541L824.826 620.541C818.44 620.541 813.264 625.718 813.264 632.104L813.264 651.375" stroke="#DCE1E8" stroke-width="2"/>
<path d="M975.145 620.541L955.873 620.541C949.487 620.541 944.31 625.718 944.31 632.104L944.31 651.375" stroke="#DCE1E8" stroke-width="2"/>
<path d="M778.574 161.88H759.303C752.917 161.88 747.74 167.057 747.74 173.443V192.715" stroke="#DCE1E8" stroke-width="2"/>
<path d="M909.621 161.88H890.35C883.964 161.88 878.787 167.057 878.787 173.443V192.715" stroke="#DCE1E8" stroke-width="2"/>
<path d="M1040.67 161.88H1021.4C1015.01 161.88 1009.83 167.057 1009.83 173.443V192.715" stroke="#DCE1E8" stroke-width="2"/>
<path d="M778.574 292.926H759.303C752.917 292.926 747.74 298.103 747.74 304.489V323.761" stroke="#DCE1E8" stroke-width="2"/>
<path d="M909.621 292.926H890.35C883.964 292.926 878.787 298.103 878.787 304.489V323.761" stroke="#DCE1E8" stroke-width="2"/>
<path d="M1040.67 292.926H1021.4C1015.01 292.926 1009.83 298.103 1009.83 304.489V323.761" stroke="#DCE1E8" stroke-width="2"/>
<path d="M778.574 423.972H759.303C752.917 423.972 747.74 429.149 747.74 435.535V454.807" stroke="#DCE1E8" stroke-width="2"/>
<path d="M909.621 423.972H890.35C883.964 423.972 878.787 429.149 878.787 435.535V454.807" stroke="#DCE1E8" stroke-width="2"/>
<path d="M1040.67 423.972H1021.4C1015.01 423.972 1009.83 429.149 1009.83 435.535V454.807" stroke="#DCE1E8" stroke-width="2"/>
<path d="M778.574 555.018H759.303C752.917 555.018 747.74 560.195 747.74 566.581V585.853" stroke="#DCE1E8" stroke-width="2"/>
<path d="M909.621 555.018H890.35C883.964 555.018 878.787 560.195 878.787 566.581V585.853" stroke="#DCE1E8" stroke-width="2"/>
<path d="M1040.67 555.018H1021.4C1015.01 555.018 1009.83 560.195 1009.83 566.581V585.853" stroke="#DCE1E8" stroke-width="2"/>
<path d="M716.906 161.88L736.178 161.88C742.564 161.88 747.741 156.703 747.741 150.317L747.741 131.046" stroke="#DCE1E8" stroke-width="2"/>
<path d="M847.953 161.88L867.224 161.88C873.61 161.88 878.787 156.704 878.787 150.318L878.787 131.046" stroke="#DCE1E8" stroke-width="2"/>
<path d="M978.996 161.88L998.268 161.88C1004.65 161.88 1009.83 156.703 1009.83 150.317L1009.83 131.046" stroke="#DCE1E8" stroke-width="2"/>
<path d="M716.906 292.926L736.178 292.926C742.564 292.926 747.741 287.75 747.741 281.364L747.741 262.092" stroke="#DCE1E8" stroke-width="2"/>
<path d="M847.953 292.926L867.224 292.926C873.61 292.926 878.787 287.75 878.787 281.364L878.787 262.092" stroke="#DCE1E8" stroke-width="2"/>
<path d="M978.996 292.926L998.268 292.926C1004.65 292.926 1009.83 287.75 1009.83 281.364L1009.83 262.092" stroke="#DCE1E8" stroke-width="2"/>
<path d="M716.906 423.972L736.178 423.972C742.564 423.972 747.741 418.795 747.741 412.409L747.741 393.138" stroke="#DCE1E8" stroke-width="2"/>
<path d="M847.953 423.972L867.224 423.972C873.61 423.972 878.787 418.795 878.787 412.409L878.787 393.138" stroke="#DCE1E8" stroke-width="2"/>
<path d="M978.996 423.972L998.268 423.972C1004.65 423.972 1009.83 418.795 1009.83 412.409L1009.83 393.138" stroke="#DCE1E8" stroke-width="2"/>
<path d="M716.906 555.018L736.178 555.018C742.564 555.018 747.741 549.841 747.741 543.455L747.741 524.184" stroke="#DCE1E8" stroke-width="2"/>
<path d="M847.953 555.018L867.224 555.018C873.61 555.018 878.787 549.841 878.787 543.455L878.787 524.184" stroke="#DCE1E8" stroke-width="2"/>
<path d="M978.996 555.018L998.268 555.018C1004.65 555.018 1009.83 549.841 1009.83 543.455L1009.83 524.184" stroke="#DCE1E8" stroke-width="2"/>
<path d="M778.574 227.404H759.303C752.917 227.404 747.74 222.227 747.74 215.841V196.569" stroke="#DCE1E8" stroke-width="2"/>
<path d="M909.621 227.404H890.35C883.964 227.404 878.787 222.227 878.787 215.841V196.569" stroke="#DCE1E8" stroke-width="2"/>
<path d="M1040.67 227.404H1021.4C1015.01 227.404 1009.83 222.227 1009.83 215.841V196.569" stroke="#DCE1E8" stroke-width="2"/>
<path d="M778.574 358.449H759.303C752.917 358.449 747.74 353.272 747.74 346.886V327.615" stroke="#DCE1E8" stroke-width="2"/>
<path d="M909.621 358.449H890.35C883.964 358.449 878.787 353.272 878.787 346.886V327.615" stroke="#DCE1E8" stroke-width="2"/>
<path d="M1040.67 358.449H1021.4C1015.01 358.449 1009.83 353.272 1009.83 346.886V327.615" stroke="#DCE1E8" stroke-width="2"/>
<path d="M778.574 489.495H759.303C752.917 489.495 747.74 484.318 747.74 477.932V458.661" stroke="#DCE1E8" stroke-width="2"/>
<path d="M909.621 489.495H890.35C883.964 489.495 878.787 484.318 878.787 477.932V458.661" stroke="#DCE1E8" stroke-width="2"/>
<path d="M1040.67 489.495H1021.4C1015.01 489.495 1009.83 484.318 1009.83 477.932V458.661" stroke="#DCE1E8" stroke-width="2"/>
<path d="M778.574 620.541H759.303C752.917 620.541 747.74 615.364 747.74 608.978V589.707" stroke="#DCE1E8" stroke-width="2"/>
<path d="M909.621 620.541H890.35C883.964 620.541 878.787 615.364 878.787 608.978V589.707" stroke="#DCE1E8" stroke-width="2"/>
<path d="M1040.67 620.541H1021.4C1015.01 620.541 1009.83 615.364 1009.83 608.978V589.707" stroke="#DCE1E8" stroke-width="2"/>
<path d="M716.906 227.404L736.178 227.404C742.564 227.404 747.741 232.58 747.741 238.966L747.741 258.238" stroke="#DCE1E8" stroke-width="2"/>
<path d="M847.953 227.404L867.224 227.404C873.61 227.404 878.787 232.58 878.787 238.966L878.787 258.238" stroke="#DCE1E8" stroke-width="2"/>
<path d="M978.996 227.404L998.268 227.404C1004.65 227.404 1009.83 232.58 1009.83 238.966L1009.83 258.238" stroke="#DCE1E8" stroke-width="2"/>
<path d="M716.906 358.449L736.178 358.449C742.564 358.449 747.741 363.626 747.741 370.012L747.741 389.284" stroke="#DCE1E8" stroke-width="2"/>
<path d="M847.953 358.449L867.224 358.449C873.61 358.449 878.787 363.626 878.787 370.012L878.787 389.284" stroke="#DCE1E8" stroke-width="2"/>
<path d="M978.996 358.449L998.268 358.449C1004.65 358.449 1009.83 363.626 1009.83 370.012L1009.83 389.284" stroke="#DCE1E8" stroke-width="2"/>
<path d="M716.906 489.495L736.178 489.495C742.564 489.495 747.741 494.672 747.741 501.058L747.741 520.33" stroke="#DCE1E8" stroke-width="2"/>
<path d="M847.953 489.495L867.224 489.495C873.61 489.495 878.787 494.672 878.787 501.058L878.787 520.33" stroke="#DCE1E8" stroke-width="2"/>
<path d="M978.996 489.495L998.268 489.495C1004.65 489.495 1009.83 494.672 1009.83 501.058L1009.83 520.33" stroke="#DCE1E8" stroke-width="2"/>
<path d="M716.906 620.541L736.178 620.541C742.564 620.541 747.741 625.718 747.741 632.104L747.741 651.375" stroke="#DCE1E8" stroke-width="2"/>
<path d="M847.953 620.541L867.224 620.541C873.61 620.541 878.787 625.718 878.787 632.104L878.787 651.375" stroke="#DCE1E8" stroke-width="2"/>
<path d="M978.996 620.541L998.268 620.541C1004.65 620.541 1009.83 625.718 1009.83 632.104L1009.83 651.375" stroke="#DCE1E8" stroke-width="2"/>
<path d="M1040.67 30.8343H1059.94C1066.33 30.8343 1071.5 36.0112 1071.5 42.3972V61.6686" stroke="#DCE1E8" stroke-width="2"/>
<path d="M1102.34 30.8342L1083.07 30.8342C1076.68 30.8342 1071.51 25.6574 1071.51 19.2714L1071.51 -9.47848e-05" stroke="#DCE1E8" stroke-width="2"/>
<path d="M1040.67 96.3576H1059.94C1066.33 96.3576 1071.5 91.1808 1071.5 84.7948V65.5233" stroke="#DCE1E8" stroke-width="2"/>
<path d="M1102.34 96.3577L1083.07 96.3577C1076.68 96.3577 1071.51 101.535 1071.51 107.921L1071.51 127.192" stroke="#DCE1E8" stroke-width="2"/>
<path d="M1167.86 30.8342H1148.59C1142.2 30.8342 1137.03 36.0111 1137.03 42.3971V61.6685" stroke="#DCE1E8" stroke-width="2"/>
<path d="M1106.19 30.8342L1125.46 30.8342C1131.85 30.8342 1137.03 25.6574 1137.03 19.2714L1137.03 -9.47848e-05" stroke="#DCE1E8" stroke-width="2"/>
<path d="M1167.86 96.3577H1148.59C1142.2 96.3577 1137.03 91.1808 1137.03 84.7948V65.5233" stroke="#DCE1E8" stroke-width="2"/>
<path d="M1106.19 96.3577L1125.46 96.3577C1131.85 96.3577 1137.03 101.535 1137.03 107.921L1137.03 127.192" stroke="#DCE1E8" stroke-width="2"/>
<path d="M1040.67 161.88H1059.94C1066.33 161.88 1071.5 167.057 1071.5 173.443V192.715" stroke="#DCE1E8" stroke-width="2"/>
<path d="M1040.67 292.926H1059.94C1066.33 292.926 1071.5 298.103 1071.5 304.489V323.76" stroke="#DCE1E8" stroke-width="2"/>
<path d="M1040.67 423.972H1059.94C1066.33 423.972 1071.5 429.149 1071.5 435.535V454.806" stroke="#DCE1E8" stroke-width="2"/>
<path d="M1040.67 555.018H1059.94C1066.33 555.018 1071.5 560.195 1071.5 566.581V585.852" stroke="#DCE1E8" stroke-width="2"/>
<path d="M1102.34 161.88L1083.07 161.88C1076.68 161.88 1071.51 156.703 1071.51 150.317L1071.51 131.046" stroke="#DCE1E8" stroke-width="2"/>
<path d="M1102.34 292.926L1083.07 292.926C1076.68 292.926 1071.51 287.749 1071.51 281.363L1071.51 262.092" stroke="#DCE1E8" stroke-width="2"/>
<path d="M1102.34 423.972L1083.07 423.972C1076.68 423.972 1071.51 418.795 1071.51 412.409L1071.51 393.138" stroke="#DCE1E8" stroke-width="2"/>
<path d="M1102.34 555.018L1083.07 555.018C1076.68 555.018 1071.51 549.841 1071.51 543.455L1071.51 524.184" stroke="#DCE1E8" stroke-width="2"/>
<path d="M1040.67 227.404H1059.94C1066.33 227.404 1071.5 222.227 1071.5 215.841V196.569" stroke="#DCE1E8" stroke-width="2"/>
<path d="M1040.67 358.449H1059.94C1066.33 358.449 1071.5 353.272 1071.5 346.886V327.615" stroke="#DCE1E8" stroke-width="2"/>
<path d="M1040.67 489.495H1059.94C1066.33 489.495 1071.5 484.318 1071.5 477.932V458.661" stroke="#DCE1E8" stroke-width="2"/>
<path d="M1040.67 620.541H1059.94C1066.33 620.541 1071.5 615.364 1071.5 608.978V589.706" stroke="#DCE1E8" stroke-width="2"/>
<path d="M1102.34 227.404L1083.07 227.404C1076.68 227.404 1071.51 232.58 1071.51 238.966L1071.51 258.238" stroke="#DCE1E8" stroke-width="2"/>
<path d="M1102.34 358.449L1083.07 358.449C1076.68 358.449 1071.51 363.626 1071.51 370.012L1071.51 389.284" stroke="#DCE1E8" stroke-width="2"/>
<path d="M1102.34 489.495L1083.07 489.495C1076.68 489.495 1071.51 494.672 1071.51 501.058L1071.51 520.329" stroke="#DCE1E8" stroke-width="2"/>
<path d="M1102.34 620.541L1083.07 620.541C1076.68 620.541 1071.51 625.718 1071.51 632.104L1071.51 651.375" stroke="#DCE1E8" stroke-width="2"/>
<path d="M1167.86 161.88H1148.59C1142.2 161.88 1137.03 167.057 1137.03 173.443V192.714" stroke="#DCE1E8" stroke-width="2"/>
<path d="M1167.86 292.926H1148.59C1142.2 292.926 1137.03 298.103 1137.03 304.489V323.76" stroke="#DCE1E8" stroke-width="2"/>
<path d="M1167.86 423.972H1148.59C1142.2 423.972 1137.03 429.149 1137.03 435.535V454.806" stroke="#DCE1E8" stroke-width="2"/>
<path d="M1167.86 555.018H1148.59C1142.2 555.018 1137.03 560.195 1137.03 566.581V585.852" stroke="#DCE1E8" stroke-width="2"/>
<path d="M1106.19 161.88L1125.46 161.88C1131.85 161.88 1137.03 156.703 1137.03 150.317L1137.03 131.046" stroke="#DCE1E8" stroke-width="2"/>
<path d="M1106.19 292.926L1125.46 292.926C1131.85 292.926 1137.03 287.749 1137.03 281.363L1137.03 262.092" stroke="#DCE1E8" stroke-width="2"/>
<path d="M1106.19 423.972L1125.46 423.972C1131.85 423.972 1137.03 418.795 1137.03 412.409L1137.03 393.138" stroke="#DCE1E8" stroke-width="2"/>
<path d="M1106.19 555.018L1125.46 555.018C1131.85 555.018 1137.03 549.841 1137.03 543.455L1137.03 524.184" stroke="#DCE1E8" stroke-width="2"/>
<path d="M1167.86 227.404H1148.59C1142.2 227.404 1137.03 222.227 1137.03 215.841V196.569" stroke="#DCE1E8" stroke-width="2"/>
<path d="M1167.86 358.449H1148.59C1142.2 358.449 1137.03 353.272 1137.03 346.886V327.615" stroke="#DCE1E8" stroke-width="2"/>
<path d="M1167.86 489.495H1148.59C1142.2 489.495 1137.03 484.318 1137.03 477.932V458.661" stroke="#DCE1E8" stroke-width="2"/>
<path d="M1167.86 620.541H1148.59C1142.2 620.541 1137.03 615.364 1137.03 608.978V589.706" stroke="#DCE1E8" stroke-width="2"/>
<path d="M1106.19 227.404L1125.46 227.404C1131.85 227.404 1137.03 232.58 1137.03 238.966L1137.03 258.238" stroke="#DCE1E8" stroke-width="2"/>
<path d="M1106.19 358.449L1125.46 358.449C1131.85 358.449 1137.03 363.626 1137.03 370.012L1137.03 389.284" stroke="#DCE1E8" stroke-width="2"/>
<path d="M1106.19 489.495L1125.46 489.495C1131.85 489.495 1137.03 494.672 1137.03 501.058L1137.03 520.329" stroke="#DCE1E8" stroke-width="2"/>
<path d="M1106.19 620.541L1125.46 620.541C1131.85 620.541 1137.03 625.718 1137.03 632.104L1137.03 651.375" stroke="#DCE1E8" stroke-width="2"/>
<path d="M1171.71 30.8342H1190.99C1197.37 30.8342 1202.55 36.0111 1202.55 42.3971V61.6685" stroke="#DCE1E8" stroke-width="2"/>
<path d="M1302.76 30.8342H1322.03C1328.42 30.8342 1333.59 36.0111 1333.59 42.3971V61.6685" stroke="#DCE1E8" stroke-width="2"/>
<path d="M1433.81 30.8342H1453.08C1459.47 30.8342 1464.64 36.0111 1464.64 42.3971V61.6685" stroke="#DCE1E8" stroke-width="2"/>
<path d="M1233.38 30.8342L1214.11 30.8342C1207.73 30.8342 1202.55 25.6574 1202.55 19.2714L1202.55 -9.47848e-05" stroke="#DCE1E8" stroke-width="2"/>
<path d="M1364.43 30.8343L1345.16 30.8343C1338.77 30.8343 1333.6 25.6574 1333.6 19.2714L1333.6 -3.23206e-06" stroke="#DCE1E8" stroke-width="2"/>
<path d="M1495.48 30.8342L1476.21 30.8342C1469.82 30.8342 1464.64 25.6574 1464.64 19.2714L1464.64 -9.47848e-05" stroke="#DCE1E8" stroke-width="2"/>
<path d="M1171.71 96.3577H1190.99C1197.37 96.3577 1202.55 91.1808 1202.55 84.7948V65.5233" stroke="#DCE1E8" stroke-width="2"/>
<path d="M1302.76 96.3577H1322.03C1328.42 96.3577 1333.59 91.1808 1333.59 84.7948V65.5233" stroke="#DCE1E8" stroke-width="2"/>
<path d="M1433.81 96.3577H1453.08C1459.47 96.3577 1464.64 91.1808 1464.64 84.7948V65.5233" stroke="#DCE1E8" stroke-width="2"/>
<path d="M1233.38 96.3577L1214.11 96.3577C1207.73 96.3577 1202.55 101.535 1202.55 107.921L1202.55 127.192" stroke="#DCE1E8" stroke-width="2"/>
<path d="M1364.43 96.3576L1345.16 96.3576C1338.77 96.3576 1333.6 101.535 1333.6 107.921L1333.6 127.192" stroke="#DCE1E8" stroke-width="2"/>
<path d="M1495.48 96.3577L1476.21 96.3577C1469.82 96.3577 1464.64 101.535 1464.64 107.921L1464.64 127.192" stroke="#DCE1E8" stroke-width="2"/>
<path d="M1298.91 30.8342H1279.63C1273.25 30.8342 1268.07 36.0111 1268.07 42.3971V61.6685" stroke="#DCE1E8" stroke-width="2"/>
<path d="M1429.95 30.8342H1410.68C1404.3 30.8342 1399.12 36.0111 1399.12 42.3971V61.6685" stroke="#DCE1E8" stroke-width="2"/>
<path d="M1561 30.8342H1541.73C1535.34 30.8342 1530.17 36.0111 1530.17 42.3971V61.6685" stroke="#DCE1E8" stroke-width="2"/>
<path d="M1237.24 30.8342L1256.51 30.8342C1262.9 30.8342 1268.07 25.6574 1268.07 19.2714L1268.07 -9.47848e-05" stroke="#DCE1E8" stroke-width="2"/>
<path d="M1368.29 30.8343L1387.56 30.8343C1393.94 30.8343 1399.12 25.6574 1399.12 19.2714L1399.12 -3.23206e-06" stroke="#DCE1E8" stroke-width="2"/>
<path d="M1499.33 30.8342L1518.6 30.8342C1524.99 30.8342 1530.16 25.6574 1530.16 19.2714L1530.16 -9.47848e-05" stroke="#DCE1E8" stroke-width="2"/>
<path d="M1298.91 96.3577H1279.63C1273.25 96.3577 1268.07 91.1808 1268.07 84.7948V65.5233" stroke="#DCE1E8" stroke-width="2"/>
<path d="M1429.95 96.3577H1410.68C1404.3 96.3577 1399.12 91.1808 1399.12 84.7948V65.5233" stroke="#DCE1E8" stroke-width="2"/>
<path d="M1561 96.3577H1541.73C1535.34 96.3577 1530.17 91.1808 1530.17 84.7948V65.5233" stroke="#DCE1E8" stroke-width="2"/>
<path d="M1237.24 96.3577L1256.51 96.3577C1262.9 96.3577 1268.07 101.535 1268.07 107.921L1268.07 127.192" stroke="#DCE1E8" stroke-width="2"/>
<path d="M1368.29 96.3576L1387.56 96.3576C1393.94 96.3576 1399.12 101.535 1399.12 107.921L1399.12 127.192" stroke="#DCE1E8" stroke-width="2"/>
<path d="M1499.33 96.3577L1518.6 96.3577C1524.99 96.3577 1530.16 101.535 1530.16 107.921L1530.16 127.192" stroke="#DCE1E8" stroke-width="2"/>
<path d="M1171.71 161.88H1190.99C1197.37 161.88 1202.55 167.057 1202.55 173.443V192.714" stroke="#DCE1E8" stroke-width="2"/>
<path d="M1302.76 161.88H1322.03C1328.42 161.88 1333.59 167.057 1333.59 173.443V192.714" stroke="#DCE1E8" stroke-width="2"/>
<path d="M1433.81 161.88H1453.08C1459.47 161.88 1464.64 167.057 1464.64 173.443V192.714" stroke="#DCE1E8" stroke-width="2"/>
<path d="M1171.71 292.926H1190.99C1197.37 292.926 1202.55 298.103 1202.55 304.489V323.76" stroke="#DCE1E8" stroke-width="2"/>
<path d="M1302.76 292.926H1322.03C1328.42 292.926 1333.59 298.103 1333.59 304.489V323.76" stroke="#DCE1E8" stroke-width="2"/>
<path d="M1433.81 292.926H1453.08C1459.47 292.926 1464.64 298.103 1464.64 304.489V323.76" stroke="#DCE1E8" stroke-width="2"/>
<path d="M1171.71 423.972H1190.99C1197.37 423.972 1202.55 429.149 1202.55 435.535V454.806" stroke="#DCE1E8" stroke-width="2"/>
<path d="M1302.76 423.972H1322.03C1328.42 423.972 1333.59 429.149 1333.59 435.535V454.806" stroke="#DCE1E8" stroke-width="2"/>
<path d="M1433.81 423.972H1453.08C1459.47 423.972 1464.64 429.149 1464.64 435.535V454.806" stroke="#DCE1E8" stroke-width="2"/>
<path d="M1171.71 555.018H1190.99C1197.37 555.018 1202.55 560.195 1202.55 566.581V585.852" stroke="#DCE1E8" stroke-width="2"/>
<path d="M1302.76 555.018H1322.03C1328.42 555.018 1333.59 560.195 1333.59 566.581V585.852" stroke="#DCE1E8" stroke-width="2"/>
<path d="M1433.81 555.018H1453.08C1459.47 555.018 1464.64 560.195 1464.64 566.581V585.852" stroke="#DCE1E8" stroke-width="2"/>
<path d="M1233.38 161.88L1214.11 161.88C1207.73 161.88 1202.55 156.703 1202.55 150.317L1202.55 131.046" stroke="#DCE1E8" stroke-width="2"/>
<path d="M1364.43 161.88L1345.16 161.88C1338.77 161.88 1333.6 156.703 1333.6 150.317L1333.6 131.046" stroke="#DCE1E8" stroke-width="2"/>
<path d="M1495.48 161.88L1476.21 161.88C1469.82 161.88 1464.64 156.703 1464.64 150.317L1464.64 131.046" stroke="#DCE1E8" stroke-width="2"/>
<path d="M1233.38 292.926L1214.11 292.926C1207.73 292.926 1202.55 287.749 1202.55 281.363L1202.55 262.092" stroke="#DCE1E8" stroke-width="2"/>
<path d="M1364.43 292.926L1345.16 292.926C1338.77 292.926 1333.6 287.749 1333.6 281.363L1333.6 262.092" stroke="#DCE1E8" stroke-width="2"/>
<path d="M1495.48 292.926L1476.21 292.926C1469.82 292.926 1464.64 287.749 1464.64 281.363L1464.64 262.092" stroke="#DCE1E8" stroke-width="2"/>
<path d="M1233.38 423.972L1214.11 423.972C1207.73 423.972 1202.55 418.795 1202.55 412.409L1202.55 393.138" stroke="#DCE1E8" stroke-width="2"/>
<path d="M1364.43 423.972L1345.16 423.972C1338.77 423.972 1333.6 418.795 1333.6 412.409L1333.6 393.138" stroke="#DCE1E8" stroke-width="2"/>
<path d="M1495.48 423.972L1476.21 423.972C1469.82 423.972 1464.64 418.795 1464.64 412.409L1464.64 393.138" stroke="#DCE1E8" stroke-width="2"/>
<path d="M1233.38 555.018L1214.11 555.018C1207.73 555.018 1202.55 549.841 1202.55 543.455L1202.55 524.184" stroke="#DCE1E8" stroke-width="2"/>
<path d="M1364.43 555.018L1345.16 555.018C1338.77 555.018 1333.6 549.841 1333.6 543.455L1333.6 524.184" stroke="#DCE1E8" stroke-width="2"/>
<path d="M1495.48 555.018L1476.21 555.018C1469.82 555.018 1464.64 549.841 1464.64 543.455L1464.64 524.184" stroke="#DCE1E8" stroke-width="2"/>
<path d="M1171.71 227.404H1190.99C1197.37 227.404 1202.55 222.227 1202.55 215.841V196.569" stroke="#DCE1E8" stroke-width="2"/>
<path d="M1302.76 227.404H1322.03C1328.42 227.404 1333.59 222.227 1333.59 215.841V196.569" stroke="#DCE1E8" stroke-width="2"/>
<path d="M1433.81 227.404H1453.08C1459.47 227.404 1464.64 222.227 1464.64 215.841V196.569" stroke="#DCE1E8" stroke-width="2"/>
<path d="M1171.71 358.449H1190.99C1197.37 358.449 1202.55 353.272 1202.55 346.886V327.615" stroke="#DCE1E8" stroke-width="2"/>
<path d="M1302.76 358.449H1322.03C1328.42 358.449 1333.59 353.272 1333.59 346.886V327.615" stroke="#DCE1E8" stroke-width="2"/>
<path d="M1433.81 358.449H1453.08C1459.47 358.449 1464.64 353.272 1464.64 346.886V327.615" stroke="#DCE1E8" stroke-width="2"/>
<path d="M1171.71 489.495H1190.99C1197.37 489.495 1202.55 484.318 1202.55 477.932V458.661" stroke="#DCE1E8" stroke-width="2"/>
<path d="M1302.76 489.495H1322.03C1328.42 489.495 1333.59 484.318 1333.59 477.932V458.661" stroke="#DCE1E8" stroke-width="2"/>
<path d="M1433.81 489.495H1453.08C1459.47 489.495 1464.64 484.318 1464.64 477.932V458.661" stroke="#DCE1E8" stroke-width="2"/>
<path d="M1171.71 620.541H1190.99C1197.37 620.541 1202.55 615.364 1202.55 608.978V589.706" stroke="#DCE1E8" stroke-width="2"/>
<path d="M1302.76 620.541H1322.03C1328.42 620.541 1333.59 615.364 1333.59 608.978V589.706" stroke="#DCE1E8" stroke-width="2"/>
<path d="M1433.81 620.541H1453.08C1459.47 620.541 1464.64 615.364 1464.64 608.978V589.706" stroke="#DCE1E8" stroke-width="2"/>
<path d="M1233.38 227.404L1214.11 227.404C1207.73 227.404 1202.55 232.58 1202.55 238.966L1202.55 258.238" stroke="#DCE1E8" stroke-width="2"/>
<path d="M1364.43 227.404L1345.16 227.404C1338.77 227.404 1333.6 232.58 1333.6 238.966L1333.6 258.238" stroke="#DCE1E8" stroke-width="2"/>
<path d="M1495.48 227.404L1476.21 227.404C1469.82 227.404 1464.64 232.58 1464.64 238.966L1464.64 258.238" stroke="#DCE1E8" stroke-width="2"/>
<path d="M1233.38 358.449L1214.11 358.449C1207.73 358.449 1202.55 363.626 1202.55 370.012L1202.55 389.284" stroke="#DCE1E8" stroke-width="2"/>
<path d="M1364.43 358.449L1345.16 358.449C1338.77 358.449 1333.6 363.626 1333.6 370.012L1333.6 389.284" stroke="#DCE1E8" stroke-width="2"/>
<path d="M1495.48 358.449L1476.21 358.449C1469.82 358.449 1464.64 363.626 1464.64 370.012L1464.64 389.284" stroke="#DCE1E8" stroke-width="2"/>
<path d="M1233.38 489.495L1214.11 489.495C1207.73 489.495 1202.55 494.672 1202.55 501.058L1202.55 520.329" stroke="#DCE1E8" stroke-width="2"/>
<path d="M1364.43 489.495L1345.16 489.495C1338.77 489.495 1333.6 494.672 1333.6 501.058L1333.6 520.329" stroke="#DCE1E8" stroke-width="2"/>
<path d="M1495.48 489.495L1476.21 489.495C1469.82 489.495 1464.64 494.672 1464.64 501.058L1464.64 520.329" stroke="#DCE1E8" stroke-width="2"/>
<path d="M1233.38 620.541L1214.11 620.541C1207.73 620.541 1202.55 625.718 1202.55 632.104L1202.55 651.375" stroke="#DCE1E8" stroke-width="2"/>
<path d="M1364.43 620.541L1345.16 620.541C1338.77 620.541 1333.6 625.718 1333.6 632.104L1333.6 651.375" stroke="#DCE1E8" stroke-width="2"/>
<path d="M1495.48 620.541L1476.21 620.541C1469.82 620.541 1464.64 625.718 1464.64 632.104L1464.64 651.375" stroke="#DCE1E8" stroke-width="2"/>
<path d="M1298.91 161.88H1279.63C1273.25 161.88 1268.07 167.057 1268.07 173.443V192.714" stroke="#DCE1E8" stroke-width="2"/>
<path d="M1429.95 161.88H1410.68C1404.3 161.88 1399.12 167.057 1399.12 173.443V192.714" stroke="#DCE1E8" stroke-width="2"/>
<path d="M1561 161.88H1541.73C1535.34 161.88 1530.17 167.057 1530.17 173.443V192.714" stroke="#DCE1E8" stroke-width="2"/>
<path d="M1298.91 292.926H1279.63C1273.25 292.926 1268.07 298.103 1268.07 304.489V323.76" stroke="#DCE1E8" stroke-width="2"/>
<path d="M1429.95 292.926H1410.68C1404.3 292.926 1399.12 298.103 1399.12 304.489V323.76" stroke="#DCE1E8" stroke-width="2"/>
<path d="M1561 292.926H1541.73C1535.34 292.926 1530.17 298.103 1530.17 304.489V323.76" stroke="#DCE1E8" stroke-width="2"/>
<path d="M1298.91 423.972H1279.63C1273.25 423.972 1268.07 429.149 1268.07 435.535V454.806" stroke="#DCE1E8" stroke-width="2"/>
<path d="M1429.95 423.972H1410.68C1404.3 423.972 1399.12 429.149 1399.12 435.535V454.806" stroke="#DCE1E8" stroke-width="2"/>
<path d="M1561 423.972H1541.73C1535.34 423.972 1530.17 429.149 1530.17 435.535V454.806" stroke="#DCE1E8" stroke-width="2"/>
<path d="M1298.91 555.018H1279.63C1273.25 555.018 1268.07 560.195 1268.07 566.581V585.852" stroke="#DCE1E8" stroke-width="2"/>
<path d="M1429.95 555.018H1410.68C1404.3 555.018 1399.12 560.195 1399.12 566.581V585.852" stroke="#DCE1E8" stroke-width="2"/>
<path d="M1561 555.018H1541.73C1535.34 555.018 1530.17 560.195 1530.17 566.581V585.852" stroke="#DCE1E8" stroke-width="2"/>
<path d="M1237.24 161.88L1256.51 161.88C1262.9 161.88 1268.07 156.703 1268.07 150.317L1268.07 131.046" stroke="#DCE1E8" stroke-width="2"/>
<path d="M1368.29 161.88L1387.56 161.88C1393.94 161.88 1399.12 156.703 1399.12 150.317L1399.12 131.046" stroke="#DCE1E8" stroke-width="2"/>
<path d="M1499.33 161.88L1518.6 161.88C1524.99 161.88 1530.16 156.703 1530.16 150.317L1530.16 131.046" stroke="#DCE1E8" stroke-width="2"/>
<path d="M1237.24 292.926L1256.51 292.926C1262.9 292.926 1268.07 287.749 1268.07 281.363L1268.07 262.092" stroke="#DCE1E8" stroke-width="2"/>
<path d="M1368.29 292.926L1387.56 292.926C1393.94 292.926 1399.12 287.749 1399.12 281.363L1399.12 262.092" stroke="#DCE1E8" stroke-width="2"/>
<path d="M1499.33 292.926L1518.6 292.926C1524.99 292.926 1530.16 287.749 1530.16 281.363L1530.16 262.092" stroke="#DCE1E8" stroke-width="2"/>
<path d="M1237.24 423.972L1256.51 423.972C1262.9 423.972 1268.07 418.795 1268.07 412.409L1268.07 393.138" stroke="#DCE1E8" stroke-width="2"/>
<path d="M1368.29 423.972L1387.56 423.972C1393.94 423.972 1399.12 418.795 1399.12 412.409L1399.12 393.138" stroke="#DCE1E8" stroke-width="2"/>
<path d="M1499.33 423.972L1518.6 423.972C1524.99 423.972 1530.16 418.795 1530.16 412.409L1530.16 393.138" stroke="#DCE1E8" stroke-width="2"/>
<path d="M1237.24 555.018L1256.51 555.018C1262.9 555.018 1268.07 549.841 1268.07 543.455L1268.07 524.184" stroke="#DCE1E8" stroke-width="2"/>
<path d="M1368.29 555.018L1387.56 555.018C1393.94 555.018 1399.12 549.841 1399.12 543.455L1399.12 524.184" stroke="#DCE1E8" stroke-width="2"/>
<path d="M1499.33 555.018L1518.6 555.018C1524.99 555.018 1530.16 549.841 1530.16 543.455L1530.16 524.184" stroke="#DCE1E8" stroke-width="2"/>
<path d="M1298.91 227.404H1279.63C1273.25 227.404 1268.07 222.227 1268.07 215.841V196.569" stroke="#DCE1E8" stroke-width="2"/>
<path d="M1429.95 227.404H1410.68C1404.3 227.404 1399.12 222.227 1399.12 215.841V196.569" stroke="#DCE1E8" stroke-width="2"/>
<path d="M1561 227.404H1541.73C1535.34 227.404 1530.17 222.227 1530.17 215.841V196.569" stroke="#DCE1E8" stroke-width="2"/>
<path d="M1298.91 358.449H1279.63C1273.25 358.449 1268.07 353.272 1268.07 346.886V327.615" stroke="#DCE1E8" stroke-width="2"/>
<path d="M1429.95 358.449H1410.68C1404.3 358.449 1399.12 353.272 1399.12 346.886V327.615" stroke="#DCE1E8" stroke-width="2"/>
<path d="M1561 358.449H1541.73C1535.34 358.449 1530.17 353.272 1530.17 346.886V327.615" stroke="#DCE1E8" stroke-width="2"/>
<path d="M1298.91 489.495H1279.63C1273.25 489.495 1268.07 484.318 1268.07 477.932V458.661" stroke="#DCE1E8" stroke-width="2"/>
<path d="M1429.95 489.495H1410.68C1404.3 489.495 1399.12 484.318 1399.12 477.932V458.661" stroke="#DCE1E8" stroke-width="2"/>
<path d="M1561 489.495H1541.73C1535.34 489.495 1530.17 484.318 1530.17 477.932V458.661" stroke="#DCE1E8" stroke-width="2"/>
<path d="M1298.91 620.541H1279.63C1273.25 620.541 1268.07 615.364 1268.07 608.978V589.706" stroke="#DCE1E8" stroke-width="2"/>
<path d="M1429.95 620.541H1410.68C1404.3 620.541 1399.12 615.364 1399.12 608.978V589.706" stroke="#DCE1E8" stroke-width="2"/>
<path d="M1561 620.541H1541.73C1535.34 620.541 1530.17 615.364 1530.17 608.978V589.706" stroke="#DCE1E8" stroke-width="2"/>
<path d="M1237.24 227.404L1256.51 227.404C1262.9 227.404 1268.07 232.58 1268.07 238.966L1268.07 258.238" stroke="#DCE1E8" stroke-width="2"/>
<path d="M1368.29 227.404L1387.56 227.404C1393.94 227.404 1399.12 232.58 1399.12 238.966L1399.12 258.238" stroke="#DCE1E8" stroke-width="2"/>
<path d="M1499.33 227.404L1518.6 227.404C1524.99 227.404 1530.16 232.58 1530.16 238.966L1530.16 258.238" stroke="#DCE1E8" stroke-width="2"/>
<path d="M1237.24 358.449L1256.51 358.449C1262.9 358.449 1268.07 363.626 1268.07 370.012L1268.07 389.284" stroke="#DCE1E8" stroke-width="2"/>
<path d="M1368.29 358.449L1387.56 358.449C1393.94 358.449 1399.12 363.626 1399.12 370.012L1399.12 389.284" stroke="#DCE1E8" stroke-width="2"/>
<path d="M1499.33 358.449L1518.6 358.449C1524.99 358.449 1530.16 363.626 1530.16 370.012L1530.16 389.284" stroke="#DCE1E8" stroke-width="2"/>
<path d="M1237.24 489.495L1256.51 489.495C1262.9 489.495 1268.07 494.672 1268.07 501.058L1268.07 520.329" stroke="#DCE1E8" stroke-width="2"/>
<path d="M1368.29 489.495L1387.56 489.495C1393.94 489.495 1399.12 494.672 1399.12 501.058L1399.12 520.329" stroke="#DCE1E8" stroke-width="2"/>
<path d="M1499.33 489.495L1518.6 489.495C1524.99 489.495 1530.16 494.672 1530.16 501.058L1530.16 520.329" stroke="#DCE1E8" stroke-width="2"/>
<path d="M1237.24 620.541L1256.51 620.541C1262.9 620.541 1268.07 625.718 1268.07 632.104L1268.07 651.375" stroke="#DCE1E8" stroke-width="2"/>
<path d="M1368.29 620.541L1387.56 620.541C1393.94 620.541 1399.12 625.718 1399.12 632.104L1399.12 651.375" stroke="#DCE1E8" stroke-width="2"/>
<path d="M1499.33 620.541L1518.6 620.541C1524.99 620.541 1530.16 625.718 1530.16 632.104L1530.16 651.375" stroke="#DCE1E8" stroke-width="2"/>
</g>
<rect x="56" width="685" height="651" fill="url(#paint0_linear_2223_111179)"/>
<rect x="56" y="480" width="1440" height="171" fill="url(#paint1_linear_2223_111179)"/>
<rect width="445" height="651" transform="matrix(1 0 0 -1 1054 651)" fill="url(#paint2_linear_2223_111179)"/>
<defs>
<linearGradient id="paint0_linear_2223_111179" x1="741" y1="325.5" x2="56" y2="325.5" gradientUnits="userSpaceOnUse">
<stop stop-color="white" stop-opacity="0"/>
<stop offset="1" stop-color="white"/>
</linearGradient>
<linearGradient id="paint1_linear_2223_111179" x1="776" y1="480" x2="776" y2="651" gradientUnits="userSpaceOnUse">
<stop stop-color="white" stop-opacity="0"/>
<stop offset="1" stop-color="white"/>
</linearGradient>
<linearGradient id="paint2_linear_2223_111179" x1="445" y1="325.5" x2="0" y2="325.5" gradientUnits="userSpaceOnUse">
<stop stop-color="white"/>
<stop offset="1" stop-color="white" stop-opacity="0"/>
</linearGradient>
</defs>
</svg>
