<svg width="48" height="49" viewBox="0 0 48 49" fill="none" xmlns="http://www.w3.org/2000/svg">
<path d="M22 23.5C22 22.9477 22.4477 22.5 23 22.5H25C25.5523 22.5 26 22.9477 26 23.5V25.5C26 26.0523 25.5523 26.5 25 26.5H23C22.4477 26.5 22 26.0523 22 25.5V23.5Z" fill="white"/>
<path fill-rule="evenodd" clip-rule="evenodd" d="M18 8.5H22V4.5H26V8.5H30V4.5H34V8.75204C36.8112 9.47559 39.0244 11.6888 39.748 14.5L44 14.5V18.5L40 18.5V22.5H44V26.5H40V30.5H44V34.5H39.748C39.0244 37.3112 36.8112 39.5244 34 40.248V44.5H30V40.5H26V44.5H22V40.5H18V44.5H14V40.248C11.1888 39.5244 8.97559 37.3112 8.25204 34.5H4V30.5H8V26.5H4V22.5H8V18.5H4V14.5H8.25204C8.97559 11.6888 11.1888 9.47559 14 8.75204V4.5H18V8.5ZM23 18.5C20.2386 18.5 18 20.7386 18 23.5V25.5C18 28.2614 20.2386 30.5 23 30.5H25C27.7614 30.5 30 28.2614 30 25.5V23.5C30 20.7386 27.7614 18.5 25 18.5H23Z" fill="white"/>
</svg>
