<svg width="20" height="20" viewBox="0 0 20 20" fill="none" xmlns="http://www.w3.org/2000/svg">
<path d="M9.16669 9.58341C9.16669 9.3533 9.35324 9.16675 9.58335 9.16675H10.4167C10.6468 9.16675 10.8334 9.3533 10.8334 9.58341V10.4167C10.8334 10.6469 10.6468 10.8334 10.4167 10.8334H9.58335C9.35324 10.8334 9.16669 10.6469 9.16669 10.4167V9.58341Z" fill="#5D6A85"/>
<path fill-rule="evenodd" clip-rule="evenodd" d="M7.50002 3.33341H9.16669V1.66675H10.8334V3.33341H12.5V1.66675H14.1667V3.43843C15.338 3.73991 16.2602 4.66208 16.5617 5.83341L18.3334 5.83342V7.50008L16.6667 7.50008V9.16675H18.3334V10.8334H16.6667V12.5001H18.3334V14.1667H16.5617C16.2602 15.3381 15.338 16.2603 14.1667 16.5617V18.3334H12.5V16.6667H10.8334V18.3334H9.16669V16.6667H7.50002V18.3334H5.83335V16.5617C4.66201 16.2603 3.73985 15.3381 3.43837 14.1667H1.66669V12.5001H3.33335V10.8334H1.66669V9.16675H3.33335V7.50008H1.66669V5.83341H3.43837C3.73985 4.66208 4.66201 3.73991 5.83335 3.43843V1.66675H7.50002V3.33341ZM9.58335 7.50008C8.43276 7.50008 7.50002 8.43282 7.50002 9.58341V10.4167C7.50002 11.5673 8.43276 12.5001 9.58335 12.5001H10.4167C11.5673 12.5001 12.5 11.5673 12.5 10.4167V9.58341C12.5 8.43282 11.5673 7.50008 10.4167 7.50008H9.58335Z" fill="#5D6A85"/>
<path d="M9.16669 9.58341C9.16669 9.3533 9.35324 9.16675 9.58335 9.16675H10.4167C10.6468 9.16675 10.8334 9.3533 10.8334 9.58341V10.4167C10.8334 10.6469 10.6468 10.8334 10.4167 10.8334H9.58335C9.35324 10.8334 9.16669 10.6469 9.16669 10.4167V9.58341Z" stroke="#5D6A85"/>
<path fill-rule="evenodd" clip-rule="evenodd" d="M7.50002 3.33341H9.16669V1.66675H10.8334V3.33341H12.5V1.66675H14.1667V3.43843C15.338 3.73991 16.2602 4.66208 16.5617 5.83341L18.3334 5.83342V7.50008L16.6667 7.50008V9.16675H18.3334V10.8334H16.6667V12.5001H18.3334V14.1667H16.5617C16.2602 15.3381 15.338 16.2603 14.1667 16.5617V18.3334H12.5V16.6667H10.8334V18.3334H9.16669V16.6667H7.50002V18.3334H5.83335V16.5617C4.66201 16.2603 3.73985 15.3381 3.43837 14.1667H1.66669V12.5001H3.33335V10.8334H1.66669V9.16675H3.33335V7.50008H1.66669V5.83341H3.43837C3.73985 4.66208 4.66201 3.73991 5.83335 3.43843V1.66675H7.50002V3.33341ZM9.58335 7.50008C8.43276 7.50008 7.50002 8.43282 7.50002 9.58341V10.4167C7.50002 11.5673 8.43276 12.5001 9.58335 12.5001H10.4167C11.5673 12.5001 12.5 11.5673 12.5 10.4167V9.58341C12.5 8.43282 11.5673 7.50008 10.4167 7.50008H9.58335Z" stroke="#5D6A85"/>
</svg>
