<svg width="32" height="32" viewBox="0 0 32 32" fill="none" xmlns="http://www.w3.org/2000/svg">
<path fill-rule="evenodd" clip-rule="evenodd" d="M20.6155 6.64453C18.5613 3.09634 13.4385 3.09636 11.3843 6.64454L3.65539 19.9944C1.59691 23.55 4.16257 28 8.271 28H23.7288C27.8372 28 30.4028 23.55 28.3444 19.9944L20.6155 6.64453ZM14.6665 20.6666C14.6665 20.2984 14.965 20 15.3332 20H16.6665C17.0347 20 17.3332 20.2984 17.3332 20.6666V22C17.3332 22.3681 17.0347 22.6666 16.6665 22.6666H15.3332C14.965 22.6666 14.6665 22.3681 14.6665 22V20.6666ZM14.6665 10.6666V18.6666H17.3332V10.6666H14.6665Z" fill="white" fill-opacity="0.64"/>
</svg>
