<svg width="25" height="24" viewBox="0 0 25 24" fill="none" xmlns="http://www.w3.org/2000/svg">
<path fill-rule="evenodd" clip-rule="evenodd" d="M6.5 3.99994C4.29086 3.99994 2.5 5.7908 2.5 7.99994V15.9999C2.5 18.2091 4.29086 19.9999 6.5 19.9999H18.5C20.7091 19.9999 22.5 18.2091 22.5 15.9999V10.4705C22.5 8.26139 20.7091 6.47053 18.5 6.47053H13.471C12.9901 6.47053 12.5252 6.2972 12.1616 5.98231L11.0002 4.97637C10.2731 4.34659 9.34337 3.99994 8.38143 3.99994H6.5ZM11.5 12V10H13.5V12H15.5V14H13.5V16H11.5V14H9.5V12H11.5Z" fill="#9EA7B8"/>
</svg>
