<svg width="20" height="20" viewBox="0 0 20 20" fill="none" xmlns="http://www.w3.org/2000/svg">
<path d="M8.33333 10C8.33333 9.07953 9.07952 8.33333 10 8.33333C10.9205 8.33333 11.6667 9.07953 11.6667 10C11.6667 10.9205 10.9205 11.6667 10 11.6667C9.07952 11.6667 8.33333 10.9205 8.33333 10Z" fill="#5D6A85"/>
<path fill-rule="evenodd" clip-rule="evenodd" d="M11.1925 2.5C11.9146 2.5 12.5 3.08538 12.5 3.80749V4.13665C12.5 4.45468 12.6915 4.7389 12.9697 4.89292C13.2376 5.04121 13.5634 5.05591 13.8286 4.90282L14.1056 4.74289C14.735 4.37954 15.5397 4.59516 15.903 5.2245L17.116 7.32537C17.4635 7.92721 17.2572 8.69679 16.6554 9.04427L16.4351 9.17145C16.1433 9.33991 15.9821 9.66308 15.9821 10C15.9821 10.337 16.1434 10.6602 16.4352 10.8287L16.6554 10.9558C17.2572 11.3033 17.4635 12.0729 17.116 12.6747L15.9031 14.7755C15.5397 15.4049 14.7349 15.6205 14.1056 15.2572L13.8285 15.0972C13.5634 14.9441 13.2376 14.9588 12.9697 15.1071C12.6915 15.2611 12.5 15.5453 12.5 15.8633V16.1925C12.5 16.9146 11.9146 17.5 11.1925 17.5H8.92737C8.13905 17.5 7.49998 16.8609 7.49998 16.0726V15.6175C7.49998 15.3605 7.35342 15.1277 7.13352 14.9946C6.90431 14.856 6.61791 14.8394 6.38591 14.9734L5.97938 15.2081C5.30304 15.5986 4.43821 15.3668 4.04773 14.6905L2.9928 12.8633C2.58519 12.1573 2.82709 11.2545 3.53309 10.8469L3.9919 10.582C4.19776 10.4632 4.31541 10.2377 4.31541 10C4.31541 9.76235 4.19778 9.53691 3.99197 9.41809L3.53309 9.15315C2.82709 8.74554 2.5852 7.84278 2.99281 7.13677L4.04775 5.30955C4.43822 4.63324 5.30302 4.40152 5.97934 4.79199L6.3858 5.02666C6.61783 5.16062 6.90426 5.14408 7.13349 5.00539C7.35341 4.87234 7.49998 4.63953 7.49998 4.3825V3.92739C7.49998 3.13906 8.13905 2.5 8.92737 2.5H11.1925ZM10 6.66667C8.15905 6.66667 6.66667 8.15905 6.66667 10C6.66667 11.8409 8.15905 13.3333 10 13.3333C11.8409 13.3333 13.3333 11.8409 13.3333 10C13.3333 8.15905 11.8409 6.66667 10 6.66667Z" fill="#5D6A85"/>
</svg>
