<svg width="20" height="20" viewBox="0 0 20 20" fill="none" xmlns="http://www.w3.org/2000/svg">
<path d="M15.4167 8.33341H14.5834C13.893 8.33341 13.3334 8.89306 13.3334 9.58341V16.2501C13.3334 16.9404 13.893 17.5001 14.5834 17.5001H15.4167C16.1071 17.5001 16.6667 16.9404 16.6667 16.2501V9.58341C16.6667 8.89306 16.1071 8.33341 15.4167 8.33341Z" fill="#242E49"/>
<path d="M5.41671 11.6667H4.58337C3.89302 11.6667 3.33337 12.2264 3.33337 12.9167V16.2501C3.33337 16.9404 3.89302 17.5001 4.58337 17.5001H5.41671C6.10706 17.5001 6.66671 16.9404 6.66671 16.2501V12.9167C6.66671 12.2264 6.10706 11.6667 5.41671 11.6667Z" fill="#242E49"/>
<path d="M10.4167 4.16675H9.58337C8.89302 4.16675 8.33337 4.72639 8.33337 5.41675V16.2501C8.33337 16.9404 8.89302 17.5001 9.58337 17.5001H10.4167C11.1071 17.5001 11.6667 16.9404 11.6667 16.2501V5.41675C11.6667 4.72639 11.1071 4.16675 10.4167 4.16675Z" fill="#242E49"/>
</svg>
