<svg width="24" height="24" viewBox="0 0 24 24" fill="none" xmlns="http://www.w3.org/2000/svg">
<path d="M12.4998 1C11.6713 1 10.9998 1.67157 10.9998 2.5V3.5C10.9998 4.32843 11.6713 5 12.4998 5H13.4998C14.3282 5 14.9998 4.32843 14.9998 3.5V2.5C14.9998 1.67157 14.3282 1 13.4998 1H12.4998Z" fill="#0F67FE"/>
<path d="M14.6998 8.6C15.2798 9.61 16.2698 10.41 17.4998 10.78V9.5C17.4998 9.22386 17.7237 9 17.9998 9H18.4998C18.7759 9 18.9998 9.22386 18.9998 9.5V22.5C18.9998 22.7761 18.7759 23 18.4998 23H17.9998C17.7237 23 17.4998 22.7761 17.4998 22.5V12.84C15.9098 12.51 14.4998 11.65 13.4998 10.5L12.8998 13.5L13.1377 13.7266C14.3268 14.8591 14.9998 16.4294 14.9998 18.0714V22.5C14.9998 22.7761 14.7759 23 14.4998 23H13.4998C13.2237 23 12.9998 22.7761 12.9998 22.5V18.2857C12.9998 17.4647 12.6633 16.6795 12.0688 16.1133L10.8998 15L9.18761 22.6098C9.13627 22.8379 8.93365 23 8.6998 23H7.60831C7.29325 23 7.05599 22.7157 7.1171 22.4067C7.66037 19.6586 9.91282 8.26613 10.0798 7.44C10.2698 6.5 11.0798 6 11.8598 6C12.5898 6 13.2898 6.35 13.6998 7L14.6998 8.6Z" fill="#0F67FE"/>
<path d="M5.3098 12.72L7.4298 13.13L8.7798 6.27L7.6198 6.04C6.5398 5.83 5.4898 6.54 5.2798 7.62L4.5198 11.55C4.4098 12.09 4.7698 12.61 5.3098 12.72Z" fill="#0F67FE"/>
</svg>
