<svg width="65" height="64" viewBox="0 0 65 64" fill="none" xmlns="http://www.w3.org/2000/svg">
<path fill-rule="evenodd" clip-rule="evenodd" d="M19.1667 5.33325C13.2756 5.33325 8.5 10.1089 8.5 15.9999V47.9999C8.5 53.891 13.2756 58.6666 19.1667 58.6666H45.8333C51.7244 58.6666 56.5 53.891 56.5 47.9999V26.6666H45.8333C39.9423 26.6666 35.1667 21.891 35.1667 15.9999V5.33325H19.1667ZM29.8333 23.9999H21.8333V18.6666H29.8333V23.9999ZM21.8333 34.6666H43.1667V29.3333H21.8333V34.6666ZM43.1667 45.3333H21.8333V39.9999H43.1667V45.3333Z" fill="white"/>
<path d="M40.5 5.86102V15.9999C40.5 18.9454 42.8878 21.3333 45.8333 21.3333H55.9722C55.456 19.7537 54.5728 18.3015 53.3758 17.1045L44.7288 8.45745C43.5318 7.26043 42.0795 6.3773 40.5 5.86102Z" fill="white"/>
</svg>
