<svg width="25" height="24" viewBox="0 0 25 24" fill="none" xmlns="http://www.w3.org/2000/svg">
<path fill-rule="evenodd" clip-rule="evenodd" d="M12.4235 2C8.66855 2 5.61182 4.98938 5.50337 8.71806L3.6284 11.843C2.79477 13.2324 3.79558 15 5.41587 15C5.46255 15 5.50039 15.0378 5.50039 15.0845V16.5C5.50039 17.8807 6.61968 19 8.00039 19H9.00039C9.27654 19 9.50039 19.2239 9.50039 19.5V22H17.5004V18.6054C19.9636 17.2049 21.5004 14.5832 21.5004 11.7281V10C21.5004 5.58172 17.9187 2 13.5004 2H12.4235ZM12.5004 9V7H14.5004V9H16.5004V11H14.5004V13H12.5004V11H10.5004V9H12.5004Z" fill="#0F67FE"/>
</svg>
