<svg width="20" height="20" viewBox="0 0 20 20" fill="none" xmlns="http://www.w3.org/2000/svg">
<path d="M9.16663 1.70842C9.032 1.68109 8.89265 1.66675 8.74996 1.66675H6.24996C5.09937 1.66675 4.16663 2.59949 4.16663 3.75008V5.04176C5.11756 5.23478 5.83329 6.07552 5.83329 7.08341V7.91675C5.83329 8.14687 6.01984 8.33341 6.24996 8.33341H7.49996V10.0001H6.24996C5.09937 10.0001 4.16663 9.06734 4.16663 7.91675V7.08341C4.16663 6.8533 3.98008 6.66675 3.74996 6.66675C2.59937 6.66675 1.66663 7.59949 1.66663 8.75008V11.2501C1.66663 11.9906 2.05298 12.6409 2.63511 13.0103C2.93351 12.2249 3.69322 11.6667 4.58329 11.6667H6.24996C7.40055 11.6667 8.33329 12.5995 8.33329 13.7501V14.1667H6.66663V13.7501C6.66663 13.52 6.48008 13.3334 6.24996 13.3334H4.58329C4.35317 13.3334 4.16663 13.52 4.16663 13.7501V16.2501C4.16663 17.4007 5.09937 18.3334 6.24996 18.3334H8.74996C8.89265 18.3334 9.032 18.3191 9.16663 18.2917V6.62507C9.032 6.6524 8.89265 6.66675 8.74996 6.66675H7.49996V5.00008H8.74996C8.98008 5.00008 9.16663 4.81353 9.16663 4.58341V1.70842Z" fill="#242E49"/>
<path d="M10.8333 4.58341C10.8333 4.81353 11.0198 5.00008 11.25 5.00008H12.5V6.66675H11.25C11.1073 6.66675 10.9679 6.6524 10.8333 6.62507V18.2917C10.9679 18.3191 11.1073 18.3334 11.25 18.3334H13.75C14.9006 18.3334 15.8333 17.4007 15.8333 16.2501V13.7501C15.8333 13.52 15.6467 13.3334 15.4166 13.3334H13.75C13.5198 13.3334 13.3333 13.52 13.3333 13.7501V14.1667H11.6666V13.7501C11.6666 12.5995 12.5994 11.6667 13.75 11.6667H15.4166C16.3067 11.6667 17.0664 12.2249 17.3648 13.0103C17.9469 12.6409 18.3333 11.9906 18.3333 11.2501V8.75008C18.3333 7.59949 17.4006 6.66675 16.25 6.66675C16.0198 6.66675 15.8333 6.8533 15.8333 7.08341V7.91675C15.8333 9.06734 14.9006 10.0001 13.75 10.0001H12.5V8.33341H13.75C13.9801 8.33341 14.1666 8.14687 14.1666 7.91675V7.08341C14.1666 6.07552 14.8824 5.23478 15.8333 5.04176V3.75008C15.8333 2.59949 14.9006 1.66675 13.75 1.66675H11.25C11.1073 1.66675 10.9679 1.68109 10.8333 1.70842V4.58341Z" fill="#242E49"/>
</svg>
