<svg width="25" height="24" viewBox="0 0 25 24" fill="none" xmlns="http://www.w3.org/2000/svg">
<path d="M13.9084 2.75988C13.3801 1.51348 11.6014 1.54931 11.1238 2.81599L9.43055 7.30638C9.35713 7.50109 9.17079 7.62997 8.9627 7.62997H3.8653C2.46791 7.62997 1.82965 9.37255 2.89647 10.2751L6.91007 13.6708C7.06653 13.8032 7.12637 14.0176 7.06105 14.2119L5.32791 19.3661C4.88004 20.698 6.34519 21.8593 7.53969 21.1193L12.2369 18.2091C12.3982 18.1091 12.6022 18.1091 12.7635 18.2091L17.4607 21.1193C18.6552 21.8593 20.1203 20.698 19.6725 19.3661L17.9393 14.2119C17.874 14.0176 17.9338 13.8032 18.0903 13.6708L22.1039 10.2751C23.1707 9.37256 22.5325 7.62997 21.1351 7.62997H16.3036C16.1029 7.62997 15.9216 7.50992 15.8432 7.32509L13.9084 2.75988Z" fill="#FBBF24"/>
</svg>
