<svg width="32" height="32" viewBox="0 0 32 32" fill="none" xmlns="http://www.w3.org/2000/svg">
<path d="M17.8775 3.68001C17.1732 2.01814 14.8016 2.06591 14.1647 3.75481L11.9071 9.74201C11.8092 10.0016 11.5608 10.1735 11.2833 10.1735H4.48679C2.6236 10.1735 1.77259 12.4969 3.195 13.7003L8.54648 18.2279C8.75509 18.4044 8.83488 18.6903 8.74779 18.9493L6.43692 25.8216C5.83977 27.5975 7.7933 29.1459 9.38597 28.1592L15.6488 24.2789C15.864 24.1456 16.136 24.1456 16.3511 24.2789L22.614 28.1592C24.2066 29.146 26.1602 27.5975 25.563 25.8216L23.2521 18.9493C23.165 18.6903 23.2448 18.4044 23.4534 18.2279L28.8049 13.7003C30.2273 12.4969 29.3763 10.1735 27.5131 10.1735H21.0712C20.8035 10.1735 20.5618 10.0134 20.4574 9.76695L17.8775 3.68001Z" fill="#458CFF"/>
</svg>
