<svg width="32" height="32" viewBox="0 0 32 32" fill="none" xmlns="http://www.w3.org/2000/svg">
<path d="M14.667 15.3334C14.667 14.9652 14.9655 14.6667 15.3337 14.6667H16.667C17.0352 14.6667 17.3337 14.9652 17.3337 15.3334V16.6667C17.3337 17.0349 17.0352 17.3334 16.667 17.3334H15.3337C14.9655 17.3334 14.667 17.0349 14.667 16.6667V15.3334Z" fill="white" fill-opacity="0.64"/>
<path fill-rule="evenodd" clip-rule="evenodd" d="M12.0003 5.33341H14.667V2.66675H17.3337V5.33341H20.0003V2.66675H22.667V5.50144C24.5411 5.98381 26.0166 7.45927 26.499 9.33342L29.3337 9.33342V12.0001H26.667V14.6667H29.3337V17.3334H26.667V20.0001H29.3337V22.6667H26.499C26.0166 24.5409 24.5411 26.0164 22.667 26.4987V29.3334H20.0003V26.6667H17.3337V29.3334H14.667V26.6667H12.0003V29.3334H9.33366V26.4987C7.45952 26.0164 5.98405 24.5409 5.50168 22.6667H2.66699V20.0001H5.33366V17.3334H2.66699V14.6667H5.33366V12.0001H2.66699V9.33342H5.50168C5.98405 7.45927 7.45952 5.98381 9.33366 5.50144V2.66675H12.0003V5.33341ZM15.3337 12.0001C13.4927 12.0001 12.0003 13.4925 12.0003 15.3334V16.6667C12.0003 18.5077 13.4927 20.0001 15.3337 20.0001H16.667C18.5079 20.0001 20.0003 18.5077 20.0003 16.6667V15.3334C20.0003 13.4925 18.5079 12.0001 16.667 12.0001H15.3337Z" fill="white" fill-opacity="0.64"/>
</svg>
