<svg width="25" height="24" viewBox="0 0 25 24" fill="none" xmlns="http://www.w3.org/2000/svg">
<path fill-rule="evenodd" clip-rule="evenodd" d="M4.5 6.5C4.5 7.70948 5.35888 8.71836 6.5 8.94999V18C6.5 20.2091 8.29086 22 10.5 22H14.5C16.7091 22 18.5 20.2091 18.5 18V8.94999C19.6411 8.71836 20.5 7.70948 20.5 6.5V5.5C20.5 4.11929 19.3807 3 18 3H7C5.61929 3 4.5 4.11929 4.5 5.5V6.5ZM7.5 7H7C6.72386 7 6.5 6.77614 6.5 6.5V5.5C6.5 5.22386 6.72386 5 7 5H7.5V7ZM13.5 7H15.5V5H13.5V7ZM11.5 7V5H9.5V7H11.5ZM18 7H17.5V5H18C18.2761 5 18.5 5.22386 18.5 5.5V6.5C18.5 6.77614 18.2761 7 18 7ZM11.5 13V11H13.5V13H15.5V15H13.5V17H11.5V15H9.5V13H11.5Z" fill="#0F67FE"/>
</svg>
