<svg width="25" height="24" viewBox="0 0 25 24" fill="none" xmlns="http://www.w3.org/2000/svg">
<path fill-rule="evenodd" clip-rule="evenodd" d="M2.5 4.5C2.5 3.11929 3.61929 2 5 2H6.5V4H5C4.72386 4 4.5 4.22386 4.5 4.5V11.5C4.5 11.7761 4.72386 12 5 12H12C12.2761 12 12.5 11.7761 12.5 11.5V4.5C12.5 4.22386 12.2761 4 12 4H10.5V2H12C13.3807 2 14.5 3.11929 14.5 4.5V11.5C14.5 12.8807 13.3807 14 12 14H9.5V18C9.5 19.1046 10.3954 20 11.5 20H15.5C16.6046 20 17.5 19.1046 17.5 18V11.95C16.3589 11.7184 15.5 10.7095 15.5 9.5V8.5C15.5 7.11929 16.6193 6 18 6H19C20.3807 6 21.5 7.11929 21.5 8.5V9.5C21.5 10.7095 20.6411 11.7184 19.5 11.95V18C19.5 20.2091 17.7091 22 15.5 22H11.5C9.29086 22 7.5 20.2091 7.5 18V14H5C3.61929 14 2.5 12.8807 2.5 11.5V4.5ZM17.5 8.5C17.5 8.22386 17.7239 8 18 8H19C19.2761 8 19.5 8.22386 19.5 8.5V9.5C19.5 9.77614 19.2761 10 19 10H18C17.7239 10 17.5 9.77614 17.5 9.5V8.5Z" fill="#0F67FE"/>
</svg>
