<svg width="24" height="24" viewBox="0 0 24 24" fill="none" xmlns="http://www.w3.org/2000/svg">
<path fill-rule="evenodd" clip-rule="evenodd" d="M15.2769 4.93759C13.6845 2.66272 10.3155 2.66273 8.72307 4.9376L5.32769 9.78814C4.46352 11.0227 4 12.4931 4 14.0001C4 15.0506 4.20693 16.0909 4.60896 17.0615C5.011 18.0321 5.60028 18.914 6.34315 19.6569C7.08601 20.3998 7.96793 20.9891 8.93853 21.3911C9.90914 21.7931 10.9494 22.0001 12 22.0001C13.0506 22.0001 14.0909 21.7931 15.0615 21.3911C16.0321 20.9891 16.914 20.3998 17.6569 19.6569C18.3997 18.914 18.989 18.0321 19.391 17.0615C19.7931 16.0909 20 15.0506 20 14.0001C20 12.4931 19.5365 11.0227 18.6723 9.78813L15.2769 4.93759ZM11 10.5001C11 10.2239 11.2239 10.0001 11.5 10.0001H12.5C12.7761 10.0001 13 10.2239 13 10.5001V11.5001C13 11.7762 12.7761 12.0001 12.5 12.0001H11.5C11.2239 12.0001 11 11.7762 11 11.5001V10.5001ZM11.5 16.0001C11.2239 16.0001 11 16.2239 11 16.5001V17.5001C11 17.7762 11.2239 18.0001 11.5 18.0001H12.5C12.7761 18.0001 13 17.7762 13 17.5001V16.5001C13 16.2239 12.7761 16.0001 12.5 16.0001H11.5ZM8 13.5001C8 13.2239 8.22386 13.0001 8.5 13.0001H9.5C9.77614 13.0001 10 13.2239 10 13.5001V14.5001C10 14.7762 9.77614 15.0001 9.5 15.0001H8.5C8.22386 15.0001 8 14.7762 8 14.5001V13.5001ZM14.5 13.0001C14.2239 13.0001 14 13.2239 14 13.5001V14.5001C14 14.7762 14.2239 15.0001 14.5 15.0001H15.5C15.7761 15.0001 16 14.7762 16 14.5001V13.5001C16 13.2239 15.7761 13.0001 15.5 13.0001H14.5Z" fill="#8A3FFC"/>
</svg>
