<svg width="128" height="88" viewBox="0 0 128 88" fill="none" xmlns="http://www.w3.org/2000/svg">
<rect x="0.5" y="0.5" width="127" height="87" rx="11.5" stroke="#78AEFF"/>
<path d="M57.4996 44.9905C57.4996 49.3621 54.0797 52.5835 49.8826 52.5835C45.6856 52.5835 42.2656 49.3621 42.2656 44.9905C42.2656 40.588 45.6856 37.3975 49.8826 37.3975C54.0797 37.3975 57.4996 40.588 57.4996 44.9905ZM54.1653 44.9905C54.1653 42.2586 52.1831 40.3895 49.8826 40.3895C47.5821 40.3895 45.6 42.2586 45.6 44.9905C45.6 47.695 47.5821 49.5915 49.8826 49.5915C52.1831 49.5915 54.1653 47.6915 54.1653 44.9905Z" fill="#78AEFF"/>
<path d="M73.9371 44.9905C73.9371 49.3621 70.5172 52.5835 66.3201 52.5835C62.1231 52.5835 58.7031 49.3621 58.7031 44.9905C58.7031 40.5915 62.1231 37.3975 66.3201 37.3975C70.5172 37.3975 73.9371 40.588 73.9371 44.9905ZM70.6028 44.9905C70.6028 42.2586 68.6206 40.3895 66.3201 40.3895C64.0196 40.3895 62.0375 42.2586 62.0375 44.9905C62.0375 47.695 64.0196 49.5915 66.3201 49.5915C68.6206 49.5915 70.6028 47.6915 70.6028 44.9905Z" fill="#78AEFF"/>
<path d="M89.6812 37.8562V51.488C89.6812 57.0955 86.3742 59.3858 82.4647 59.3858C78.7846 59.3858 76.5697 56.9244 75.7344 54.9114L78.6374 53.703C79.1543 54.9388 80.421 56.3972 82.4613 56.3972C84.9638 56.3972 86.5145 54.8532 86.5145 51.9468V50.8547H86.3982C85.6519 51.7756 84.214 52.5801 82.3997 52.5801C78.6031 52.5801 75.125 49.2731 75.125 45.0179C75.125 40.7318 78.6031 37.3975 82.3997 37.3975C84.2106 37.3975 85.6484 38.202 86.3982 39.0955H86.5145V37.8596H89.6812V37.8562ZM86.7508 45.0179C86.7508 42.3442 84.9672 40.3895 82.6975 40.3895C80.397 40.3895 78.4696 42.3442 78.4696 45.0179C78.4696 47.6641 80.397 49.5915 82.6975 49.5915C84.9672 49.5915 86.7508 47.6641 86.7508 45.0179Z" fill="#78AEFF"/>
<path d="M94.9006 29.8662V52.1181H91.6484V29.8662H94.9006Z" fill="#78AEFF"/>
<path d="M107.578 47.49L110.166 49.2154C109.331 50.4513 107.318 52.5806 103.84 52.5806C99.5261 52.5806 96.3047 49.2462 96.3047 44.9876C96.3047 40.4721 99.5535 37.3945 103.466 37.3945C107.407 37.3945 109.334 40.5303 109.964 42.2249L110.31 43.0876L100.159 47.2915C100.937 48.8149 102.145 49.592 103.84 49.592C105.538 49.592 106.715 48.7567 107.578 47.49ZM99.6117 44.7582L106.397 41.9408C106.024 40.9925 104.901 40.3318 103.579 40.3318C101.885 40.3318 99.5261 41.8278 99.6117 44.7582Z" fill="#78AEFF"/>
<path d="M29.9578 43.0153V39.7939H40.8133C40.9194 40.3553 40.9742 41.0194 40.9742 41.7384C40.9742 44.1552 40.3135 47.1439 38.1842 49.2732C36.113 51.4299 33.4668 52.5802 29.9612 52.5802C23.4637 52.5802 18 47.2876 18 40.7901C18 34.2925 23.4637 29 29.9612 29C33.5558 29 36.1165 30.4104 38.0404 32.2488L35.7673 34.5219C34.3877 33.2279 32.5185 32.2214 29.9578 32.2214C25.213 32.2214 21.5021 36.0453 21.5021 40.7901C21.5021 45.5349 25.213 49.3588 29.9578 49.3588C33.0354 49.3588 34.7882 48.1229 35.9111 47.0001C36.8217 46.0895 37.4208 44.7886 37.657 43.0118L29.9578 43.0153Z" fill="#78AEFF"/>
</svg>
