<svg width="129" height="88" viewBox="0 0 129 88" fill="none" xmlns="http://www.w3.org/2000/svg">
<rect x="1" y="0.5" width="127" height="87" rx="11.5" stroke="#78AEFF"/>
<path d="M61.0311 34H61.8375C63.6113 34.0538 65.439 34.43 66.9978 35.3976C68.2879 36.2039 69.2555 37.3865 69.793 38.7841C70.1693 39.6979 70.3843 40.7192 70.4381 41.6868H64.6327C64.5789 40.8805 64.3101 40.0204 63.6651 39.4829C63.02 38.8916 62.1062 38.7303 61.2462 38.7841C60.4936 38.7841 59.7411 39.0529 59.2035 39.5904C58.5585 40.2355 58.2359 41.0955 58.0747 41.9556C57.8597 42.9769 57.8597 44.052 57.9672 45.0733C58.0747 46.0946 58.2897 47.1697 58.9347 47.976C59.4185 48.6211 60.1173 48.9973 60.9236 49.1048C61.73 49.2124 62.59 49.1586 63.3426 48.7823C63.9339 48.4598 64.3639 47.9223 64.5789 47.331C64.7402 46.9547 64.7939 46.5247 64.8477 46.0946H70.5993C70.4918 47.761 70.0081 49.4274 69.0405 50.7712C68.1267 52.0076 66.8366 52.8676 65.3852 53.4052C64.3101 53.7814 63.1276 53.9427 61.9987 53.9965H61.0849C59.526 53.9427 57.9672 53.6202 56.5696 52.9214C55.172 52.2226 54.0431 51.1475 53.2368 49.8036C52.2693 48.191 51.8392 46.2559 51.7855 44.4283C51.678 42.3856 52.0005 40.3967 52.9143 38.6766C53.6131 37.279 54.6882 36.0964 56.032 35.3438C57.5371 34.43 59.2573 34 61.0311 34Z" fill="#78AEFF"/>
<path d="M94.8403 34H95.7003C97.4204 34.0538 99.1943 34.3763 100.646 35.3438C101.398 35.8276 102.043 36.4727 102.473 37.2252C102.957 38.0853 103.226 38.9991 103.333 39.9667H97.5817C97.528 39.5367 97.3129 39.1604 97.0442 38.8916C96.6679 38.5153 96.0766 38.4078 95.5391 38.3541C95.0553 38.3003 94.5177 38.3541 94.0339 38.4616C93.7114 38.5691 93.3889 38.7841 93.2814 39.1604C93.1739 39.4829 93.1739 39.9129 93.3889 40.1817C93.5502 40.4505 93.8727 40.6117 94.1952 40.7192C94.7328 40.9343 95.2703 41.0418 95.8078 41.203C96.9367 41.5255 98.0655 41.7406 99.1943 42.0631C99.9469 42.2781 100.646 42.5469 101.291 42.9232C101.99 43.3532 102.635 43.9445 103.118 44.6433C103.602 45.3421 103.817 46.2021 103.871 47.0622C103.925 48.0835 103.763 49.1586 103.333 50.1262C103.011 50.8787 102.473 51.5775 101.828 52.1151C100.592 53.0826 99.0868 53.5664 97.528 53.7814C96.9367 53.8352 96.3991 53.8889 95.8078 53.8889H94.9478C93.5502 53.8352 92.1526 53.6202 90.8625 53.0289C89.6261 52.4913 88.4973 51.5238 87.8522 50.3412C87.3685 49.4811 87.0997 48.4598 86.9922 47.4922H92.9051C93.0126 47.9223 93.1739 48.406 93.4964 48.7286C93.7652 48.9973 94.0877 49.2124 94.464 49.2661C94.9478 49.3736 95.4853 49.4274 95.9691 49.3736C96.4529 49.3199 96.9904 49.2661 97.4204 48.9973C97.6892 48.8361 97.9042 48.5136 97.958 48.191C98.0117 47.8685 97.958 47.4922 97.6892 47.2235C97.4742 46.9547 97.0979 46.8472 96.7754 46.7397C96.1841 46.5784 95.6466 46.4172 95.0553 46.2559C93.9802 45.9871 92.9589 45.7184 91.8838 45.3421C91.1312 45.0733 90.3787 44.8583 89.6799 44.4283C88.9273 43.9445 88.2823 43.2994 87.8522 42.4931C87.4222 41.6331 87.261 40.6117 87.261 39.6442C87.3147 38.7303 87.5297 37.8703 87.9598 37.064C88.3898 36.3114 89.0348 35.6664 89.7874 35.1826C91.2925 34.3225 93.0664 34.0538 94.8403 34Z" fill="#78AEFF"/>
<path d="M30.2841 34.8063C30.7679 34.3225 31.4667 34 32.2192 34C32.9718 34 33.7243 34.2688 34.2619 34.8063L37.5409 38.0853L40.8199 34.8063C41.3036 34.3225 42.0562 34 42.755 34C43.5076 34 44.2064 34.2688 44.7439 34.8063L48.7754 38.8379C49.313 39.3754 49.6355 40.1817 49.5817 40.9343C49.528 41.6331 49.2592 42.2781 48.7754 42.7619C45.0127 46.4709 41.3036 50.2337 37.5409 53.9427C33.7781 50.2337 30.0691 46.4709 26.3063 42.7619C25.8225 42.2781 25.5538 41.6331 25.5 40.988V40.558C25.5538 39.9129 25.8225 39.2679 26.3063 38.7841C27.6502 37.494 28.9402 36.1502 30.2841 34.8063Z" fill="#78AEFF"/>
<path d="M69.2031 34.4834H75.3848C76.4599 38.5687 77.4812 42.6002 78.5563 46.6855C79.6851 42.6002 80.814 38.5687 81.9428 34.4834H87.9095C85.8131 40.7726 83.6629 47.0618 81.5128 53.351H75.4386C73.4497 47.1156 71.3533 40.8264 69.2031 34.4834Z" fill="#78AEFF"/>
</svg>
