<svg width="91" height="38" viewBox="0 0 91 38" fill="none" xmlns="http://www.w3.org/2000/svg">
<path d="M0 25.5H12.5C14.1569 25.5 15.5 24.1569 15.5 22.5V18.5C15.5 16.8431 16.8431 15.5 18.5 15.5H29C30.6569 15.5 32 14.1569 32 12.5V4.5C32 2.84315 33.3431 1.5 35 1.5H45C46.6569 1.5 48 2.84315 48 4.5V24C48 25.6569 49.3431 27 51 27H61.5C63.1569 27 64.5 28.3431 64.5 30V34C64.5 35.6569 65.8431 37 67.5 37H76.5C78.1569 37 79.5 35.6569 79.5 34V12C79.5 10.3431 80.8431 9 82.5 9H90.5" stroke="#0F67FE" stroke-width="2"/>
</svg>
