<svg width="93" height="40" viewBox="0 0 93 40" fill="none" xmlns="http://www.w3.org/2000/svg">
<path d="M39.4099 31.9827H36.5961C36.4969 31.9827 36.4257 31.8708 36.4257 31.764C36.4257 31.7261 37.923 26.8989 37.923 26.8989C37.9764 26.7184 37.9815 26.7131 38.0018 26.7131H38.0044C38.0271 26.7131 38.0298 26.7184 38.083 26.8989C38.083 26.8989 39.5802 31.7261 39.5802 31.764C39.5802 31.8708 39.5038 31.9827 39.4099 31.9827ZM43.2051 20.938C43.1911 20.8903 43.163 20.848 43.1244 20.8166C43.0858 20.7853 43.0385 20.7665 42.989 20.7626H32.656C32.6068 20.7665 32.56 20.7851 32.5214 20.8159C32.4829 20.8467 32.4545 20.8884 32.4399 20.9355C32.4399 20.9355 26.7282 39.7915 26.7282 39.8273C26.7282 39.9211 26.8019 39.9974 26.8985 39.9974H33.7287C33.7557 39.9862 33.7796 39.9685 33.7982 39.9459C33.8168 39.9232 33.8296 39.8964 33.8355 39.8677L34.631 37.326C34.6432 37.2945 34.6645 37.2673 34.6921 37.2478C34.7196 37.2283 34.7524 37.2174 34.7861 37.2164L41.0877 37.2115C41.1561 37.2166 41.2173 37.2649 41.2428 37.326L42.0561 39.8677C42.0688 39.9264 42.1095 39.9796 42.1629 39.9999L48.8838 39.9974C48.9776 39.9974 49.0566 39.9262 49.0566 39.8321C49.0566 39.7991 43.2051 20.938 43.2051 20.938ZM62.6763 28.6367L58.4795 28.6393C58.4795 28.6393 58.3678 28.6062 58.3678 28.4791L58.3653 26.3617C58.3653 26.2346 58.4771 26.2015 58.4771 26.2015H62.3255C62.7729 26.2015 63.6778 26.4252 63.6778 27.4598C63.6778 28.4943 62.6763 28.6367 62.6763 28.6367ZM82.7982 26.9973H92.3077V20.7618H80.0808C78.9372 20.7618 77.328 21.3516 76.4053 22.0353C75.4827 22.719 74.1481 24.2773 74.1481 26.4252C74.1481 28.5732 75.4521 30.2433 75.4521 30.2433C76.1206 31.0719 77.8035 32.798 77.8035 32.798C77.8416 32.8387 77.8645 32.8919 77.8645 32.9531C77.8645 33.0825 77.7602 33.1868 77.6306 33.1868H68.2126C67.0662 33.1817 66.9874 32.7268 66.9874 32.6607C66.9874 32.5438 67.1298 32.47 67.1298 32.47C67.5594 32.2641 68.4362 31.5802 68.4362 31.5802C70.297 30.1314 70.5209 28.1437 70.5209 27.0786C70.5209 26.0108 70.3606 24.1222 68.4516 22.4675C66.5427 20.8127 64.1253 20.7669 64.1253 20.7669H50.6859V39.8875C50.6859 39.9483 50.7418 39.9966 50.8029 39.9966H58.2839V34.6332C58.2839 34.5393 58.4286 34.6332 58.4286 34.6332L62.3255 38.5479C63.7109 39.9483 66.0012 39.9966 66.0012 39.9966L80.7342 39.9941C83.2482 39.9941 84.6463 38.6267 85.03 38.2453C85.4114 37.8614 86.6849 36.4305 86.6849 34.0588C86.6849 31.6897 85.6021 30.4772 85.1394 29.9206C84.7277 29.4223 83.0855 27.6835 82.7423 27.3225C82.7216 27.3056 82.7049 27.2843 82.6935 27.2601C82.6821 27.236 82.6762 27.2096 82.6762 27.1829C82.6762 27.0988 82.7245 27.0202 82.7982 26.9971M23.3139 39.9962C23.3648 39.9962 23.4004 39.9606 23.4156 39.9047C23.4156 39.9047 29.2036 20.8936 29.2036 20.8756C29.2036 20.8248 29.1731 20.769 29.1248 20.764H21.9896C21.954 20.764 21.9311 20.7919 21.9235 20.8301C21.9235 20.8326 20.4465 25.774 20.4465 25.7765C20.4364 25.8172 20.416 25.8426 20.3804 25.8426C20.3448 25.8426 20.3143 25.8071 20.3093 25.7765L18.7639 20.8275C18.7588 20.7943 18.7334 20.764 18.6978 20.764L10.8178 20.7614C10.8063 20.7646 10.7958 20.7703 10.787 20.7783C10.7781 20.7862 10.7713 20.7961 10.7669 20.8072L9.38155 25.774C9.37392 25.8172 9.35104 25.8426 9.31291 25.8426C9.29674 25.8423 9.28121 25.8363 9.26909 25.8256C9.25698 25.8149 9.24908 25.8002 9.24681 25.7842L7.77751 20.8224C7.77574 20.8073 7.76907 20.7931 7.75852 20.7821C7.74796 20.7711 7.7341 20.7638 7.71903 20.7614H0.113624C0.0836773 20.7618 0.0551086 20.7741 0.0341517 20.7955C0.0131948 20.8169 0.00155071 20.8457 0.0017601 20.8756C0.0017601 20.8858 0.00430248 20.9061 0.00430248 20.9061L5.87875 39.9047C5.894 39.9606 5.9296 39.9962 5.98044 39.9962L12.2973 39.9988C12.3352 39.9937 12.3735 39.9505 12.3835 39.9047C12.386 39.9047 14.5823 32.8355 14.5823 32.8355C14.595 32.7923 14.6128 32.7671 14.6484 32.7671C14.6865 32.7671 14.707 32.7974 14.717 32.833L16.8598 39.9352C16.8661 39.9531 16.8778 39.9686 16.8933 39.9796C16.9088 39.9905 16.9273 39.9963 16.9463 39.9962H23.3139ZM17.8189 0.104054C16.6725 0.104054 15.0661 0.693689 14.1434 1.37759C13.2203 2.06129 11.8862 3.61957 11.8862 5.76748C11.8862 7.9154 13.19 9.58554 13.19 9.58554C13.8587 10.4142 15.5413 12.1528 15.5413 12.1528C15.5795 12.1934 15.6023 12.2468 15.6023 12.3053C15.6023 12.435 15.4981 12.5417 15.3686 12.5417H0V19.3389H18.4723C20.9838 19.3389 22.3842 17.9713 22.7681 17.5876C23.1495 17.2062 24.4205 15.775 24.4205 13.4034C24.4205 11.0343 23.3402 9.80907 22.8774 9.25249C22.4656 8.75418 20.8236 7.02576 20.4804 6.66729C20.4598 6.64967 20.4433 6.62785 20.4319 6.60328C20.4205 6.57872 20.4145 6.55199 20.4143 6.52491C20.4143 6.44102 20.4626 6.36474 20.5363 6.33932H29.4331V19.3389H36.2734V6.37237H44.578V0.104054H17.8189ZM77.48 7.97915L73.2833 7.98169C73.2833 7.98169 73.1714 7.94864 73.1714 7.82152L73.1689 5.70412C73.1689 5.577 73.2808 5.54395 73.2808 5.54395H77.1293C77.5766 5.54395 78.4815 5.76768 78.4815 6.80223C78.4815 7.83678 77.4802 7.97915 77.4802 7.97915M83.0165 12.5292C81.8724 12.5241 81.7913 12.0692 81.7913 12.0031C81.7913 11.8862 81.9334 11.8125 81.9334 11.8125C82.3631 11.6065 83.24 10.9226 83.24 10.9226C85.1008 9.47387 85.3246 7.48613 85.3246 6.42107C85.3246 5.35327 85.1642 3.46468 83.2555 1.80999C81.3463 0.155097 78.9289 0.104249 78.9289 0.104249H65.4896V19.2297C65.4896 19.2908 65.5457 19.3393 65.6067 19.3393H73.0875V13.978C73.0875 13.8814 73.2325 13.978 73.2325 13.978L77.1293 17.8901C78.5145 19.2906 80.8048 19.3389 80.8048 19.3389H92.3071V12.5296H83.0165V12.5292ZM54.5783 11.3233H51.7643C51.66 11.3233 51.5941 11.2115 51.5941 11.1047C51.5941 11.064 53.0912 6.23958 53.0912 6.23958C53.1446 6.05907 53.1596 6.05379 53.17 6.05379H53.1726C53.1827 6.05379 53.198 6.05907 53.2514 6.23958C53.2514 6.23958 54.7484 11.0642 54.7484 11.1047C54.7484 11.2115 54.68 11.3233 54.5783 11.3233ZM58.3656 0.27361C58.3522 0.226054 58.324 0.183969 58.2852 0.153374C58.2464 0.122779 58.1989 0.105243 58.1495 0.103271L47.8167 0.103271C47.7151 0.108356 47.6286 0.177 47.6006 0.271068C47.6006 0.271068 41.894 19.1322 41.894 19.1677C41.894 19.2618 41.9703 19.3381 42.0641 19.3381H48.8945C48.9505 19.3205 48.9909 19.2669 49.0036 19.2084L49.7994 16.6641C49.8122 16.6332 49.8337 16.6067 49.8612 16.5878C49.8887 16.5689 49.9211 16.5583 49.9545 16.5573H56.2533C56.287 16.5596 56.3195 16.571 56.3472 16.5902C56.375 16.6095 56.397 16.6359 56.4109 16.6666L57.2245 19.2084C57.237 19.2671 57.2777 19.3203 57.3311 19.3406L64.052 19.3381C64.0742 19.3386 64.0964 19.3346 64.1171 19.3264C64.1379 19.3182 64.1567 19.3059 64.1726 19.2902C64.1885 19.2746 64.2011 19.2559 64.2096 19.2353C64.2181 19.2147 64.2225 19.1926 64.2223 19.1703C64.2223 19.1398 58.3656 0.27361 58.3656 0.27361Z" fill="#EDF5FF"/>
</svg>
