<svg width="108" height="29" viewBox="0 0 108 29" fill="none" xmlns="http://www.w3.org/2000/svg">
<path d="M14.8503 27.1805C13.2257 27.4564 11.5725 27.5392 9.86228 27.7595L4.646 12.9844V28.3936C3.02136 28.5589 1.53921 28.7795 0 29V0.772705H4.33266L10.2613 16.7886V0.772705H14.8503V27.1805ZM23.829 11.1098C25.5963 11.1098 28.3041 11.0271 29.9288 11.0271V15.4375C27.9049 15.4375 25.5393 15.4375 23.829 15.5203V22.081C26.5084 21.9157 29.1877 21.6949 31.8954 21.6122V25.8571L19.2683 26.8221V0.772705H31.8954V5.18322H23.829V11.1098ZM48.855 5.18332H44.1235V25.4716C42.5843 25.4716 41.0451 25.4716 39.5631 25.5266V5.18332H34.8316V0.772705H48.8552L48.855 5.18332ZM56.2659 10.8067H62.5083V15.2171H56.2659V25.2236H51.7905V0.772705H64.532V5.18322H56.2659V10.8067ZM71.9429 21.3643C74.5368 21.4192 77.1589 21.6125 79.6959 21.7501V26.1056C75.6199 25.8573 71.5439 25.6095 67.3824 25.5266V0.772705H71.9429V21.3643ZM83.5438 26.4088C84.9975 26.4916 86.5367 26.5744 88.0188 26.7395V0.772705H83.5438V26.4088ZM108 0.772705L102.214 14.1972L108 29C106.29 28.7795 104.579 28.4762 102.869 28.2005L99.5914 20.0412L96.2568 27.5392C94.6032 27.2633 93.0071 27.1805 91.3542 26.96L97.2258 14.0317L91.924 0.772705H96.8264L99.8193 8.18789L103.012 0.772705H108Z" fill="#EDF5FF"/>
</svg>
