<svg width="129" height="88" viewBox="0 0 129 88" fill="none" xmlns="http://www.w3.org/2000/svg">
<rect x="1" y="0.5" width="127" height="87" rx="11.5" stroke="#78AEFF"/>
<path d="M57.9099 55.8794H55.0961C54.9969 55.8794 54.9257 55.7675 54.9257 55.6608C54.9257 55.6228 56.423 50.7956 56.423 50.7956C56.4764 50.6151 56.4815 50.6098 56.5018 50.6098H56.5044C56.5271 50.6098 56.5298 50.6151 56.583 50.7956C56.583 50.7956 58.0802 55.6228 58.0802 55.6608C58.0802 55.7675 58.0038 55.8794 57.9099 55.8794ZM61.7051 44.8347C61.6911 44.787 61.663 44.7447 61.6244 44.7134C61.5858 44.682 61.5385 44.6632 61.489 44.6593H51.156C51.1068 44.6632 51.06 44.6818 51.0214 44.7126C50.9829 44.7434 50.9545 44.7851 50.9399 44.8322C50.9399 44.8322 45.2282 63.6882 45.2282 63.724C45.2282 63.8179 45.3019 63.8941 45.3985 63.8941H52.2287C52.2557 63.8829 52.2796 63.8652 52.2982 63.8426C52.3168 63.82 52.3296 63.7932 52.3355 63.7645L53.131 61.2227C53.1432 61.1912 53.1645 61.164 53.1921 61.1445C53.2196 61.1251 53.2524 61.1142 53.2861 61.1132L59.5877 61.1083C59.6561 61.1134 59.7173 61.1617 59.7428 61.2227L60.5561 63.7645C60.5688 63.8231 60.6095 63.8763 60.6629 63.8967L67.3838 63.8941C67.4776 63.8941 67.5566 63.8229 67.5566 63.7289C67.5566 63.6958 61.7051 44.8347 61.7051 44.8347ZM81.1763 52.5334L76.9795 52.536C76.9795 52.536 76.8678 52.5029 76.8678 52.3758L76.8653 50.2584C76.8653 50.1313 76.9771 50.0982 76.9771 50.0982H80.8255C81.2729 50.0982 82.1778 50.322 82.1778 51.3565C82.1778 52.3911 81.1763 52.5334 81.1763 52.5334ZM101.298 50.894H110.808V44.6585H98.5808C97.4372 44.6585 95.828 45.2484 94.9053 45.9321C93.9827 46.6158 92.6481 48.1741 92.6481 50.322C92.6481 52.4699 93.9521 54.14 93.9521 54.14C94.6206 54.9686 96.3035 56.6947 96.3035 56.6947C96.3416 56.7354 96.3645 56.7886 96.3645 56.8498C96.3645 56.9793 96.2602 57.0835 96.1306 57.0835H86.7126C85.5662 57.0784 85.4874 56.6235 85.4874 56.5574C85.4874 56.4405 85.6298 56.3668 85.6298 56.3668C86.0594 56.1608 86.9362 55.4769 86.9362 55.4769C88.797 54.0282 89.0209 52.0404 89.0209 50.9754C89.0209 49.9076 88.8606 48.019 86.9516 46.3643C85.0427 44.7094 82.6253 44.6636 82.6253 44.6636H69.1859V63.7842C69.1859 63.845 69.2418 63.8934 69.3029 63.8934H76.7839V58.5299C76.7839 58.4361 76.9286 58.5299 76.9286 58.5299L80.8255 62.4446C82.2109 63.845 84.5012 63.8934 84.5012 63.8934L99.2342 63.8908C101.748 63.8908 103.146 62.5234 103.53 62.142C103.911 61.7581 105.185 60.3272 105.185 57.9555C105.185 55.5864 104.102 54.3739 103.639 53.8173C103.228 53.319 101.586 51.5802 101.242 51.2192C101.222 51.2023 101.205 51.181 101.194 51.1569C101.182 51.1327 101.176 51.1063 101.176 51.0796C101.176 50.9955 101.225 50.9169 101.298 50.8938M41.8139 63.893C41.8648 63.893 41.9004 63.8574 41.9156 63.8014C41.9156 63.8014 47.7036 44.7904 47.7036 44.7724C47.7036 44.7215 47.6731 44.6658 47.6248 44.6607H40.4896C40.454 44.6607 40.4311 44.6887 40.4235 44.7268C40.4235 44.7293 38.9465 49.6707 38.9465 49.6733C38.9364 49.714 38.916 49.7394 38.8804 49.7394C38.8448 49.7394 38.8143 49.7038 38.8093 49.6733L37.2639 44.7243C37.2588 44.691 37.2334 44.6607 37.1978 44.6607L29.3178 44.6581C29.3063 44.6613 29.2958 44.6671 29.287 44.675C29.2781 44.683 29.2713 44.6929 29.2669 44.7039L27.8816 49.6707C27.8739 49.714 27.851 49.7394 27.8129 49.7394C27.7967 49.7391 27.7812 49.733 27.7691 49.7223C27.757 49.7116 27.7491 49.6969 27.7468 49.6809L26.2775 44.7192C26.2757 44.704 26.2691 44.6899 26.2585 44.6788C26.248 44.6678 26.2341 44.6606 26.219 44.6581H18.6136C18.5837 44.6586 18.5551 44.6708 18.5342 44.6922C18.5132 44.7136 18.5016 44.7424 18.5018 44.7724C18.5018 44.7825 18.5043 44.8029 18.5043 44.8029L24.3787 63.8014C24.394 63.8574 24.4296 63.893 24.4804 63.893L30.7973 63.8955C30.8352 63.8904 30.8735 63.8472 30.8835 63.8014C30.886 63.8014 33.0823 56.7323 33.0823 56.7323C33.095 56.689 33.1128 56.6638 33.1484 56.6638C33.1865 56.6638 33.207 56.6941 33.217 56.7297L35.3598 63.8319C35.3661 63.8499 35.3778 63.8654 35.3933 63.8763C35.4088 63.8873 35.4273 63.8931 35.4463 63.893H41.8139ZM36.3189 24.0008C35.1725 24.0008 33.5661 24.5904 32.6434 25.2743C31.7203 25.958 30.3862 27.5163 30.3862 29.6642C30.3862 31.8121 31.69 33.4823 31.69 33.4823C32.3587 34.3109 34.0413 36.0495 34.0413 36.0495C34.0795 36.0902 34.1023 36.1435 34.1023 36.202C34.1023 36.3317 33.9981 36.4385 33.8686 36.4385H18.5V43.2356H36.9723C39.4838 43.2356 40.8842 41.868 41.2681 41.4843C41.6495 41.1029 42.9205 39.6718 42.9205 37.3001C42.9205 34.931 41.8402 33.7058 41.3774 33.1492C40.9656 32.6509 39.3236 30.9225 38.9804 30.564C38.9598 30.5464 38.9433 30.5246 38.9319 30.5C38.9205 30.4754 38.9145 30.4487 38.9143 30.4216C38.9143 30.3377 38.9626 30.2615 39.0363 30.236H47.9331V43.2356H54.7734V30.2691H63.078V24.0008H36.3189ZM95.98 31.8759L91.7833 31.8784C91.7833 31.8784 91.6714 31.8454 91.6714 31.7183L91.6689 29.6008C91.6689 29.4737 91.7808 29.4407 91.7808 29.4407H95.6293C96.0766 29.4407 96.9815 29.6644 96.9815 30.699C96.9815 31.7335 95.9802 31.8759 95.9802 31.8759M101.516 36.4259C100.372 36.4209 100.291 35.966 100.291 35.8999C100.291 35.7829 100.433 35.7092 100.433 35.7092C100.863 35.5033 101.74 34.8194 101.74 34.8194C103.601 33.3706 103.825 31.3829 103.825 30.3178C103.825 29.25 103.664 27.3614 101.755 25.7067C99.8463 24.0518 97.4289 24.001 97.4289 24.001H83.9896V43.1265C83.9896 43.1875 84.0457 43.236 84.1067 43.236H91.5875V37.8747C91.5875 37.7781 91.7325 37.8747 91.7325 37.8747L95.6293 41.7868C97.0145 43.1873 99.3048 43.2356 99.3048 43.2356H110.807V36.4263H101.516V36.4259ZM73.0783 35.2201H70.2643C70.16 35.2201 70.0941 35.1082 70.0941 35.0014C70.0941 34.9608 71.5912 30.1363 71.5912 30.1363C71.6446 29.9558 71.6596 29.9505 71.67 29.9505H71.6726C71.6827 29.9505 71.698 29.9558 71.7514 30.1363C71.7514 30.1363 73.2484 34.961 73.2484 35.0014C73.2484 35.1082 73.18 35.2201 73.0783 35.2201ZM76.8656 24.1703C76.8522 24.1228 76.824 24.0807 76.7852 24.0501C76.7464 24.0195 76.6989 24.002 76.6495 24H66.3167C66.2151 24.0051 66.1286 24.0737 66.1006 24.1678C66.1006 24.1678 60.394 43.0289 60.394 43.0645C60.394 43.1585 60.4703 43.2348 60.5641 43.2348H67.3945C67.4505 43.2172 67.4909 43.1636 67.5036 43.1052L68.2994 40.5608C68.3122 40.53 68.3337 40.5035 68.3612 40.4845C68.3887 40.4656 68.4211 40.455 68.4545 40.454H74.7533C74.787 40.4563 74.8195 40.4677 74.8472 40.4869C74.875 40.5062 74.897 40.5326 74.9109 40.5634L75.7245 43.1052C75.737 43.1638 75.7777 43.217 75.8311 43.2374L82.552 43.2348C82.5742 43.2353 82.5964 43.2313 82.6171 43.2231C82.6379 43.2149 82.6567 43.2026 82.6726 43.1869C82.6885 43.1713 82.7011 43.1526 82.7096 43.132C82.7181 43.1114 82.7225 43.0893 82.7223 43.067C82.7223 43.0365 76.8656 24.1703 76.8656 24.1703Z" fill="#78AEFF"/>
</svg>
