<svg width="128" height="88" viewBox="0 0 128 88" fill="none" xmlns="http://www.w3.org/2000/svg">
<rect x="0.5" y="0.5" width="127" height="87" rx="11.5" stroke="#78AEFF"/>
<path d="M32.1003 53.5175C30.7765 53.7423 29.4294 53.8097 28.0359 53.9892L23.7856 41.9502V54.5059C22.4619 54.6406 21.2542 54.8203 20 55V32H23.5303L28.361 45.05V32H32.1003V53.5175ZM39.4162 40.4229C40.8563 40.4229 43.0626 40.3555 44.3864 40.3555V43.9491C42.7373 43.9491 40.8098 43.9491 39.4162 44.0165V49.3623C41.5994 49.2276 43.7826 49.0478 45.9889 48.9804V52.4391L35.7001 53.2254V32H45.9889V35.5938H39.4162V40.4229ZM59.8078 35.5938H55.9525V52.1251C54.6983 52.1251 53.4441 52.1251 52.2366 52.1699V35.5938H48.3813V32H59.808L59.8078 35.5938ZM65.8463 40.1759H70.9327V43.7695H65.8463V51.9229H62.1997V32H72.5816V35.5938H65.8463V40.1759ZM78.6201 48.7783C80.7337 48.8231 82.8702 48.9806 84.9374 49.0927V52.6416C81.6162 52.4393 78.295 52.2374 74.9042 52.1699V32H78.6201V48.7783ZM88.0727 52.8887C89.2572 52.9562 90.5114 53.0236 91.7191 53.1581V32H88.0727V52.8887ZM108 32L103.285 42.9385L108 55C106.606 54.8203 105.213 54.5732 103.819 54.3486L101.149 47.7003L98.4315 53.8097C97.0841 53.5849 95.7836 53.5175 94.4367 53.3378L99.2211 42.8036L94.9011 32H98.8956L101.334 38.042L103.936 32H108Z" fill="#78AEFF"/>
</svg>
