<svg width="178" height="180" viewBox="0 0 178 180" fill="none" xmlns="http://www.w3.org/2000/svg">
<g clip-path="url(#clip0_1457_65379)">
<rect width="178" height="180" rx="16" fill="#00349C"/>
<path d="M13.3074 10.8391H3.41227C0.133325 10.8391 -2.52479 13.4972 -2.52479 16.7762V26.6713" stroke="#0F67FE" stroke-width="3"/>
<path d="M13.3074 74.1677H3.41227C0.133325 74.1677 -2.52479 76.8258 -2.52479 80.1048V89.9999" stroke="#0F67FE" stroke-width="3"/>
<path d="M13.3074 137.497H3.41227C0.133325 137.497 -2.52479 140.155 -2.52479 143.434V153.329" stroke="#0F67FE" stroke-width="3"/>
<path d="M15.2869 10.8391H25.182C28.4609 10.8391 31.119 13.4972 31.119 16.7762V26.6713" stroke="#0F67FE" stroke-width="3"/>
<path d="M15.2869 74.1677H25.182C28.4609 74.1677 31.119 76.8258 31.119 80.1048V89.9999" stroke="#0F67FE" stroke-width="3"/>
<path d="M15.2869 137.497H25.182C28.4609 137.497 31.119 140.155 31.119 143.434V153.329" stroke="#0F67FE" stroke-width="3"/>
<path d="M82.5732 10.8391H92.4683C95.7473 10.8391 98.4054 13.4972 98.4054 16.7762V26.6713" stroke="#0F67FE" stroke-width="3"/>
<path d="M82.5732 74.1677H92.4683C95.7473 74.1677 98.4054 76.8258 98.4054 80.1048V89.9999" stroke="#0F67FE" stroke-width="3"/>
<path d="M82.5732 137.497H92.4683C95.7473 137.497 98.4054 140.155 98.4054 143.434V153.329" stroke="#0F67FE" stroke-width="3"/>
<path d="M149.86 10.8391H159.755C163.034 10.8391 165.692 13.4972 165.692 16.7762V26.6713" stroke="#0F67FE" stroke-width="3"/>
<path d="M149.86 74.1677H159.755C163.034 74.1677 165.692 76.8258 165.692 80.1048V89.9999" stroke="#0F67FE" stroke-width="3"/>
<path d="M149.86 137.497H159.755C163.034 137.497 165.692 140.155 165.692 143.434V153.329" stroke="#0F67FE" stroke-width="3"/>
<path d="M46.9512 10.8391L37.0561 10.8391C33.7771 10.8391 31.119 8.181 31.119 4.90205L31.119 -4.99306" stroke="#0F67FE" stroke-width="3"/>
<path d="M46.9512 74.1677L37.0561 74.1677C33.7771 74.1677 31.119 71.5096 31.119 68.2307L31.119 58.3356" stroke="#0F67FE" stroke-width="3"/>
<path d="M46.9512 137.497L37.0561 137.497C33.7771 137.497 31.119 134.838 31.119 131.56L31.119 121.664" stroke="#0F67FE" stroke-width="3"/>
<path d="M114.238 10.8391L104.342 10.8391C101.063 10.8391 98.4054 8.181 98.4054 4.90205L98.4054 -4.99306" stroke="#0F67FE" stroke-width="3"/>
<path d="M114.238 74.1677L104.342 74.1677C101.063 74.1677 98.4054 71.5096 98.4054 68.2307L98.4054 58.3356" stroke="#0F67FE" stroke-width="3"/>
<path d="M114.238 137.497L104.342 137.497C101.063 137.497 98.4054 134.838 98.4054 131.56L98.4054 121.664" stroke="#0F67FE" stroke-width="3"/>
<path d="M181.524 10.8391L171.629 10.8391C168.35 10.8391 165.692 8.181 165.692 4.90205L165.692 -4.99306" stroke="#0F67FE" stroke-width="3"/>
<path d="M181.524 74.1677L171.629 74.1677C168.35 74.1677 165.692 71.5096 165.692 68.2307L165.692 58.3356" stroke="#0F67FE" stroke-width="3"/>
<path d="M181.524 137.497L171.629 137.497C168.35 137.497 165.692 134.838 165.692 131.56L165.692 121.664" stroke="#0F67FE" stroke-width="3"/>
<path d="M80.5942 10.8391H70.6991C67.4202 10.8391 64.7621 13.4972 64.7621 16.7762V26.6713" stroke="#0F67FE" stroke-width="3"/>
<path d="M80.5942 74.1677H70.6991C67.4202 74.1677 64.7621 76.8258 64.7621 80.1048V89.9999" stroke="#0F67FE" stroke-width="3"/>
<path d="M80.5942 137.497H70.6991C67.4202 137.497 64.7621 140.155 64.7621 143.434V153.329" stroke="#0F67FE" stroke-width="3"/>
<path d="M147.881 10.8391H137.986C134.707 10.8391 132.049 13.4972 132.049 16.7762V26.6713" stroke="#0F67FE" stroke-width="3"/>
<path d="M147.881 74.1677H137.986C134.707 74.1677 132.049 76.8258 132.049 80.1048V89.9999" stroke="#0F67FE" stroke-width="3"/>
<path d="M147.881 137.497H137.986C134.707 137.497 132.049 140.155 132.049 143.434V153.329" stroke="#0F67FE" stroke-width="3"/>
<path d="M48.9299 10.8391L58.825 10.8391C62.104 10.8391 64.7621 8.181 64.7621 4.90205L64.7621 -4.99306" stroke="#0F67FE" stroke-width="3"/>
<path d="M48.9299 74.1677L58.825 74.1677C62.104 74.1677 64.7621 71.5096 64.7621 68.2307L64.7621 58.3356" stroke="#0F67FE" stroke-width="3"/>
<path d="M48.9299 137.497L58.825 137.497C62.104 137.497 64.7621 134.838 64.7621 131.56L64.7621 121.664" stroke="#0F67FE" stroke-width="3"/>
<path d="M116.217 10.8391L126.112 10.8391C129.391 10.8391 132.049 8.181 132.049 4.90205L132.049 -4.99306" stroke="#0F67FE" stroke-width="3"/>
<path d="M116.217 74.1677L126.112 74.1677C129.391 74.1677 132.049 71.5096 132.049 68.2307L132.049 58.3356" stroke="#0F67FE" stroke-width="3"/>
<path d="M116.217 137.497L126.112 137.497C129.391 137.497 132.049 134.838 132.049 131.56L132.049 121.664" stroke="#0F67FE" stroke-width="3"/>
<path d="M29.1399 42.5034H19.2448C15.9658 42.5034 13.3077 45.1615 13.3077 48.4405V58.3356" stroke="#0F67FE" stroke-width="3"/>
<path d="M29.1399 105.832H19.2448C15.9658 105.832 13.3077 108.49 13.3077 111.769V121.664" stroke="#0F67FE" stroke-width="3"/>
<path d="M29.1399 169.161H19.2448C15.9658 169.161 13.3077 171.819 13.3077 175.098V184.993" stroke="#0F67FE" stroke-width="3"/>
<path d="M-2.52441 42.5034L7.3707 42.5034C10.6496 42.5034 13.3078 39.8453 13.3078 36.5664L13.3078 26.6712" stroke="#0F67FE" stroke-width="3"/>
<path d="M-2.52441 105.832L7.3707 105.832C10.6496 105.832 13.3078 103.174 13.3078 99.895L13.3078 89.9999" stroke="#0F67FE" stroke-width="3"/>
<path d="M-2.52441 169.161L7.3707 169.161C10.6496 169.161 13.3078 166.503 13.3078 163.224L13.3078 153.329" stroke="#0F67FE" stroke-width="3"/>
<path d="M31.1187 42.5034H41.0138C44.2927 42.5034 46.9508 45.1615 46.9508 48.4405V58.3356" stroke="#0F67FE" stroke-width="3"/>
<path d="M31.1187 105.832H41.0138C44.2927 105.832 46.9508 108.49 46.9508 111.769V121.664" stroke="#0F67FE" stroke-width="3"/>
<path d="M31.1187 169.161H41.0138C44.2927 169.161 46.9508 171.819 46.9508 175.098V184.993" stroke="#0F67FE" stroke-width="3"/>
<path d="M98.4058 42.5034H108.301C111.58 42.5034 114.238 45.1615 114.238 48.4405V58.3356" stroke="#0F67FE" stroke-width="3"/>
<path d="M98.4058 105.832H108.301C111.58 105.832 114.238 108.49 114.238 111.769V121.664" stroke="#0F67FE" stroke-width="3"/>
<path d="M98.4058 169.161H108.301C111.58 169.161 114.238 171.819 114.238 175.098V184.993" stroke="#0F67FE" stroke-width="3"/>
<path d="M165.693 42.5034H175.588C178.867 42.5034 181.525 45.1615 181.525 48.4405V58.3356" stroke="#0F67FE" stroke-width="3"/>
<path d="M165.693 105.832H175.588C178.867 105.832 181.525 108.49 181.525 111.769V121.664" stroke="#0F67FE" stroke-width="3"/>
<path d="M165.693 169.161H175.588C178.867 169.161 181.525 171.819 181.525 175.098V184.993" stroke="#0F67FE" stroke-width="3"/>
<path d="M62.7832 42.5034L52.8881 42.5034C49.6091 42.5034 46.951 39.8453 46.951 36.5664L46.951 26.6712" stroke="#0F67FE" stroke-width="3"/>
<path d="M62.7832 105.832L52.8881 105.832C49.6091 105.832 46.951 103.174 46.951 99.895L46.951 89.9999" stroke="#0F67FE" stroke-width="3"/>
<path d="M62.7832 169.161L52.8881 169.161C49.6091 169.161 46.951 166.503 46.951 163.224L46.951 153.329" stroke="#0F67FE" stroke-width="3"/>
<path d="M130.07 42.5034L120.175 42.5034C116.896 42.5034 114.238 39.8453 114.238 36.5664L114.238 26.6712" stroke="#0F67FE" stroke-width="3"/>
<path d="M130.07 105.832L120.175 105.832C116.896 105.832 114.238 103.174 114.238 99.895L114.238 89.9999" stroke="#0F67FE" stroke-width="3"/>
<path d="M130.07 169.161L120.175 169.161C116.896 169.161 114.238 166.503 114.238 163.224L114.238 153.329" stroke="#0F67FE" stroke-width="3"/>
<path d="M96.4268 42.5034H86.5317C83.2527 42.5034 80.5946 45.1615 80.5946 48.4405V58.3356" stroke="#0F67FE" stroke-width="3"/>
<path d="M96.4268 105.832H86.5317C83.2527 105.832 80.5946 108.49 80.5946 111.769V121.664" stroke="#0F67FE" stroke-width="3"/>
<path d="M96.4268 169.161H86.5317C83.2527 169.161 80.5946 171.819 80.5946 175.098V184.993" stroke="#0F67FE" stroke-width="3"/>
<path d="M163.713 42.5034H153.818C150.539 42.5034 147.881 45.1615 147.881 48.4405V58.3356" stroke="#0F67FE" stroke-width="3"/>
<path d="M163.713 105.832H153.818C150.539 105.832 147.881 108.49 147.881 111.769V121.664" stroke="#0F67FE" stroke-width="3"/>
<path d="M163.713 169.161H153.818C150.539 169.161 147.881 171.819 147.881 175.098V184.993" stroke="#0F67FE" stroke-width="3"/>
<path d="M64.7625 42.5034L74.6576 42.5034C77.9365 42.5034 80.5946 39.8453 80.5946 36.5664L80.5946 26.6712" stroke="#0F67FE" stroke-width="3"/>
<path d="M64.7625 105.832L74.6576 105.832C77.9365 105.832 80.5946 103.174 80.5946 99.895L80.5946 89.9999" stroke="#0F67FE" stroke-width="3"/>
<path d="M64.7625 169.161L74.6576 169.161C77.9365 169.161 80.5946 166.503 80.5946 163.224L80.5946 153.329" stroke="#0F67FE" stroke-width="3"/>
<path d="M132.049 42.5034L141.944 42.5034C145.223 42.5034 147.881 39.8453 147.881 36.5664L147.881 26.6712" stroke="#0F67FE" stroke-width="3"/>
<path d="M132.049 105.832L141.944 105.832C145.223 105.832 147.881 103.174 147.881 99.895L147.881 89.9999" stroke="#0F67FE" stroke-width="3"/>
<path d="M132.049 169.161L141.944 169.161C145.223 169.161 147.881 166.503 147.881 163.224L147.881 153.329" stroke="#0F67FE" stroke-width="3"/>
</g>
<defs>
<clipPath id="clip0_1457_65379">
<rect width="178" height="180" rx="16" fill="white"/>
</clipPath>
</defs>
</svg>
