<svg width="88" height="23" viewBox="0 0 88 23" fill="none" xmlns="http://www.w3.org/2000/svg">
<path d="M12.1003 21.5175C10.7765 21.7423 9.42941 21.8097 8.03593 21.9892L3.78563 9.95025V22.5059C2.46185 22.6406 1.25417 22.8203 0 23V0H3.53031L8.36103 13.05V0H12.1003V21.5175ZM19.4162 8.42286C20.8563 8.42286 23.0626 8.35545 24.3864 8.35545V11.9491C22.7373 11.9491 20.8098 11.9491 19.4162 12.0165V17.3623C21.5994 17.2276 23.7826 17.0478 25.9889 16.9804V20.4391L15.7001 21.2254V0H25.9889V3.59376H19.4162V8.42286ZM39.8078 3.59384H35.9525V20.1251C34.6983 20.1251 33.4441 20.1251 32.2366 20.1699V3.59384H28.3813V0H39.808L39.8078 3.59384ZM45.8463 8.17585H50.9327V11.7695H45.8463V19.9229H42.1997V0H52.5816V3.59376H45.8463V8.17585ZM58.6201 16.7783C60.7337 16.8231 62.8702 16.9806 64.9374 17.0927V20.6416C61.6162 20.4393 58.295 20.2374 54.9042 20.1699V0H58.6201V16.7783ZM68.0727 20.8887C69.2572 20.9562 70.5114 21.0236 71.7191 21.1581V0H68.0727V20.8887ZM88 0L83.2852 10.9385L88 23C86.6064 22.8203 85.2129 22.5732 83.8193 22.3486L81.1485 15.7003L78.4315 21.8097C77.0841 21.5849 75.7836 21.5175 74.4367 21.3378L79.2211 10.8036L74.9011 0H78.8956L81.3343 6.04201L83.9356 0H88Z" fill="#78AEFF"/>
</svg>
